%TF.GenerationSoftware,KiCad,Pcbnew,(6.0.7)*%
%TF.CreationDate,2023-09-13T17:05:02+02:00*%
%TF.ProjectId,freqcount1.1,66726571-636f-4756-9e74-312e312e6b69,rev?*%
%TF.SameCoordinates,PX2562500PY632ea00*%
%TF.FileFunction,Soldermask,Top*%
%TF.FilePolarity,Negative*%
%FSLAX46Y46*%
G04 Gerber Fmt 4.6, Leading zero omitted, Abs format (unit mm)*
G04 Created by KiCad (PCBNEW (6.0.7)) date 2023-09-13 17:05:02*
%MOMM*%
%LPD*%
G01*
G04 APERTURE LIST*
G04 Aperture macros list*
%AMRoundRect*
0 Rectangle with rounded corners*
0 $1 Rounding radius*
0 $2 $3 $4 $5 $6 $7 $8 $9 X,Y pos of 4 corners*
0 Add a 4 corners polygon primitive as box body*
4,1,4,$2,$3,$4,$5,$6,$7,$8,$9,$2,$3,0*
0 Add four circle primitives for the rounded corners*
1,1,$1+$1,$2,$3*
1,1,$1+$1,$4,$5*
1,1,$1+$1,$6,$7*
1,1,$1+$1,$8,$9*
0 Add four rect primitives between the rounded corners*
20,1,$1+$1,$2,$3,$4,$5,0*
20,1,$1+$1,$4,$5,$6,$7,0*
20,1,$1+$1,$6,$7,$8,$9,0*
20,1,$1+$1,$8,$9,$2,$3,0*%
G04 Aperture macros list end*
%ADD10R,0.600000X0.450000*%
%ADD11RoundRect,0.200000X-0.200000X-0.275000X0.200000X-0.275000X0.200000X0.275000X-0.200000X0.275000X0*%
%ADD12RoundRect,0.150000X-0.512500X-0.150000X0.512500X-0.150000X0.512500X0.150000X-0.512500X0.150000X0*%
%ADD13R,2.000000X2.000000*%
%ADD14O,1.600000X2.000000*%
%ADD15R,1.700000X1.700000*%
%ADD16O,1.700000X1.700000*%
%ADD17RoundRect,0.250000X-0.350000X-0.625000X0.350000X-0.625000X0.350000X0.625000X-0.350000X0.625000X0*%
%ADD18O,1.200000X1.750000*%
%ADD19RoundRect,0.225000X-0.225000X-0.250000X0.225000X-0.250000X0.225000X0.250000X-0.225000X0.250000X0*%
%ADD20RoundRect,0.250000X-0.625000X0.350000X-0.625000X-0.350000X0.625000X-0.350000X0.625000X0.350000X0*%
%ADD21O,1.750000X1.200000*%
%ADD22C,2.050000*%
%ADD23C,2.250000*%
%ADD24RoundRect,0.100000X-0.637500X-0.100000X0.637500X-0.100000X0.637500X0.100000X-0.637500X0.100000X0*%
%ADD25RoundRect,0.750000X-0.750000X-0.750000X0.750000X-0.750000X0.750000X0.750000X-0.750000X0.750000X0*%
%ADD26R,1.000000X0.400000*%
%ADD27R,1.750000X0.450000*%
%ADD28RoundRect,0.150000X-0.587500X-0.150000X0.587500X-0.150000X0.587500X0.150000X-0.587500X0.150000X0*%
%ADD29RoundRect,0.200000X0.275000X-0.200000X0.275000X0.200000X-0.275000X0.200000X-0.275000X-0.200000X0*%
%ADD30RoundRect,0.200000X0.200000X0.275000X-0.200000X0.275000X-0.200000X-0.275000X0.200000X-0.275000X0*%
%ADD31R,3.100000X1.600000*%
%ADD32C,2.000000*%
G04 APERTURE END LIST*
D10*
%TO.C,D2*%
X48400000Y17400000D03*
X50500000Y17400000D03*
%TD*%
D11*
%TO.C,R5*%
X58800000Y5400000D03*
X60450000Y5400000D03*
%TD*%
D12*
%TO.C,U5*%
X55262500Y19350000D03*
X55262500Y18400000D03*
X55262500Y17450000D03*
X57537500Y17450000D03*
X57537500Y19350000D03*
%TD*%
%TO.C,U12*%
X22000000Y44150000D03*
X22000000Y43200000D03*
X22000000Y42250000D03*
X24275000Y42250000D03*
X24275000Y44150000D03*
%TD*%
D11*
%TO.C,R2*%
X43200000Y5200000D03*
X44850000Y5200000D03*
%TD*%
D13*
%TO.C,U11*%
X26490000Y25275000D03*
D14*
X23950000Y25275000D03*
X21410000Y25275000D03*
X18870000Y25275000D03*
X16330000Y25275000D03*
X13790000Y25275000D03*
X11250000Y25275000D03*
X8710000Y25275000D03*
X8710000Y2415000D03*
X11250000Y2415000D03*
X13790000Y2415000D03*
X16330000Y2415000D03*
X18870000Y2415000D03*
X21410000Y2415000D03*
X23950000Y2415000D03*
X26490000Y2415000D03*
%TD*%
D15*
%TO.C,JP1*%
X64525000Y27800000D03*
D16*
X67065000Y27800000D03*
%TD*%
D11*
%TO.C,R3*%
X66000000Y5400000D03*
X67650000Y5400000D03*
%TD*%
D17*
%TO.C,J2*%
X4000000Y31600000D03*
D18*
X6000000Y31600000D03*
X8000000Y31600000D03*
%TD*%
D19*
%TO.C,C1*%
X11600000Y39400000D03*
X13150000Y39400000D03*
%TD*%
D20*
%TO.C,J6*%
X39200000Y42800000D03*
D21*
X39200000Y40800000D03*
X39200000Y38800000D03*
X39200000Y36800000D03*
%TD*%
D22*
%TO.C,J4*%
X6000000Y40600000D03*
D23*
X3460000Y43140000D03*
X3460000Y38060000D03*
X8540000Y43140000D03*
X8540000Y38060000D03*
%TD*%
D20*
%TO.C,J3*%
X44750000Y42800000D03*
D21*
X44750000Y40800000D03*
X44750000Y38800000D03*
X44750000Y36800000D03*
%TD*%
D24*
%TO.C,U6*%
X38337500Y14925000D03*
X38337500Y14275000D03*
X38337500Y13625000D03*
X38337500Y12975000D03*
X38337500Y12325000D03*
X38337500Y11675000D03*
X38337500Y11025000D03*
X38337500Y10375000D03*
X38337500Y9725000D03*
X38337500Y9075000D03*
X44062500Y9075000D03*
X44062500Y9725000D03*
X44062500Y10375000D03*
X44062500Y11025000D03*
X44062500Y11675000D03*
X44062500Y12325000D03*
X44062500Y12975000D03*
X44062500Y13625000D03*
X44062500Y14275000D03*
X44062500Y14925000D03*
%TD*%
D25*
%TO.C,QA1*%
X42549000Y23905000D03*
X57789000Y23905000D03*
X57789000Y31525000D03*
X42549000Y31525000D03*
%TD*%
D11*
%TO.C,R6*%
X11600000Y36400000D03*
X13250000Y36400000D03*
%TD*%
D26*
%TO.C,U1*%
X64100000Y44675000D03*
X64100000Y44025000D03*
X64100000Y43375000D03*
X64100000Y42725000D03*
X64100000Y42075000D03*
X64100000Y41425000D03*
X64100000Y40775000D03*
X64100000Y40125000D03*
X69900000Y40125000D03*
X69900000Y40775000D03*
X69900000Y41425000D03*
X69900000Y42075000D03*
X69900000Y42725000D03*
X69900000Y43375000D03*
X69900000Y44025000D03*
X69900000Y44675000D03*
%TD*%
D12*
%TO.C,U8*%
X75862500Y19550000D03*
X75862500Y18600000D03*
X75862500Y17650000D03*
X78137500Y17650000D03*
X78137500Y19550000D03*
%TD*%
D27*
%TO.C,U7*%
X48420000Y14125000D03*
X48420000Y13475000D03*
X48420000Y12825000D03*
X48420000Y12175000D03*
X48420000Y11525000D03*
X48420000Y10875000D03*
X48420000Y10225000D03*
X48420000Y9575000D03*
X48420000Y8925000D03*
X48420000Y8275000D03*
X48420000Y7625000D03*
X48420000Y6975000D03*
X48420000Y6325000D03*
X48420000Y5675000D03*
X55620000Y5675000D03*
X55620000Y6325000D03*
X55620000Y6975000D03*
X55620000Y7625000D03*
X55620000Y8275000D03*
X55620000Y8925000D03*
X55620000Y9575000D03*
X55620000Y10225000D03*
X55620000Y10875000D03*
X55620000Y11525000D03*
X55620000Y12175000D03*
X55620000Y12825000D03*
X55620000Y13475000D03*
X55620000Y14125000D03*
%TD*%
D28*
%TO.C,D7*%
X11600000Y44100000D03*
X11600000Y42200000D03*
X13475000Y43150000D03*
%TD*%
D22*
%TO.C,J5*%
X51800000Y40000000D03*
D23*
X54340000Y42540000D03*
X49260000Y42540000D03*
X54340000Y37460000D03*
X49260000Y37460000D03*
%TD*%
D19*
%TO.C,C2*%
X14800000Y39400000D03*
X16350000Y39400000D03*
%TD*%
D26*
%TO.C,U3*%
X64100000Y36675000D03*
X64100000Y36025000D03*
X64100000Y35375000D03*
X64100000Y34725000D03*
X64100000Y34075000D03*
X64100000Y33425000D03*
X64100000Y32775000D03*
X64100000Y32125000D03*
X69900000Y32125000D03*
X69900000Y32775000D03*
X69900000Y33425000D03*
X69900000Y34075000D03*
X69900000Y34725000D03*
X69900000Y35375000D03*
X69900000Y36025000D03*
X69900000Y36675000D03*
%TD*%
D28*
%TO.C,D5*%
X27862500Y44150000D03*
X27862500Y42250000D03*
X29737500Y43200000D03*
%TD*%
D24*
%TO.C,U9*%
X60237500Y14925000D03*
X60237500Y14275000D03*
X60237500Y13625000D03*
X60237500Y12975000D03*
X60237500Y12325000D03*
X60237500Y11675000D03*
X60237500Y11025000D03*
X60237500Y10375000D03*
X60237500Y9725000D03*
X60237500Y9075000D03*
X65962500Y9075000D03*
X65962500Y9725000D03*
X65962500Y10375000D03*
X65962500Y11025000D03*
X65962500Y11675000D03*
X65962500Y12325000D03*
X65962500Y12975000D03*
X65962500Y13625000D03*
X65962500Y14275000D03*
X65962500Y14925000D03*
%TD*%
D26*
%TO.C,U2*%
X72100000Y44675000D03*
X72100000Y44025000D03*
X72100000Y43375000D03*
X72100000Y42725000D03*
X72100000Y42075000D03*
X72100000Y41425000D03*
X72100000Y40775000D03*
X72100000Y40125000D03*
X77900000Y40125000D03*
X77900000Y40775000D03*
X77900000Y41425000D03*
X77900000Y42075000D03*
X77900000Y42725000D03*
X77900000Y43375000D03*
X77900000Y44025000D03*
X77900000Y44675000D03*
%TD*%
%TO.C,U4*%
X72100000Y36675000D03*
X72100000Y36025000D03*
X72100000Y35375000D03*
X72100000Y34725000D03*
X72100000Y34075000D03*
X72100000Y33425000D03*
X72100000Y32775000D03*
X72100000Y32125000D03*
X77900000Y32125000D03*
X77900000Y32775000D03*
X77900000Y33425000D03*
X77900000Y34075000D03*
X77900000Y34725000D03*
X77900000Y35375000D03*
X77900000Y36025000D03*
X77900000Y36675000D03*
%TD*%
D29*
%TO.C,R11*%
X71800000Y27000000D03*
X71800000Y28650000D03*
%TD*%
D11*
%TO.C,R4*%
X62200000Y5400000D03*
X63850000Y5400000D03*
%TD*%
D10*
%TO.C,D1*%
X48400000Y20000000D03*
X50500000Y20000000D03*
%TD*%
D30*
%TO.C,R10*%
X24450000Y36400000D03*
X22800000Y36400000D03*
%TD*%
D27*
%TO.C,U10*%
X70590000Y14225000D03*
X70590000Y13575000D03*
X70590000Y12925000D03*
X70590000Y12275000D03*
X70590000Y11625000D03*
X70590000Y10975000D03*
X70590000Y10325000D03*
X70590000Y9675000D03*
X70590000Y9025000D03*
X70590000Y8375000D03*
X70590000Y7725000D03*
X70590000Y7075000D03*
X70590000Y6425000D03*
X70590000Y5775000D03*
X77790000Y5775000D03*
X77790000Y6425000D03*
X77790000Y7075000D03*
X77790000Y7725000D03*
X77790000Y8375000D03*
X77790000Y9025000D03*
X77790000Y9675000D03*
X77790000Y10325000D03*
X77790000Y10975000D03*
X77790000Y11625000D03*
X77790000Y12275000D03*
X77790000Y12925000D03*
X77790000Y13575000D03*
X77790000Y14225000D03*
%TD*%
D11*
%TO.C,R8*%
X19600000Y39400000D03*
X21250000Y39400000D03*
%TD*%
D19*
%TO.C,C3*%
X22800000Y39400000D03*
X24350000Y39400000D03*
%TD*%
D28*
%TO.C,Q1*%
X16600000Y44100000D03*
X16600000Y42200000D03*
X18475000Y43150000D03*
%TD*%
D31*
%TO.C,SW1*%
X13200000Y32140000D03*
X13200000Y29600000D03*
X22090000Y29600000D03*
X22090000Y32140000D03*
%TD*%
D20*
%TO.C,J1*%
X60550000Y42800000D03*
D21*
X60550000Y40800000D03*
X60550000Y38800000D03*
X60550000Y36800000D03*
%TD*%
D11*
%TO.C,R9*%
X19600000Y36400000D03*
X21250000Y36400000D03*
%TD*%
D32*
%TO.C,F1*%
X28060000Y33810000D03*
X33140000Y33800000D03*
%TD*%
D30*
%TO.C,R7*%
X16450000Y36400000D03*
X14800000Y36400000D03*
%TD*%
%TO.C,R1*%
X39650000Y5200000D03*
X38000000Y5200000D03*
%TD*%
D10*
%TO.C,D4*%
X71000000Y17600000D03*
X73100000Y17600000D03*
%TD*%
%TO.C,D3*%
X71000000Y20200000D03*
X73100000Y20200000D03*
%TD*%
M02*
