%TF.GenerationSoftware,KiCad,Pcbnew,(6.0.7)*%
%TF.CreationDate,2023-09-13T17:05:02+02:00*%
%TF.ProjectId,freqcount1.1,66726571-636f-4756-9e74-312e312e6b69,rev?*%
%TF.SameCoordinates,PX2562500PY632ea00*%
%TF.FileFunction,Copper,L2,Bot*%
%TF.FilePolarity,Positive*%
%FSLAX46Y46*%
G04 Gerber Fmt 4.6, Leading zero omitted, Abs format (unit mm)*
G04 Created by KiCad (PCBNEW (6.0.7)) date 2023-09-13 17:05:02*
%MOMM*%
%LPD*%
G01*
G04 APERTURE LIST*
G04 Aperture macros list*
%AMRoundRect*
0 Rectangle with rounded corners*
0 $1 Rounding radius*
0 $2 $3 $4 $5 $6 $7 $8 $9 X,Y pos of 4 corners*
0 Add a 4 corners polygon primitive as box body*
4,1,4,$2,$3,$4,$5,$6,$7,$8,$9,$2,$3,0*
0 Add four circle primitives for the rounded corners*
1,1,$1+$1,$2,$3*
1,1,$1+$1,$4,$5*
1,1,$1+$1,$6,$7*
1,1,$1+$1,$8,$9*
0 Add four rect primitives between the rounded corners*
20,1,$1+$1,$2,$3,$4,$5,0*
20,1,$1+$1,$4,$5,$6,$7,0*
20,1,$1+$1,$6,$7,$8,$9,0*
20,1,$1+$1,$8,$9,$2,$3,0*%
G04 Aperture macros list end*
%TA.AperFunction,ComponentPad*%
%ADD10R,2.000000X2.000000*%
%TD*%
%TA.AperFunction,ComponentPad*%
%ADD11O,1.600000X2.000000*%
%TD*%
%TA.AperFunction,ComponentPad*%
%ADD12R,1.700000X1.700000*%
%TD*%
%TA.AperFunction,ComponentPad*%
%ADD13O,1.700000X1.700000*%
%TD*%
%TA.AperFunction,ComponentPad*%
%ADD14RoundRect,0.250000X-0.350000X-0.625000X0.350000X-0.625000X0.350000X0.625000X-0.350000X0.625000X0*%
%TD*%
%TA.AperFunction,ComponentPad*%
%ADD15O,1.200000X1.750000*%
%TD*%
%TA.AperFunction,ComponentPad*%
%ADD16RoundRect,0.250000X-0.625000X0.350000X-0.625000X-0.350000X0.625000X-0.350000X0.625000X0.350000X0*%
%TD*%
%TA.AperFunction,ComponentPad*%
%ADD17O,1.750000X1.200000*%
%TD*%
%TA.AperFunction,ComponentPad*%
%ADD18C,2.050000*%
%TD*%
%TA.AperFunction,ComponentPad*%
%ADD19C,2.250000*%
%TD*%
%TA.AperFunction,ComponentPad*%
%ADD20RoundRect,0.750000X-0.750000X-0.750000X0.750000X-0.750000X0.750000X0.750000X-0.750000X0.750000X0*%
%TD*%
%TA.AperFunction,ComponentPad*%
%ADD21C,2.000000*%
%TD*%
%TA.AperFunction,ViaPad*%
%ADD22C,0.800000*%
%TD*%
%TA.AperFunction,ViaPad*%
%ADD23C,0.600000*%
%TD*%
%TA.AperFunction,Conductor*%
%ADD24C,0.250000*%
%TD*%
G04 APERTURE END LIST*
D10*
%TO.P,U11,1,~{RST}*%
%TO.N,unconnected-(U11-Pad1)*%
X26490000Y25275000D03*
D11*
%TO.P,U11,2,A0*%
%TO.N,unconnected-(U11-Pad2)*%
X23950000Y25275000D03*
%TO.P,U11,3,D0*%
%TO.N,unconnected-(U11-Pad3)*%
X21410000Y25275000D03*
%TO.P,U11,4,SCK/D5*%
%TO.N,unconnected-(U11-Pad4)*%
X18870000Y25275000D03*
%TO.P,U11,5,MISO/D6*%
%TO.N,unconnected-(U11-Pad5)*%
X16330000Y25275000D03*
%TO.P,U11,6,MOSI/D7*%
%TO.N,unconnected-(U11-Pad6)*%
X13790000Y25275000D03*
%TO.P,U11,7,CS/D8*%
%TO.N,unconnected-(U11-Pad7)*%
X11250000Y25275000D03*
%TO.P,U11,8,3V3*%
%TO.N,unconnected-(U11-Pad8)*%
X8710000Y25275000D03*
%TO.P,U11,9,5V*%
%TO.N,+5V*%
X8710000Y2415000D03*
%TO.P,U11,10,GND*%
%TO.N,GND*%
X11250000Y2415000D03*
%TO.P,U11,11,D4*%
%TO.N,unconnected-(U11-Pad11)*%
X13790000Y2415000D03*
%TO.P,U11,12,D3*%
%TO.N,unconnected-(U11-Pad12)*%
X16330000Y2415000D03*
%TO.P,U11,13,SDA/D2*%
%TO.N,/ESP/SDA*%
X18870000Y2415000D03*
%TO.P,U11,14,SCL/D1*%
%TO.N,/ESP/SCK*%
X21410000Y2415000D03*
%TO.P,U11,15,RX*%
%TO.N,Rx*%
X23950000Y2415000D03*
%TO.P,U11,16,TX*%
%TO.N,Tx*%
X26490000Y2415000D03*
%TD*%
D12*
%TO.P,JP1,1,A*%
%TO.N,+5V*%
X64525000Y27800000D03*
D13*
%TO.P,JP1,2,B*%
%TO.N,/Zaehler_Referenz/measure_select*%
X67065000Y27800000D03*
%TD*%
D14*
%TO.P,J2,1,Pin_1*%
%TO.N,+5V*%
X4000000Y31600000D03*
D15*
%TO.P,J2,2,Pin_2*%
%TO.N,/Zaehler_Messsignal/Messsignal*%
X6000000Y31600000D03*
%TO.P,J2,3,Pin_3*%
%TO.N,GND*%
X8000000Y31600000D03*
%TD*%
D16*
%TO.P,J6,1,Pin_1*%
%TO.N,Net-(F1-Pad1)*%
X39200000Y42800000D03*
D17*
%TO.P,J6,2,Pin_2*%
%TO.N,/ESP/SDA*%
X39200000Y40800000D03*
%TO.P,J6,3,Pin_3*%
%TO.N,/ESP/SCK*%
X39200000Y38800000D03*
%TO.P,J6,4,Pin_4*%
%TO.N,GND*%
X39200000Y36800000D03*
%TD*%
D18*
%TO.P,J4,1,In*%
%TO.N,Net-(J4-Pad1)*%
X6000000Y40600000D03*
D19*
%TO.P,J4,2,Ext*%
%TO.N,GND*%
X3460000Y43140000D03*
X3460000Y38060000D03*
X8540000Y43140000D03*
X8540000Y38060000D03*
%TD*%
D16*
%TO.P,J3,1,Pin_1*%
%TO.N,Net-(F1-Pad1)*%
X44750000Y42800000D03*
D17*
%TO.P,J3,2,Pin_2*%
%TO.N,Tx*%
X44750000Y40800000D03*
%TO.P,J3,3,Pin_3*%
%TO.N,Rx*%
X44750000Y38800000D03*
%TO.P,J3,4,Pin_4*%
%TO.N,GND*%
X44750000Y36800000D03*
%TD*%
D20*
%TO.P,QA1,1,Vcontrol*%
%TO.N,Net-(J1-Pad2)*%
X42549000Y23905000D03*
%TO.P,QA1,7,GND*%
%TO.N,GND*%
X57789000Y23905000D03*
%TO.P,QA1,8,Out*%
%TO.N,/Teiler_1Hz/10MHz_Referenz*%
X57789000Y31525000D03*
%TO.P,QA1,14,Vin*%
%TO.N,+5V*%
X42549000Y31525000D03*
%TD*%
D18*
%TO.P,J5,1,In*%
%TO.N,/Teiler_1Hz/10MHz_Referenz*%
X51800000Y40000000D03*
D19*
%TO.P,J5,2,Ext*%
%TO.N,GND*%
X54340000Y42540000D03*
X49260000Y42540000D03*
X54340000Y37460000D03*
X49260000Y37460000D03*
%TD*%
D16*
%TO.P,J1,1,Pin_1*%
%TO.N,+5V*%
X60550000Y42800000D03*
D17*
%TO.P,J1,2,Pin_2*%
%TO.N,Net-(J1-Pad2)*%
X60550000Y40800000D03*
%TO.P,J1,3,Pin_3*%
%TO.N,/Teiler_1Hz/10MHz_Referenz*%
X60550000Y38800000D03*
%TO.P,J1,4,Pin_4*%
%TO.N,GND*%
X60550000Y36800000D03*
%TD*%
D21*
%TO.P,F1,1*%
%TO.N,Net-(F1-Pad1)*%
X28060000Y33810000D03*
%TO.P,F1,2*%
%TO.N,+5V*%
X33140000Y33800000D03*
%TD*%
D22*
%TO.N,Net-(D3-Pad1)*%
X70000000Y17600000D03*
X64600000Y6400000D03*
%TO.N,Net-(D1-Pad1)*%
X39600000Y6800000D03*
X47200000Y17400000D03*
%TO.N,+5V*%
X67400000Y20000000D03*
X78000000Y24000000D03*
%TO.N,GND*%
X22000000Y41600000D03*
D23*
X72816798Y36025001D03*
D22*
X58800000Y6200000D03*
D23*
X77000000Y35400000D03*
D22*
X71600000Y31600000D03*
X54400000Y17200000D03*
X72400000Y39600000D03*
D23*
X78616798Y43374999D03*
D22*
X23000000Y37200000D03*
D23*
X69183202Y43374999D03*
D22*
X64800000Y39800000D03*
X67200000Y6000000D03*
X76800000Y17600000D03*
X72200000Y29400000D03*
X39200000Y8800000D03*
X27200000Y44600000D03*
D23*
X64816798Y44025001D03*
X73200000Y44200000D03*
D22*
X59200000Y9000000D03*
X12200000Y44600000D03*
X63800000Y31600000D03*
X43200000Y4400000D03*
X16800000Y42800000D03*
X37400000Y5600000D03*
D23*
X47282557Y8275001D03*
X69183202Y35374999D03*
D22*
%TO.N,Rx*%
X35800000Y24600000D03*
%TO.N,Tx*%
X36600000Y23400000D03*
%TO.N,Net-(U3-Pad7)*%
X65375000Y32775000D03*
X76600000Y36400000D03*
%TO.N,Net-(U4-Pad1)*%
X76600000Y32200000D03*
X72200000Y37400000D03*
%TO.N,Net-(U5-Pad4)*%
X57600000Y18400000D03*
X41000000Y10200000D03*
%TO.N,GAL1*%
X50487701Y11687701D03*
X40200000Y13800000D03*
%TO.N,GAU1*%
X41200000Y13400000D03*
X50000000Y13200000D03*
%TO.N,GBL1*%
X41000000Y11800000D03*
X52200000Y12200000D03*
%TO.N,GBU1*%
X40200000Y11200000D03*
X53600000Y12200000D03*
%TO.N,Net-(U8-Pad4)*%
X62400000Y10200000D03*
X77019799Y16019799D03*
%TO.N,GAL2*%
X58600000Y13600000D03*
X75800000Y9000000D03*
%TO.N,GAU2*%
X74000000Y11600000D03*
X63400000Y13800000D03*
%TO.N,GBL2*%
X75212299Y11412299D03*
X63600000Y11800000D03*
%TO.N,GBU2*%
X62600000Y11200000D03*
X76000000Y12200000D03*
%TO.N,/Zaehler_Referenz/measure_select*%
X75000000Y13800000D03*
X69600000Y27800000D03*
%TO.N,/Teiler_1Hz/10MHz_Referenz*%
X62600000Y43200000D03*
%TO.N,/ESP/SCK*%
X46000000Y7400000D03*
X72400000Y6400000D03*
X34800000Y25200000D03*
%TO.N,/ESP/SDA*%
X69000000Y4800000D03*
X33800000Y25800000D03*
X45200000Y6600000D03*
%TO.N,Net-(J1-Pad2)*%
X56800000Y39400000D03*
X55600000Y35000000D03*
%TO.N,Net-(C3-Pad1)*%
X18425000Y38375000D03*
X21250000Y38050000D03*
%TO.N,/Zaehler_Messsignal/Messsignal*%
X29800000Y42000000D03*
X24907500Y29507500D03*
%TD*%
D24*
%TO.N,Net-(D3-Pad1)*%
X57875000Y13900305D02*
X61574695Y17600000D01*
X63400000Y6400000D02*
X57875000Y11925000D01*
X61574695Y17600000D02*
X70000000Y17600000D01*
X64600000Y6400000D02*
X63400000Y6400000D01*
X57875000Y11925000D02*
X57875000Y13900305D01*
%TO.N,Net-(D1-Pad1)*%
X37000000Y9400000D02*
X39600000Y6800000D01*
X47200000Y17400000D02*
X38563604Y17400000D01*
X38563604Y17400000D02*
X37000000Y15836396D01*
X37000000Y15836396D02*
X37000000Y9400000D01*
%TO.N,+5V*%
X71400000Y24000000D02*
X78000000Y24000000D01*
X67400000Y20000000D02*
X71400000Y24000000D01*
X64525000Y22875000D02*
X67400000Y20000000D01*
X64525000Y27800000D02*
X64525000Y22875000D01*
%TO.N,Rx*%
X38200000Y27000000D02*
X38200000Y33200000D01*
X35800000Y24600000D02*
X38200000Y27000000D01*
X43800000Y38800000D02*
X44750000Y38800000D01*
X38200000Y33200000D02*
X43800000Y38800000D01*
%TO.N,Tx*%
X45800000Y40800000D02*
X44750000Y40800000D01*
X46600000Y32555720D02*
X46600000Y40000000D01*
X37444280Y23400000D02*
X46600000Y32555720D01*
X36600000Y23400000D02*
X37444280Y23400000D01*
X46600000Y40000000D02*
X45800000Y40800000D01*
%TO.N,Net-(U3-Pad7)*%
X76600000Y36400000D02*
X76275000Y36075000D01*
X76275000Y36075000D02*
X76275000Y35475000D01*
X73575000Y32775000D02*
X65375000Y32775000D01*
X76275000Y35475000D02*
X73575000Y32775000D01*
%TO.N,Net-(U4-Pad1)*%
X77800000Y36800000D02*
X77200000Y37400000D01*
X77200000Y37400000D02*
X72200000Y37400000D01*
X76600000Y32200000D02*
X77800000Y33400000D01*
X77800000Y33400000D02*
X77800000Y36800000D01*
%TO.N,Net-(U5-Pad4)*%
X37800000Y16000000D02*
X37600000Y15800000D01*
X37800000Y10200000D02*
X41000000Y10200000D01*
X37600000Y15800000D02*
X37600000Y10400000D01*
X57600000Y18400000D02*
X55200000Y16000000D01*
X37600000Y10400000D02*
X37800000Y10200000D01*
X55200000Y16000000D02*
X37800000Y16000000D01*
%TO.N,GAL1*%
X50487701Y11687701D02*
X49500402Y12675000D01*
X40200000Y13200000D02*
X40200000Y13800000D01*
X40725000Y12675000D02*
X40200000Y13200000D01*
X49500402Y12675000D02*
X40725000Y12675000D01*
%TO.N,GAU1*%
X43200000Y13200000D02*
X43000000Y13400000D01*
X50000000Y13200000D02*
X43200000Y13200000D01*
X43000000Y13400000D02*
X41200000Y13400000D01*
%TO.N,GBL1*%
X39475000Y12950305D02*
X40625305Y11800000D01*
X39475000Y14675000D02*
X39475000Y12950305D01*
X52200000Y12200000D02*
X49600000Y14800000D01*
X49600000Y14800000D02*
X39600000Y14800000D01*
X39600000Y14800000D02*
X39475000Y14675000D01*
X40625305Y11800000D02*
X41000000Y11800000D01*
%TO.N,GBU1*%
X43800000Y10800000D02*
X52400000Y10800000D01*
X53600000Y12000000D02*
X53600000Y12200000D01*
X40200000Y11200000D02*
X40325000Y11075000D01*
X52400000Y10800000D02*
X53600000Y12000000D01*
X40325000Y11075000D02*
X43525000Y11075000D01*
X43525000Y11075000D02*
X43800000Y10800000D01*
%TO.N,Net-(U8-Pad4)*%
X62000000Y16000000D02*
X61475000Y15475000D01*
X61475000Y15475000D02*
X61475000Y11125000D01*
X77019799Y16019799D02*
X77000000Y16000000D01*
X77000000Y16000000D02*
X62000000Y16000000D01*
X61475000Y11125000D02*
X62400000Y10200000D01*
%TO.N,GAL2*%
X75800000Y9000000D02*
X74000000Y7200000D01*
X74000000Y7200000D02*
X63400000Y7200000D01*
X63400000Y7200000D02*
X58600000Y12000000D01*
X58600000Y12000000D02*
X58600000Y13600000D01*
%TO.N,GAU2*%
X63400000Y13800000D02*
X68650000Y8550000D01*
X68650000Y8550000D02*
X71550000Y8550000D01*
X71550000Y8550000D02*
X74000000Y11000000D01*
X74000000Y11000000D02*
X74000000Y11600000D01*
%TO.N,GBL2*%
X75212299Y11412299D02*
X71900000Y8100000D01*
X67300000Y8100000D02*
X63600000Y11800000D01*
X71900000Y8100000D02*
X67300000Y8100000D01*
%TO.N,GBU2*%
X73424695Y7650000D02*
X76000000Y10225305D01*
X62600000Y11200000D02*
X66150000Y7650000D01*
X66150000Y7650000D02*
X73424695Y7650000D01*
X76000000Y10225305D02*
X76000000Y12200000D01*
%TO.N,/Zaehler_Referenz/measure_select*%
X76300305Y13800000D02*
X78862500Y16362195D01*
X75000000Y13800000D02*
X76300305Y13800000D01*
X78862500Y24337500D02*
X75400000Y27800000D01*
X75400000Y27800000D02*
X69600000Y27800000D01*
X78862500Y16362195D02*
X78862500Y24337500D01*
%TO.N,/Teiler_1Hz/10MHz_Referenz*%
X62600000Y43200000D02*
X62600000Y40850000D01*
X62600000Y40850000D02*
X60550000Y38800000D01*
%TO.N,/ESP/SCK*%
X38025305Y4200000D02*
X23000000Y4200000D01*
X69000000Y6400000D02*
X72400000Y6400000D01*
X46000000Y7400000D02*
X49200000Y4200000D01*
X46000000Y7400000D02*
X41225305Y7400000D01*
X34800000Y25200000D02*
X36600000Y27000000D01*
X23000000Y4200000D02*
X21410000Y2610000D01*
X66800000Y4200000D02*
X69000000Y6400000D01*
X36600000Y37600000D02*
X37800000Y38800000D01*
X36600000Y27000000D02*
X36600000Y37600000D01*
X37800000Y38800000D02*
X39200000Y38800000D01*
X21410000Y2610000D02*
X21410000Y2415000D01*
X49200000Y4200000D02*
X66800000Y4200000D01*
X41225305Y7400000D02*
X38025305Y4200000D01*
%TO.N,/ESP/SDA*%
X67800000Y3600000D02*
X69000000Y4800000D01*
X20285000Y1000000D02*
X18870000Y2415000D01*
X37600000Y40800000D02*
X39200000Y40800000D01*
X35200000Y38400000D02*
X37600000Y40800000D01*
X48200000Y3600000D02*
X67800000Y3600000D01*
X37200000Y1000000D02*
X20285000Y1000000D01*
X42800000Y6600000D02*
X37200000Y1000000D01*
X33800000Y25800000D02*
X35200000Y27200000D01*
X45200000Y6600000D02*
X42800000Y6600000D01*
X35200000Y27200000D02*
X35200000Y38400000D01*
X45200000Y6600000D02*
X48200000Y3600000D01*
%TO.N,Net-(J1-Pad2)*%
X56800000Y39400000D02*
X56800000Y36200000D01*
X56800000Y36200000D02*
X55600000Y35000000D01*
%TO.N,Net-(C3-Pad1)*%
X18425000Y38375000D02*
X18750000Y38050000D01*
X18750000Y38050000D02*
X21250000Y38050000D01*
%TO.N,/Zaehler_Messsignal/Messsignal*%
X24907500Y29507500D02*
X24907500Y34707500D01*
X24907500Y34707500D02*
X29800000Y39600000D01*
X29800000Y39600000D02*
X29800000Y42000000D01*
%TD*%
%TA.AperFunction,Conductor*%
%TO.N,GND*%
G36*
X81233621Y47071498D02*
G01*
X81280114Y47017842D01*
X81291500Y46965500D01*
X81291500Y634500D01*
X81271498Y566379D01*
X81217842Y519886D01*
X81165500Y508500D01*
X37908594Y508500D01*
X37840473Y528502D01*
X37793980Y582158D01*
X37783876Y652432D01*
X37813370Y717012D01*
X37819499Y723595D01*
X40367654Y3271749D01*
X43025500Y5929595D01*
X43087812Y5963621D01*
X43114595Y5966500D01*
X44491800Y5966500D01*
X44559921Y5946498D01*
X44579147Y5930157D01*
X44579420Y5930460D01*
X44584332Y5926037D01*
X44588747Y5921134D01*
X44594086Y5917255D01*
X44660670Y5868879D01*
X44743248Y5808882D01*
X44749276Y5806198D01*
X44749278Y5806197D01*
X44849041Y5761780D01*
X44917712Y5731206D01*
X44983365Y5717251D01*
X45098056Y5692872D01*
X45098061Y5692872D01*
X45104513Y5691500D01*
X45160406Y5691500D01*
X45228527Y5671498D01*
X45249501Y5654595D01*
X47696343Y3207753D01*
X47703887Y3199463D01*
X47708000Y3192982D01*
X47713777Y3187557D01*
X47757667Y3146342D01*
X47760509Y3143587D01*
X47780231Y3123865D01*
X47783373Y3121428D01*
X47783433Y3121381D01*
X47792445Y3113683D01*
X47805878Y3101069D01*
X47824679Y3083414D01*
X47831622Y3079597D01*
X47842431Y3073655D01*
X47858953Y3062802D01*
X47874959Y3050386D01*
X47882237Y3047236D01*
X47882238Y3047236D01*
X47915537Y3032826D01*
X47926187Y3027609D01*
X47964940Y3006305D01*
X47972615Y3004334D01*
X47972616Y3004334D01*
X47984562Y3001267D01*
X48003267Y2994863D01*
X48021855Y2986819D01*
X48029678Y2985580D01*
X48029688Y2985577D01*
X48065524Y2979901D01*
X48077144Y2977495D01*
X48108959Y2969327D01*
X48119970Y2966500D01*
X48140224Y2966500D01*
X48159934Y2964949D01*
X48179943Y2961780D01*
X48187835Y2962526D01*
X48206580Y2964298D01*
X48223962Y2965941D01*
X48235819Y2966500D01*
X67721233Y2966500D01*
X67732416Y2965973D01*
X67739909Y2964298D01*
X67747835Y2964547D01*
X67747836Y2964547D01*
X67807986Y2966438D01*
X67811945Y2966500D01*
X67839856Y2966500D01*
X67843791Y2966997D01*
X67843856Y2967005D01*
X67855693Y2967938D01*
X67887951Y2968952D01*
X67891970Y2969078D01*
X67899889Y2969327D01*
X67919343Y2974979D01*
X67938700Y2978987D01*
X67950930Y2980532D01*
X67950931Y2980532D01*
X67958797Y2981526D01*
X67966168Y2984445D01*
X67966170Y2984445D01*
X67999912Y2997804D01*
X68011142Y3001649D01*
X68045983Y3011771D01*
X68045984Y3011771D01*
X68053593Y3013982D01*
X68060412Y3018015D01*
X68060417Y3018017D01*
X68071028Y3024293D01*
X68088776Y3032988D01*
X68107617Y3040448D01*
X68143387Y3066436D01*
X68153307Y3072952D01*
X68184535Y3091420D01*
X68184538Y3091422D01*
X68191362Y3095458D01*
X68205683Y3109779D01*
X68220717Y3122620D01*
X68222431Y3123865D01*
X68237107Y3134528D01*
X68265298Y3168605D01*
X68273288Y3177384D01*
X68950499Y3854595D01*
X69012811Y3888621D01*
X69039594Y3891500D01*
X69095487Y3891500D01*
X69101939Y3892872D01*
X69101944Y3892872D01*
X69188888Y3911353D01*
X69282288Y3931206D01*
X69288319Y3933891D01*
X69450722Y4006197D01*
X69450724Y4006198D01*
X69456752Y4008882D01*
X69611253Y4121134D01*
X69739040Y4263056D01*
X69834527Y4428444D01*
X69893542Y4610072D01*
X69899855Y4670131D01*
X69912814Y4793435D01*
X69913504Y4800000D01*
X69893542Y4989928D01*
X69834527Y5171556D01*
X69739040Y5336944D01*
X69611253Y5478866D01*
X69591976Y5492872D01*
X69529086Y5538564D01*
X69485732Y5594786D01*
X69479657Y5665523D01*
X69512789Y5728314D01*
X69574609Y5763226D01*
X69603147Y5766500D01*
X71691800Y5766500D01*
X71759921Y5746498D01*
X71779147Y5730157D01*
X71779420Y5730460D01*
X71784332Y5726037D01*
X71788747Y5721134D01*
X71810329Y5705454D01*
X71860787Y5668794D01*
X71943248Y5608882D01*
X71949276Y5606198D01*
X71949278Y5606197D01*
X72111681Y5533891D01*
X72117712Y5531206D01*
X72211113Y5511353D01*
X72298056Y5492872D01*
X72298061Y5492872D01*
X72304513Y5491500D01*
X72495487Y5491500D01*
X72501939Y5492872D01*
X72501944Y5492872D01*
X72588887Y5511353D01*
X72682288Y5531206D01*
X72688319Y5533891D01*
X72850722Y5606197D01*
X72850724Y5606198D01*
X72856752Y5608882D01*
X73011253Y5721134D01*
X73020322Y5731206D01*
X73134621Y5858148D01*
X73134622Y5858149D01*
X73139040Y5863056D01*
X73234527Y6028444D01*
X73293542Y6210072D01*
X73313504Y6400000D01*
X73312814Y6406568D01*
X73310632Y6427331D01*
X73323405Y6497169D01*
X73371908Y6549015D01*
X73435942Y6566500D01*
X73921233Y6566500D01*
X73932416Y6565973D01*
X73939909Y6564298D01*
X73947835Y6564547D01*
X73947836Y6564547D01*
X74007986Y6566438D01*
X74011945Y6566500D01*
X74039856Y6566500D01*
X74043791Y6566997D01*
X74043856Y6567005D01*
X74055693Y6567938D01*
X74087951Y6568952D01*
X74091970Y6569078D01*
X74099889Y6569327D01*
X74119343Y6574979D01*
X74138700Y6578987D01*
X74150930Y6580532D01*
X74150931Y6580532D01*
X74158797Y6581526D01*
X74166168Y6584445D01*
X74166170Y6584445D01*
X74199912Y6597804D01*
X74211142Y6601649D01*
X74245983Y6611771D01*
X74245984Y6611771D01*
X74253593Y6613982D01*
X74260412Y6618015D01*
X74260417Y6618017D01*
X74271028Y6624293D01*
X74288776Y6632988D01*
X74307617Y6640448D01*
X74343387Y6666436D01*
X74353307Y6672952D01*
X74384535Y6691420D01*
X74384538Y6691422D01*
X74391362Y6695458D01*
X74405683Y6709779D01*
X74420717Y6722620D01*
X74430694Y6729869D01*
X74437107Y6734528D01*
X74465298Y6768605D01*
X74473288Y6777384D01*
X75750499Y8054595D01*
X75812811Y8088621D01*
X75839594Y8091500D01*
X75895487Y8091500D01*
X75901939Y8092872D01*
X75901944Y8092872D01*
X75988887Y8111353D01*
X76082288Y8131206D01*
X76088319Y8133891D01*
X76250722Y8206197D01*
X76250724Y8206198D01*
X76256752Y8208882D01*
X76411253Y8321134D01*
X76539040Y8463056D01*
X76634527Y8628444D01*
X76693542Y8810072D01*
X76713504Y9000000D01*
X76699949Y9128972D01*
X76694232Y9183365D01*
X76694232Y9183367D01*
X76693542Y9189928D01*
X76634527Y9371556D01*
X76539040Y9536944D01*
X76461984Y9622524D01*
X76431268Y9686529D01*
X76440032Y9756983D01*
X76466526Y9795927D01*
X76476134Y9805535D01*
X76478612Y9808730D01*
X76486318Y9817752D01*
X76496358Y9828444D01*
X76516586Y9849984D01*
X76526346Y9867737D01*
X76537199Y9884260D01*
X76544753Y9893999D01*
X76549613Y9900264D01*
X76567176Y9940848D01*
X76572383Y9951478D01*
X76593695Y9990245D01*
X76595666Y9997922D01*
X76595668Y9997927D01*
X76598732Y10009863D01*
X76605138Y10028575D01*
X76610033Y10039886D01*
X76613181Y10047160D01*
X76614421Y10054988D01*
X76614423Y10054995D01*
X76620099Y10090829D01*
X76622505Y10102449D01*
X76631528Y10137594D01*
X76631528Y10137595D01*
X76633500Y10145275D01*
X76633500Y10165529D01*
X76635051Y10185240D01*
X76636980Y10197419D01*
X76638220Y10205248D01*
X76634059Y10249267D01*
X76633500Y10261124D01*
X76633500Y11497476D01*
X76653502Y11565597D01*
X76665858Y11581779D01*
X76739040Y11663056D01*
X76808501Y11783365D01*
X76831223Y11822721D01*
X76831224Y11822722D01*
X76834527Y11828444D01*
X76893542Y12010072D01*
X76895008Y12024015D01*
X76912814Y12193435D01*
X76913504Y12200000D01*
X76898595Y12341852D01*
X76894232Y12383365D01*
X76894232Y12383367D01*
X76893542Y12389928D01*
X76834527Y12571556D01*
X76739040Y12736944D01*
X76726931Y12750393D01*
X76615675Y12873955D01*
X76615674Y12873956D01*
X76611253Y12878866D01*
X76541102Y12929834D01*
X76473455Y12978983D01*
X76430101Y13035206D01*
X76424026Y13105942D01*
X76457158Y13168734D01*
X76512361Y13201915D01*
X76553898Y13213982D01*
X76560717Y13218015D01*
X76560722Y13218017D01*
X76571333Y13224293D01*
X76589081Y13232988D01*
X76607922Y13240448D01*
X76643692Y13266436D01*
X76653612Y13272952D01*
X76684840Y13291420D01*
X76684843Y13291422D01*
X76691667Y13295458D01*
X76705988Y13309779D01*
X76721022Y13322620D01*
X76730999Y13329869D01*
X76737412Y13334528D01*
X76765603Y13368605D01*
X76773593Y13377384D01*
X79254753Y15858543D01*
X79263039Y15866083D01*
X79269518Y15870195D01*
X79316144Y15919847D01*
X79318898Y15922688D01*
X79338635Y15942425D01*
X79341115Y15945622D01*
X79348820Y15954644D01*
X79353147Y15959252D01*
X79379086Y15986874D01*
X79382905Y15993820D01*
X79382907Y15993823D01*
X79388848Y16004629D01*
X79399699Y16021148D01*
X79407258Y16030894D01*
X79412114Y16037154D01*
X79415259Y16044423D01*
X79415262Y16044427D01*
X79429674Y16077732D01*
X79434891Y16088382D01*
X79456195Y16127135D01*
X79461233Y16146758D01*
X79467637Y16165461D01*
X79472533Y16176775D01*
X79472533Y16176776D01*
X79475681Y16184050D01*
X79476920Y16191873D01*
X79476923Y16191883D01*
X79482599Y16227719D01*
X79485005Y16239339D01*
X79494028Y16274484D01*
X79494028Y16274485D01*
X79496000Y16282165D01*
X79496000Y16302419D01*
X79497551Y16322130D01*
X79497629Y16322619D01*
X79500720Y16342138D01*
X79496559Y16386157D01*
X79496000Y16398014D01*
X79496000Y24258737D01*
X79496527Y24269921D01*
X79498201Y24277409D01*
X79496062Y24345468D01*
X79496000Y24349425D01*
X79496000Y24377356D01*
X79495494Y24381362D01*
X79494561Y24393208D01*
X79493422Y24429463D01*
X79493173Y24437390D01*
X79487522Y24456842D01*
X79483514Y24476194D01*
X79481968Y24488432D01*
X79481967Y24488434D01*
X79480974Y24496297D01*
X79477710Y24504542D01*
X79475255Y24510742D01*
X79464694Y24537414D01*
X79460859Y24548615D01*
X79448518Y24591094D01*
X79444485Y24597913D01*
X79444483Y24597918D01*
X79438207Y24608529D01*
X79429510Y24626279D01*
X79422052Y24645117D01*
X79412585Y24658148D01*
X79396072Y24680875D01*
X79389553Y24690799D01*
X79371078Y24722040D01*
X79371074Y24722045D01*
X79367042Y24728863D01*
X79352718Y24743187D01*
X79339876Y24758222D01*
X79327972Y24774607D01*
X79293906Y24802789D01*
X79285127Y24810778D01*
X75903652Y28192253D01*
X75896112Y28200539D01*
X75892000Y28207018D01*
X75842348Y28253644D01*
X75839507Y28256398D01*
X75819770Y28276135D01*
X75816573Y28278615D01*
X75807551Y28286320D01*
X75781100Y28311159D01*
X75775321Y28316586D01*
X75768375Y28320405D01*
X75768372Y28320407D01*
X75757566Y28326348D01*
X75741047Y28337199D01*
X75735048Y28341852D01*
X75725041Y28349614D01*
X75717772Y28352759D01*
X75717768Y28352762D01*
X75684463Y28367174D01*
X75673813Y28372391D01*
X75635060Y28393695D01*
X75615437Y28398733D01*
X75596734Y28405137D01*
X75585420Y28410033D01*
X75585419Y28410033D01*
X75578145Y28413181D01*
X75570322Y28414420D01*
X75570312Y28414423D01*
X75534476Y28420099D01*
X75522856Y28422505D01*
X75487711Y28431528D01*
X75487710Y28431528D01*
X75480030Y28433500D01*
X75459776Y28433500D01*
X75440065Y28435051D01*
X75427886Y28436980D01*
X75420057Y28438220D01*
X75412165Y28437474D01*
X75376039Y28434059D01*
X75364181Y28433500D01*
X70308200Y28433500D01*
X70240079Y28453502D01*
X70220853Y28469843D01*
X70220580Y28469540D01*
X70215668Y28473963D01*
X70211253Y28478866D01*
X70056752Y28591118D01*
X70050724Y28593802D01*
X70050722Y28593803D01*
X69888319Y28666109D01*
X69888318Y28666109D01*
X69882288Y28668794D01*
X69760331Y28694717D01*
X69701944Y28707128D01*
X69701939Y28707128D01*
X69695487Y28708500D01*
X69504513Y28708500D01*
X69498061Y28707128D01*
X69498056Y28707128D01*
X69439669Y28694717D01*
X69317712Y28668794D01*
X69311682Y28666109D01*
X69311681Y28666109D01*
X69149278Y28593803D01*
X69149276Y28593802D01*
X69143248Y28591118D01*
X68988747Y28478866D01*
X68984326Y28473956D01*
X68984325Y28473955D01*
X68875203Y28352762D01*
X68860960Y28336944D01*
X68765473Y28171556D01*
X68706458Y27989928D01*
X68686496Y27800000D01*
X68687186Y27793435D01*
X68693844Y27730092D01*
X68706458Y27610072D01*
X68765473Y27428444D01*
X68860960Y27263056D01*
X68865378Y27258149D01*
X68865379Y27258148D01*
X68984325Y27126045D01*
X68988747Y27121134D01*
X69003421Y27110473D01*
X69122494Y27023961D01*
X69143248Y27008882D01*
X69149276Y27006198D01*
X69149278Y27006197D01*
X69297457Y26940224D01*
X69317712Y26931206D01*
X69404009Y26912863D01*
X69498056Y26892872D01*
X69498061Y26892872D01*
X69504513Y26891500D01*
X69695487Y26891500D01*
X69701939Y26892872D01*
X69701944Y26892872D01*
X69795991Y26912863D01*
X69882288Y26931206D01*
X69902543Y26940224D01*
X70050722Y27006197D01*
X70050724Y27006198D01*
X70056752Y27008882D01*
X70077507Y27023961D01*
X70203551Y27115538D01*
X70211253Y27121134D01*
X70215668Y27126037D01*
X70220580Y27130460D01*
X70221705Y27129211D01*
X70275014Y27162051D01*
X70308200Y27166500D01*
X75085406Y27166500D01*
X75153527Y27146498D01*
X75174501Y27129595D01*
X77421399Y24882697D01*
X77455425Y24820385D01*
X77450360Y24749570D01*
X77406365Y24691666D01*
X77388747Y24678866D01*
X77384332Y24673962D01*
X77379420Y24669540D01*
X77378295Y24670789D01*
X77324986Y24637949D01*
X77291800Y24633500D01*
X71478767Y24633500D01*
X71467584Y24634027D01*
X71460091Y24635702D01*
X71452165Y24635453D01*
X71452164Y24635453D01*
X71392014Y24633562D01*
X71388055Y24633500D01*
X71360144Y24633500D01*
X71356210Y24633003D01*
X71356209Y24633003D01*
X71356144Y24632995D01*
X71344307Y24632062D01*
X71312643Y24631067D01*
X71308029Y24630922D01*
X71300110Y24630673D01*
X71285016Y24626288D01*
X71280658Y24625022D01*
X71261306Y24621014D01*
X71259415Y24620775D01*
X71241203Y24618474D01*
X71233834Y24615557D01*
X71233832Y24615556D01*
X71200097Y24602200D01*
X71188869Y24598355D01*
X71146407Y24586018D01*
X71139585Y24581984D01*
X71139579Y24581981D01*
X71128968Y24575706D01*
X71111218Y24567010D01*
X71099756Y24562472D01*
X71099751Y24562469D01*
X71092383Y24559552D01*
X71085968Y24554891D01*
X71056625Y24533573D01*
X71046707Y24527057D01*
X71030127Y24517251D01*
X71008637Y24504542D01*
X70994313Y24490218D01*
X70979281Y24477379D01*
X70962893Y24465472D01*
X70955754Y24456842D01*
X70934712Y24431407D01*
X70926722Y24422627D01*
X67489095Y20985000D01*
X67426783Y20950974D01*
X67355968Y20956039D01*
X67310905Y20985000D01*
X65195405Y23100500D01*
X65161379Y23162812D01*
X65158500Y23189595D01*
X65158500Y26315500D01*
X65178502Y26383621D01*
X65232158Y26430114D01*
X65284500Y26441500D01*
X65423134Y26441500D01*
X65485316Y26448255D01*
X65621705Y26499385D01*
X65738261Y26586739D01*
X65825615Y26703295D01*
X65849542Y26767119D01*
X65869598Y26820618D01*
X65912240Y26877382D01*
X65978802Y26902082D01*
X66048150Y26886874D01*
X66082817Y26858886D01*
X66111250Y26826062D01*
X66283126Y26683368D01*
X66476000Y26570662D01*
X66684692Y26490970D01*
X66689760Y26489939D01*
X66689763Y26489938D01*
X66768323Y26473955D01*
X66903597Y26446433D01*
X66908772Y26446243D01*
X66908774Y26446243D01*
X67121673Y26438436D01*
X67121677Y26438436D01*
X67126837Y26438247D01*
X67131957Y26438903D01*
X67131959Y26438903D01*
X67343288Y26465975D01*
X67343289Y26465975D01*
X67348416Y26466632D01*
X67372825Y26473955D01*
X67557429Y26529339D01*
X67557434Y26529341D01*
X67562384Y26530826D01*
X67762994Y26629104D01*
X67944860Y26758827D01*
X67950995Y26764940D01*
X68045268Y26858885D01*
X68103096Y26916511D01*
X68112670Y26929834D01*
X68230435Y27093723D01*
X68233453Y27097923D01*
X68243006Y27117251D01*
X68330136Y27293547D01*
X68330137Y27293549D01*
X68332430Y27298189D01*
X68377483Y27446474D01*
X68395865Y27506977D01*
X68395865Y27506979D01*
X68397370Y27511931D01*
X68426529Y27733410D01*
X68428156Y27800000D01*
X68409852Y28022639D01*
X68355431Y28239298D01*
X68266354Y28444160D01*
X68226906Y28505138D01*
X68147822Y28627383D01*
X68147820Y28627386D01*
X68145014Y28631723D01*
X67994670Y28796949D01*
X67990619Y28800148D01*
X67990615Y28800152D01*
X67823414Y28932200D01*
X67823410Y28932202D01*
X67819359Y28935402D01*
X67623789Y29043362D01*
X67618920Y29045086D01*
X67618916Y29045088D01*
X67418087Y29116205D01*
X67418083Y29116206D01*
X67413212Y29117931D01*
X67408119Y29118838D01*
X67408116Y29118839D01*
X67198373Y29156200D01*
X67198367Y29156201D01*
X67193284Y29157106D01*
X67119452Y29158008D01*
X66975081Y29159772D01*
X66975079Y29159772D01*
X66969911Y29159835D01*
X66749091Y29126045D01*
X66536756Y29056643D01*
X66506443Y29040863D01*
X66361957Y28965648D01*
X66338607Y28953493D01*
X66334474Y28950390D01*
X66334471Y28950388D01*
X66178851Y28833545D01*
X66159965Y28819365D01*
X66103537Y28760316D01*
X66079283Y28734936D01*
X66017759Y28699506D01*
X65946846Y28702963D01*
X65889060Y28744209D01*
X65870207Y28777757D01*
X65828767Y28888297D01*
X65825615Y28896705D01*
X65738261Y29013261D01*
X65621705Y29100615D01*
X65485316Y29151745D01*
X65423134Y29158500D01*
X63626866Y29158500D01*
X63564684Y29151745D01*
X63428295Y29100615D01*
X63311739Y29013261D01*
X63224385Y28896705D01*
X63173255Y28760316D01*
X63166500Y28698134D01*
X63166500Y26901866D01*
X63173255Y26839684D01*
X63224385Y26703295D01*
X63311739Y26586739D01*
X63428295Y26499385D01*
X63564684Y26448255D01*
X63626866Y26441500D01*
X63765500Y26441500D01*
X63833621Y26421498D01*
X63880114Y26367842D01*
X63891500Y26315500D01*
X63891500Y22953767D01*
X63890973Y22942584D01*
X63889298Y22935091D01*
X63889547Y22927165D01*
X63889547Y22927164D01*
X63891438Y22867014D01*
X63891500Y22863056D01*
X63891500Y22835144D01*
X63891997Y22831210D01*
X63891997Y22831209D01*
X63892005Y22831144D01*
X63892938Y22819307D01*
X63894327Y22775111D01*
X63899978Y22755661D01*
X63903987Y22736300D01*
X63906526Y22716203D01*
X63909445Y22708832D01*
X63909445Y22708830D01*
X63922804Y22675088D01*
X63926649Y22663858D01*
X63938982Y22621407D01*
X63943015Y22614588D01*
X63943017Y22614583D01*
X63949293Y22603972D01*
X63957988Y22586224D01*
X63965448Y22567383D01*
X63970110Y22560967D01*
X63970110Y22560966D01*
X63991436Y22531613D01*
X63997952Y22521693D01*
X64020458Y22483638D01*
X64034779Y22469317D01*
X64047619Y22454284D01*
X64059528Y22437893D01*
X64065634Y22432842D01*
X64093605Y22409702D01*
X64102384Y22401712D01*
X66452878Y20051217D01*
X66486904Y19988905D01*
X66489093Y19975294D01*
X66506458Y19810072D01*
X66565473Y19628444D01*
X66660960Y19463056D01*
X66788747Y19321134D01*
X66943248Y19208882D01*
X66949276Y19206198D01*
X66949278Y19206197D01*
X67111681Y19133891D01*
X67117712Y19131206D01*
X67211112Y19111353D01*
X67298056Y19092872D01*
X67298061Y19092872D01*
X67304513Y19091500D01*
X67495487Y19091500D01*
X67501939Y19092872D01*
X67501944Y19092872D01*
X67588888Y19111353D01*
X67682288Y19131206D01*
X67688319Y19133891D01*
X67850722Y19206197D01*
X67850724Y19206198D01*
X67856752Y19208882D01*
X68011253Y19321134D01*
X68139040Y19463056D01*
X68234527Y19628444D01*
X68293542Y19810072D01*
X68310907Y19975294D01*
X68337920Y20040950D01*
X68347122Y20051218D01*
X71625499Y23329595D01*
X71687811Y23363621D01*
X71714594Y23366500D01*
X77291800Y23366500D01*
X77359921Y23346498D01*
X77379147Y23330157D01*
X77379420Y23330460D01*
X77384332Y23326037D01*
X77388747Y23321134D01*
X77543248Y23208882D01*
X77549276Y23206198D01*
X77549278Y23206197D01*
X77711681Y23133891D01*
X77717712Y23131206D01*
X77811112Y23111353D01*
X77898056Y23092872D01*
X77898061Y23092872D01*
X77904513Y23091500D01*
X78095487Y23091500D01*
X78095487Y23090564D01*
X78159663Y23078830D01*
X78211512Y23030331D01*
X78229000Y22966290D01*
X78229000Y16676789D01*
X78208998Y16608668D01*
X78192095Y16587694D01*
X78022204Y16417803D01*
X77959892Y16383777D01*
X77889077Y16388842D01*
X77832241Y16431389D01*
X77823990Y16443898D01*
X77762140Y16551025D01*
X77758839Y16556743D01*
X77719881Y16600011D01*
X77635474Y16693754D01*
X77635473Y16693755D01*
X77631052Y16698665D01*
X77522639Y16777432D01*
X77481893Y16807036D01*
X77481892Y16807037D01*
X77476551Y16810917D01*
X77470523Y16813601D01*
X77470521Y16813602D01*
X77308118Y16885908D01*
X77308117Y16885908D01*
X77302087Y16888593D01*
X77208687Y16908446D01*
X77121743Y16926927D01*
X77121738Y16926927D01*
X77115286Y16928299D01*
X76924312Y16928299D01*
X76917860Y16926927D01*
X76917855Y16926927D01*
X76830911Y16908446D01*
X76737511Y16888593D01*
X76731481Y16885908D01*
X76731480Y16885908D01*
X76569077Y16813602D01*
X76569075Y16813601D01*
X76563047Y16810917D01*
X76557706Y16807037D01*
X76557705Y16807036D01*
X76516959Y16777432D01*
X76408546Y16698665D01*
X76404133Y16693763D01*
X76404131Y16693762D01*
X76387408Y16675189D01*
X76326962Y16637950D01*
X76293772Y16633500D01*
X70603147Y16633500D01*
X70535026Y16653502D01*
X70488533Y16707158D01*
X70478429Y16777432D01*
X70507923Y16842012D01*
X70529086Y16861436D01*
X70605909Y16917251D01*
X70605911Y16917253D01*
X70611253Y16921134D01*
X70616469Y16926927D01*
X70734621Y17058148D01*
X70734622Y17058149D01*
X70739040Y17063056D01*
X70834527Y17228444D01*
X70893542Y17410072D01*
X70913504Y17600000D01*
X70901181Y17717251D01*
X70894232Y17783365D01*
X70894232Y17783367D01*
X70893542Y17789928D01*
X70834527Y17971556D01*
X70739040Y18136944D01*
X70722882Y18154890D01*
X70615675Y18273955D01*
X70615674Y18273956D01*
X70611253Y18278866D01*
X70456752Y18391118D01*
X70450724Y18393802D01*
X70450722Y18393803D01*
X70288319Y18466109D01*
X70288318Y18466109D01*
X70282288Y18468794D01*
X70188887Y18488647D01*
X70101944Y18507128D01*
X70101939Y18507128D01*
X70095487Y18508500D01*
X69904513Y18508500D01*
X69898061Y18507128D01*
X69898056Y18507128D01*
X69811113Y18488647D01*
X69717712Y18468794D01*
X69711682Y18466109D01*
X69711681Y18466109D01*
X69549278Y18393803D01*
X69549276Y18393802D01*
X69543248Y18391118D01*
X69537907Y18387238D01*
X69537906Y18387237D01*
X69427646Y18307128D01*
X69388747Y18278866D01*
X69384332Y18273963D01*
X69379420Y18269540D01*
X69378295Y18270789D01*
X69324986Y18237949D01*
X69291800Y18233500D01*
X61653462Y18233500D01*
X61642279Y18234027D01*
X61634786Y18235702D01*
X61626860Y18235453D01*
X61626859Y18235453D01*
X61566696Y18233562D01*
X61562738Y18233500D01*
X61534839Y18233500D01*
X61530849Y18232996D01*
X61519015Y18232064D01*
X61474806Y18230674D01*
X61467192Y18228462D01*
X61467187Y18228461D01*
X61455354Y18225023D01*
X61435991Y18221012D01*
X61415898Y18218474D01*
X61408531Y18215557D01*
X61408526Y18215556D01*
X61374787Y18202198D01*
X61363560Y18198354D01*
X61321102Y18186018D01*
X61314276Y18181981D01*
X61303667Y18175707D01*
X61285919Y18167012D01*
X61267078Y18159552D01*
X61260662Y18154890D01*
X61260661Y18154890D01*
X61231308Y18133564D01*
X61221388Y18127048D01*
X61190160Y18108580D01*
X61190157Y18108578D01*
X61183333Y18104542D01*
X61169012Y18090221D01*
X61153979Y18077381D01*
X61137588Y18065472D01*
X61109949Y18032062D01*
X61109397Y18031395D01*
X61101407Y18022616D01*
X57482747Y14403957D01*
X57474461Y14396417D01*
X57467982Y14392305D01*
X57462557Y14386528D01*
X57421357Y14342654D01*
X57418602Y14339812D01*
X57398865Y14320075D01*
X57396385Y14316878D01*
X57388682Y14307858D01*
X57358414Y14275626D01*
X57354595Y14268680D01*
X57354593Y14268677D01*
X57348652Y14257871D01*
X57337801Y14241352D01*
X57325386Y14225346D01*
X57322241Y14218077D01*
X57322238Y14218073D01*
X57307826Y14184768D01*
X57302609Y14174118D01*
X57281305Y14135365D01*
X57279334Y14127690D01*
X57279334Y14127689D01*
X57276267Y14115743D01*
X57269863Y14097039D01*
X57261819Y14078450D01*
X57260580Y14070627D01*
X57260577Y14070617D01*
X57254901Y14034781D01*
X57252495Y14023161D01*
X57249933Y14013181D01*
X57241500Y13980335D01*
X57241500Y13960081D01*
X57239949Y13940371D01*
X57236780Y13920362D01*
X57237526Y13912470D01*
X57240941Y13876344D01*
X57241500Y13864486D01*
X57241500Y12003767D01*
X57240973Y11992584D01*
X57239298Y11985091D01*
X57239547Y11977165D01*
X57239547Y11977164D01*
X57241438Y11917014D01*
X57241500Y11913055D01*
X57241500Y11885144D01*
X57241997Y11881210D01*
X57241997Y11881209D01*
X57242005Y11881144D01*
X57242938Y11869307D01*
X57244327Y11825111D01*
X57249978Y11805661D01*
X57253987Y11786300D01*
X57256526Y11766203D01*
X57259445Y11758832D01*
X57259445Y11758830D01*
X57272804Y11725088D01*
X57276649Y11713858D01*
X57277051Y11712474D01*
X57288982Y11671407D01*
X57293015Y11664588D01*
X57293017Y11664583D01*
X57299293Y11653972D01*
X57307988Y11636224D01*
X57315448Y11617383D01*
X57320110Y11610967D01*
X57320110Y11610966D01*
X57341436Y11581613D01*
X57347952Y11571693D01*
X57358677Y11553559D01*
X57370458Y11533638D01*
X57384779Y11519317D01*
X57397619Y11504284D01*
X57409528Y11487893D01*
X57415634Y11482842D01*
X57443605Y11459702D01*
X57452384Y11451712D01*
X62896348Y6007747D01*
X62903888Y5999461D01*
X62908000Y5992982D01*
X62913777Y5987557D01*
X62957651Y5946357D01*
X62960493Y5943602D01*
X62980230Y5923865D01*
X62983427Y5921385D01*
X62992447Y5913682D01*
X63024679Y5883414D01*
X63031625Y5879595D01*
X63031628Y5879593D01*
X63042434Y5873652D01*
X63058953Y5862801D01*
X63074959Y5850386D01*
X63082228Y5847241D01*
X63082232Y5847238D01*
X63115537Y5832826D01*
X63126187Y5827609D01*
X63164940Y5806305D01*
X63172615Y5804334D01*
X63172616Y5804334D01*
X63184562Y5801267D01*
X63203267Y5794863D01*
X63221855Y5786819D01*
X63229678Y5785580D01*
X63229688Y5785577D01*
X63265524Y5779901D01*
X63277144Y5777495D01*
X63312289Y5768472D01*
X63319970Y5766500D01*
X63340224Y5766500D01*
X63359934Y5764949D01*
X63379943Y5761780D01*
X63387835Y5762526D01*
X63423961Y5765941D01*
X63435819Y5766500D01*
X63891800Y5766500D01*
X63959921Y5746498D01*
X63979147Y5730157D01*
X63979420Y5730460D01*
X63984332Y5726037D01*
X63988747Y5721134D01*
X64010329Y5705454D01*
X64060787Y5668794D01*
X64143248Y5608882D01*
X64149276Y5606198D01*
X64149278Y5606197D01*
X64311681Y5533891D01*
X64317712Y5531206D01*
X64411113Y5511353D01*
X64498056Y5492872D01*
X64498061Y5492872D01*
X64504513Y5491500D01*
X64695487Y5491500D01*
X64701939Y5492872D01*
X64701944Y5492872D01*
X64788887Y5511353D01*
X64882288Y5531206D01*
X64888319Y5533891D01*
X65050722Y5606197D01*
X65050724Y5606198D01*
X65056752Y5608882D01*
X65211253Y5721134D01*
X65220322Y5731206D01*
X65334621Y5858148D01*
X65334622Y5858149D01*
X65339040Y5863056D01*
X65434527Y6028444D01*
X65493542Y6210072D01*
X65513504Y6400000D01*
X65512814Y6406568D01*
X65510632Y6427331D01*
X65523405Y6497169D01*
X65571908Y6549015D01*
X65635942Y6566500D01*
X67966406Y6566500D01*
X68034527Y6546498D01*
X68081020Y6492842D01*
X68091124Y6422568D01*
X68061630Y6357988D01*
X68055503Y6351407D01*
X67312977Y5608882D01*
X66574500Y4870405D01*
X66512188Y4836379D01*
X66485405Y4833500D01*
X49514595Y4833500D01*
X49446474Y4853502D01*
X49425500Y4870405D01*
X46947122Y7348783D01*
X46913096Y7411095D01*
X46910907Y7424708D01*
X46894232Y7583365D01*
X46894232Y7583367D01*
X46893542Y7589928D01*
X46834527Y7771556D01*
X46739040Y7936944D01*
X46722882Y7954890D01*
X46615675Y8073955D01*
X46615674Y8073956D01*
X46611253Y8078866D01*
X46456752Y8191118D01*
X46450724Y8193802D01*
X46450722Y8193803D01*
X46288319Y8266109D01*
X46288318Y8266109D01*
X46282288Y8268794D01*
X46188887Y8288647D01*
X46101944Y8307128D01*
X46101939Y8307128D01*
X46095487Y8308500D01*
X45904513Y8308500D01*
X45898061Y8307128D01*
X45898056Y8307128D01*
X45811113Y8288647D01*
X45717712Y8268794D01*
X45711682Y8266109D01*
X45711681Y8266109D01*
X45549278Y8193803D01*
X45549276Y8193802D01*
X45543248Y8191118D01*
X45537907Y8187238D01*
X45537906Y8187237D01*
X45458898Y8129834D01*
X45388747Y8078866D01*
X45384332Y8073963D01*
X45379420Y8069540D01*
X45378295Y8070789D01*
X45324986Y8037949D01*
X45291800Y8033500D01*
X41304068Y8033500D01*
X41292884Y8034027D01*
X41285396Y8035701D01*
X41277473Y8035452D01*
X41217338Y8033562D01*
X41213380Y8033500D01*
X41185449Y8033500D01*
X41181534Y8033005D01*
X41181530Y8033005D01*
X41181472Y8032997D01*
X41181443Y8032994D01*
X41169601Y8032061D01*
X41125415Y8030673D01*
X41108049Y8025628D01*
X41105963Y8025022D01*
X41086611Y8021014D01*
X41074373Y8019468D01*
X41074371Y8019467D01*
X41066508Y8018474D01*
X41025391Y8002194D01*
X41014190Y7998359D01*
X40971711Y7986018D01*
X40964892Y7981985D01*
X40964887Y7981983D01*
X40954276Y7975707D01*
X40936526Y7967010D01*
X40917688Y7959552D01*
X40911272Y7954891D01*
X40911271Y7954890D01*
X40881930Y7933572D01*
X40872006Y7927053D01*
X40840765Y7908578D01*
X40840760Y7908574D01*
X40833942Y7904542D01*
X40819618Y7890218D01*
X40804586Y7877379D01*
X40788198Y7865472D01*
X40760017Y7831407D01*
X40752027Y7822627D01*
X40398484Y7469084D01*
X40336172Y7435058D01*
X40265357Y7440123D01*
X40221159Y7470188D01*
X40220577Y7469541D01*
X40215842Y7473804D01*
X40215760Y7473860D01*
X40211253Y7478866D01*
X40056752Y7591118D01*
X40050724Y7593802D01*
X40050722Y7593803D01*
X39888319Y7666109D01*
X39888318Y7666109D01*
X39882288Y7668794D01*
X39788887Y7688647D01*
X39701944Y7707128D01*
X39701939Y7707128D01*
X39695487Y7708500D01*
X39639595Y7708500D01*
X39571474Y7728502D01*
X39550500Y7745405D01*
X37944500Y9351405D01*
X37910474Y9413717D01*
X37915539Y9484532D01*
X37958086Y9541368D01*
X38024606Y9566179D01*
X38033595Y9566500D01*
X40291800Y9566500D01*
X40359921Y9546498D01*
X40379147Y9530157D01*
X40379420Y9530460D01*
X40384332Y9526037D01*
X40388747Y9521134D01*
X40543248Y9408882D01*
X40549276Y9406198D01*
X40549278Y9406197D01*
X40688300Y9344301D01*
X40717712Y9331206D01*
X40811113Y9311353D01*
X40898056Y9292872D01*
X40898061Y9292872D01*
X40904513Y9291500D01*
X41095487Y9291500D01*
X41101939Y9292872D01*
X41101944Y9292872D01*
X41188887Y9311353D01*
X41282288Y9331206D01*
X41311700Y9344301D01*
X41450722Y9406197D01*
X41450724Y9406198D01*
X41456752Y9408882D01*
X41611253Y9521134D01*
X41702831Y9622842D01*
X41734621Y9658148D01*
X41734622Y9658149D01*
X41739040Y9663056D01*
X41819683Y9802733D01*
X41831223Y9822721D01*
X41831224Y9822722D01*
X41834527Y9828444D01*
X41893542Y10010072D01*
X41913504Y10200000D01*
X41908208Y10250386D01*
X41902749Y10302330D01*
X41915521Y10372168D01*
X41964023Y10424015D01*
X42028059Y10441500D01*
X43209861Y10441500D01*
X43277982Y10421498D01*
X43305246Y10397321D01*
X43308000Y10392982D01*
X43313775Y10387559D01*
X43357652Y10346356D01*
X43360494Y10343601D01*
X43380230Y10323865D01*
X43383427Y10321385D01*
X43392447Y10313682D01*
X43424679Y10283414D01*
X43431625Y10279595D01*
X43431628Y10279593D01*
X43442434Y10273652D01*
X43458953Y10262801D01*
X43474959Y10250386D01*
X43482228Y10247241D01*
X43482232Y10247238D01*
X43515537Y10232826D01*
X43526187Y10227609D01*
X43564940Y10206305D01*
X43572615Y10204334D01*
X43572616Y10204334D01*
X43584562Y10201267D01*
X43603267Y10194863D01*
X43621855Y10186819D01*
X43629678Y10185580D01*
X43629688Y10185577D01*
X43665524Y10179901D01*
X43677144Y10177495D01*
X43708959Y10169327D01*
X43719970Y10166500D01*
X43740224Y10166500D01*
X43759934Y10164949D01*
X43779943Y10161780D01*
X43787835Y10162526D01*
X43806580Y10164298D01*
X43823962Y10165941D01*
X43835819Y10166500D01*
X52321233Y10166500D01*
X52332416Y10165973D01*
X52339909Y10164298D01*
X52347835Y10164547D01*
X52347836Y10164547D01*
X52407986Y10166438D01*
X52411945Y10166500D01*
X52439856Y10166500D01*
X52443791Y10166997D01*
X52443856Y10167005D01*
X52455693Y10167938D01*
X52487951Y10168952D01*
X52491970Y10169078D01*
X52499889Y10169327D01*
X52519343Y10174979D01*
X52538700Y10178987D01*
X52550930Y10180532D01*
X52550931Y10180532D01*
X52558797Y10181526D01*
X52566168Y10184445D01*
X52566170Y10184445D01*
X52599912Y10197804D01*
X52611142Y10201649D01*
X52645983Y10211771D01*
X52645984Y10211771D01*
X52653593Y10213982D01*
X52660412Y10218015D01*
X52660417Y10218017D01*
X52671028Y10224293D01*
X52688776Y10232988D01*
X52707617Y10240448D01*
X52743387Y10266436D01*
X52753307Y10272952D01*
X52784535Y10291420D01*
X52784538Y10291422D01*
X52791362Y10295458D01*
X52805683Y10309779D01*
X52820717Y10322620D01*
X52830694Y10329869D01*
X52837107Y10334528D01*
X52865298Y10368605D01*
X52873288Y10377384D01*
X53785824Y11289920D01*
X53848724Y11324072D01*
X53859540Y11326371D01*
X53875834Y11329834D01*
X53875836Y11329835D01*
X53882288Y11331206D01*
X53999440Y11383365D01*
X54050722Y11406197D01*
X54050724Y11406198D01*
X54056752Y11408882D01*
X54211253Y11521134D01*
X54215675Y11526045D01*
X54334621Y11658148D01*
X54334625Y11658153D01*
X54339040Y11663056D01*
X54408501Y11783365D01*
X54431223Y11822721D01*
X54431224Y11822722D01*
X54434527Y11828444D01*
X54493542Y12010072D01*
X54495008Y12024015D01*
X54512814Y12193435D01*
X54513504Y12200000D01*
X54498595Y12341852D01*
X54494232Y12383365D01*
X54494232Y12383367D01*
X54493542Y12389928D01*
X54434527Y12571556D01*
X54339040Y12736944D01*
X54326931Y12750393D01*
X54215675Y12873955D01*
X54215674Y12873956D01*
X54211253Y12878866D01*
X54091879Y12965597D01*
X54062094Y12987237D01*
X54062093Y12987238D01*
X54056752Y12991118D01*
X54050724Y12993802D01*
X54050722Y12993803D01*
X53888319Y13066109D01*
X53888318Y13066109D01*
X53882288Y13068794D01*
X53788888Y13088647D01*
X53701944Y13107128D01*
X53701939Y13107128D01*
X53695487Y13108500D01*
X53504513Y13108500D01*
X53498061Y13107128D01*
X53498056Y13107128D01*
X53411112Y13088647D01*
X53317712Y13068794D01*
X53311682Y13066109D01*
X53311681Y13066109D01*
X53149278Y12993803D01*
X53149276Y12993802D01*
X53143248Y12991118D01*
X53137907Y12987238D01*
X53137906Y12987237D01*
X53008025Y12892872D01*
X52988747Y12878866D01*
X52984325Y12873955D01*
X52984313Y12873944D01*
X52920306Y12843225D01*
X52849852Y12851987D01*
X52815687Y12873944D01*
X52815675Y12873955D01*
X52811253Y12878866D01*
X52791976Y12892872D01*
X52662094Y12987237D01*
X52662093Y12987238D01*
X52656752Y12991118D01*
X52650724Y12993802D01*
X52650722Y12993803D01*
X52488319Y13066109D01*
X52488318Y13066109D01*
X52482288Y13068794D01*
X52388888Y13088647D01*
X52301944Y13107128D01*
X52301939Y13107128D01*
X52295487Y13108500D01*
X52239595Y13108500D01*
X52171474Y13128502D01*
X52150500Y13145405D01*
X50144500Y15151405D01*
X50110474Y15213717D01*
X50115539Y15284532D01*
X50158086Y15341368D01*
X50224606Y15366179D01*
X50233595Y15366500D01*
X55121233Y15366500D01*
X55132416Y15365973D01*
X55139909Y15364298D01*
X55147835Y15364547D01*
X55147836Y15364547D01*
X55207986Y15366438D01*
X55211945Y15366500D01*
X55239856Y15366500D01*
X55243791Y15366997D01*
X55243856Y15367005D01*
X55255693Y15367938D01*
X55287951Y15368952D01*
X55291970Y15369078D01*
X55299889Y15369327D01*
X55319343Y15374979D01*
X55338700Y15378987D01*
X55350930Y15380532D01*
X55350931Y15380532D01*
X55358797Y15381526D01*
X55366168Y15384445D01*
X55366170Y15384445D01*
X55399912Y15397804D01*
X55411142Y15401649D01*
X55445983Y15411771D01*
X55445984Y15411771D01*
X55453593Y15413982D01*
X55460412Y15418015D01*
X55460417Y15418017D01*
X55471028Y15424293D01*
X55488776Y15432988D01*
X55507617Y15440448D01*
X55514055Y15445125D01*
X55543387Y15466436D01*
X55553307Y15472952D01*
X55584535Y15491420D01*
X55584538Y15491422D01*
X55591362Y15495458D01*
X55605683Y15509779D01*
X55620717Y15522620D01*
X55630694Y15529869D01*
X55637107Y15534528D01*
X55665298Y15568605D01*
X55673288Y15577384D01*
X57550499Y17454595D01*
X57612811Y17488621D01*
X57639594Y17491500D01*
X57695487Y17491500D01*
X57701939Y17492872D01*
X57701944Y17492872D01*
X57788887Y17511353D01*
X57882288Y17531206D01*
X57999440Y17583365D01*
X58050722Y17606197D01*
X58050724Y17606198D01*
X58056752Y17608882D01*
X58211253Y17721134D01*
X58306419Y17826827D01*
X58334621Y17858148D01*
X58334622Y17858149D01*
X58339040Y17863056D01*
X58430237Y18021013D01*
X58431223Y18022721D01*
X58431224Y18022722D01*
X58434527Y18028444D01*
X58493542Y18210072D01*
X58494530Y18219467D01*
X58512814Y18393435D01*
X58513504Y18400000D01*
X58493542Y18589928D01*
X58434527Y18771556D01*
X58339040Y18936944D01*
X58211253Y19078866D01*
X58056752Y19191118D01*
X58050724Y19193802D01*
X58050722Y19193803D01*
X57888319Y19266109D01*
X57888318Y19266109D01*
X57882288Y19268794D01*
X57788887Y19288647D01*
X57701944Y19307128D01*
X57701939Y19307128D01*
X57695487Y19308500D01*
X57504513Y19308500D01*
X57498061Y19307128D01*
X57498056Y19307128D01*
X57411113Y19288647D01*
X57317712Y19268794D01*
X57311682Y19266109D01*
X57311681Y19266109D01*
X57149278Y19193803D01*
X57149276Y19193802D01*
X57143248Y19191118D01*
X56988747Y19078866D01*
X56860960Y18936944D01*
X56765473Y18771556D01*
X56706458Y18589928D01*
X56693727Y18468794D01*
X56689093Y18424707D01*
X56662080Y18359050D01*
X56652878Y18348782D01*
X54974500Y16670405D01*
X54912188Y16636379D01*
X54885405Y16633500D01*
X48015347Y16633500D01*
X47947226Y16653502D01*
X47900733Y16707158D01*
X47890629Y16777432D01*
X47921709Y16843808D01*
X47939040Y16863056D01*
X48034527Y17028444D01*
X48093542Y17210072D01*
X48094872Y17222721D01*
X48112814Y17393435D01*
X48113504Y17400000D01*
X48093542Y17589928D01*
X48034527Y17771556D01*
X47939040Y17936944D01*
X47922882Y17954890D01*
X47815675Y18073955D01*
X47815674Y18073956D01*
X47811253Y18078866D01*
X47684911Y18170659D01*
X47662094Y18187237D01*
X47662093Y18187238D01*
X47656752Y18191118D01*
X47650724Y18193802D01*
X47650722Y18193803D01*
X47488319Y18266109D01*
X47488318Y18266109D01*
X47482288Y18268794D01*
X47388888Y18288647D01*
X47301944Y18307128D01*
X47301939Y18307128D01*
X47295487Y18308500D01*
X47104513Y18308500D01*
X47098061Y18307128D01*
X47098056Y18307128D01*
X47011112Y18288647D01*
X46917712Y18268794D01*
X46911682Y18266109D01*
X46911681Y18266109D01*
X46749278Y18193803D01*
X46749276Y18193802D01*
X46743248Y18191118D01*
X46737907Y18187238D01*
X46737906Y18187237D01*
X46629645Y18108580D01*
X46588747Y18078866D01*
X46584332Y18073963D01*
X46579420Y18069540D01*
X46578295Y18070789D01*
X46524986Y18037949D01*
X46491800Y18033500D01*
X38642371Y18033500D01*
X38631188Y18034027D01*
X38623695Y18035702D01*
X38615769Y18035453D01*
X38615768Y18035453D01*
X38555618Y18033562D01*
X38551659Y18033500D01*
X38523748Y18033500D01*
X38519814Y18033003D01*
X38519813Y18033003D01*
X38519748Y18032995D01*
X38507911Y18032062D01*
X38475653Y18031048D01*
X38471634Y18030922D01*
X38463715Y18030673D01*
X38444261Y18025021D01*
X38424904Y18021013D01*
X38412674Y18019468D01*
X38412673Y18019468D01*
X38404807Y18018474D01*
X38397436Y18015555D01*
X38397434Y18015555D01*
X38363692Y18002196D01*
X38352462Y17998351D01*
X38317621Y17988229D01*
X38317620Y17988229D01*
X38310011Y17986018D01*
X38303192Y17981985D01*
X38303187Y17981983D01*
X38292576Y17975707D01*
X38274828Y17967012D01*
X38255987Y17959552D01*
X38249571Y17954890D01*
X38249570Y17954890D01*
X38220217Y17933564D01*
X38210297Y17927048D01*
X38179069Y17908580D01*
X38179066Y17908578D01*
X38172242Y17904542D01*
X38157921Y17890221D01*
X38142888Y17877381D01*
X38126497Y17865472D01*
X38121446Y17859366D01*
X38098306Y17831395D01*
X38090316Y17822616D01*
X36607747Y16340048D01*
X36599461Y16332508D01*
X36592982Y16328396D01*
X36587557Y16322619D01*
X36546357Y16278745D01*
X36543602Y16275903D01*
X36523865Y16256166D01*
X36521385Y16252969D01*
X36513682Y16243949D01*
X36483414Y16211717D01*
X36479595Y16204771D01*
X36479593Y16204768D01*
X36473652Y16193962D01*
X36462801Y16177443D01*
X36450386Y16161437D01*
X36447241Y16154168D01*
X36447238Y16154164D01*
X36432826Y16120859D01*
X36427609Y16110209D01*
X36406305Y16071456D01*
X36404334Y16063781D01*
X36404334Y16063780D01*
X36401267Y16051834D01*
X36394863Y16033130D01*
X36393896Y16030894D01*
X36386819Y16014541D01*
X36385580Y16006718D01*
X36385577Y16006708D01*
X36379901Y15970872D01*
X36377495Y15959252D01*
X36373175Y15942425D01*
X36366500Y15916426D01*
X36366500Y15896172D01*
X36364949Y15876462D01*
X36361780Y15856453D01*
X36362526Y15848561D01*
X36365941Y15812435D01*
X36366500Y15800577D01*
X36366500Y9478767D01*
X36365973Y9467584D01*
X36364298Y9460091D01*
X36364547Y9452165D01*
X36364547Y9452164D01*
X36366438Y9392014D01*
X36366500Y9388055D01*
X36366500Y9360144D01*
X36366997Y9356210D01*
X36366997Y9356209D01*
X36367005Y9356144D01*
X36367938Y9344307D01*
X36369327Y9300111D01*
X36371829Y9291500D01*
X36374978Y9280661D01*
X36378987Y9261300D01*
X36381526Y9241203D01*
X36384445Y9233832D01*
X36384445Y9233830D01*
X36397804Y9200088D01*
X36401649Y9188858D01*
X36413982Y9146407D01*
X36418015Y9139588D01*
X36418017Y9139583D01*
X36424293Y9128972D01*
X36432988Y9111224D01*
X36440448Y9092383D01*
X36445110Y9085967D01*
X36445110Y9085966D01*
X36466436Y9056613D01*
X36472952Y9046693D01*
X36495458Y9008638D01*
X36509779Y8994317D01*
X36522619Y8979284D01*
X36534528Y8962893D01*
X36540634Y8957842D01*
X36568605Y8934702D01*
X36577384Y8926712D01*
X38652878Y6851218D01*
X38686904Y6788906D01*
X38689092Y6775297D01*
X38696894Y6701069D01*
X38705145Y6622568D01*
X38706458Y6610072D01*
X38765473Y6428444D01*
X38768776Y6422722D01*
X38768777Y6422721D01*
X38778103Y6406568D01*
X38860960Y6263056D01*
X38914320Y6203794D01*
X38938015Y6177478D01*
X38968732Y6113470D01*
X38959967Y6043017D01*
X38933473Y6004073D01*
X37799805Y4870405D01*
X37737493Y4836379D01*
X37710710Y4833500D01*
X23078768Y4833500D01*
X23067585Y4834027D01*
X23060092Y4835702D01*
X23052166Y4835453D01*
X23052165Y4835453D01*
X22992002Y4833562D01*
X22988044Y4833500D01*
X22960144Y4833500D01*
X22956154Y4832996D01*
X22944320Y4832064D01*
X22900111Y4830674D01*
X22892495Y4828461D01*
X22892493Y4828461D01*
X22880652Y4825021D01*
X22861293Y4821012D01*
X22859983Y4820846D01*
X22841203Y4818474D01*
X22833837Y4815558D01*
X22833831Y4815556D01*
X22800098Y4802200D01*
X22788868Y4798355D01*
X22754017Y4788230D01*
X22746407Y4786019D01*
X22739584Y4781984D01*
X22728966Y4775705D01*
X22711213Y4767008D01*
X22703568Y4763981D01*
X22692383Y4759552D01*
X22685968Y4754891D01*
X22656612Y4733563D01*
X22646695Y4727049D01*
X22608638Y4704542D01*
X22594317Y4690221D01*
X22579284Y4677381D01*
X22562893Y4665472D01*
X22557843Y4659368D01*
X22557838Y4659363D01*
X22534707Y4631402D01*
X22526717Y4622621D01*
X21827190Y3923095D01*
X21764878Y3889070D01*
X21705484Y3890484D01*
X21643402Y3907119D01*
X21643400Y3907119D01*
X21638087Y3908543D01*
X21410000Y3928498D01*
X21181913Y3908543D01*
X21176600Y3907119D01*
X21176598Y3907119D01*
X20966067Y3850707D01*
X20966065Y3850706D01*
X20960757Y3849284D01*
X20955776Y3846961D01*
X20955775Y3846961D01*
X20758238Y3754849D01*
X20758233Y3754846D01*
X20753251Y3752523D01*
X20679767Y3701069D01*
X20570211Y3624357D01*
X20570208Y3624355D01*
X20565700Y3621198D01*
X20403802Y3459300D01*
X20272477Y3271749D01*
X20270154Y3266767D01*
X20270151Y3266762D01*
X20254195Y3232543D01*
X20207278Y3179258D01*
X20139001Y3159797D01*
X20071041Y3180339D01*
X20025805Y3232543D01*
X20009849Y3266762D01*
X20009846Y3266767D01*
X20007523Y3271749D01*
X19876198Y3459300D01*
X19714300Y3621198D01*
X19709792Y3624355D01*
X19709789Y3624357D01*
X19600233Y3701069D01*
X19526749Y3752523D01*
X19521767Y3754846D01*
X19521762Y3754849D01*
X19324225Y3846961D01*
X19324224Y3846961D01*
X19319243Y3849284D01*
X19313935Y3850706D01*
X19313933Y3850707D01*
X19103402Y3907119D01*
X19103400Y3907119D01*
X19098087Y3908543D01*
X18870000Y3928498D01*
X18641913Y3908543D01*
X18636600Y3907119D01*
X18636598Y3907119D01*
X18426067Y3850707D01*
X18426065Y3850706D01*
X18420757Y3849284D01*
X18415776Y3846961D01*
X18415775Y3846961D01*
X18218238Y3754849D01*
X18218233Y3754846D01*
X18213251Y3752523D01*
X18139767Y3701069D01*
X18030211Y3624357D01*
X18030208Y3624355D01*
X18025700Y3621198D01*
X17863802Y3459300D01*
X17732477Y3271749D01*
X17730154Y3266767D01*
X17730151Y3266762D01*
X17714195Y3232543D01*
X17667278Y3179258D01*
X17599001Y3159797D01*
X17531041Y3180339D01*
X17485805Y3232543D01*
X17469849Y3266762D01*
X17469846Y3266767D01*
X17467523Y3271749D01*
X17336198Y3459300D01*
X17174300Y3621198D01*
X17169792Y3624355D01*
X17169789Y3624357D01*
X17060233Y3701069D01*
X16986749Y3752523D01*
X16981767Y3754846D01*
X16981762Y3754849D01*
X16784225Y3846961D01*
X16784224Y3846961D01*
X16779243Y3849284D01*
X16773935Y3850706D01*
X16773933Y3850707D01*
X16563402Y3907119D01*
X16563400Y3907119D01*
X16558087Y3908543D01*
X16330000Y3928498D01*
X16101913Y3908543D01*
X16096600Y3907119D01*
X16096598Y3907119D01*
X15886067Y3850707D01*
X15886065Y3850706D01*
X15880757Y3849284D01*
X15875776Y3846961D01*
X15875775Y3846961D01*
X15678238Y3754849D01*
X15678233Y3754846D01*
X15673251Y3752523D01*
X15599767Y3701069D01*
X15490211Y3624357D01*
X15490208Y3624355D01*
X15485700Y3621198D01*
X15323802Y3459300D01*
X15192477Y3271749D01*
X15190154Y3266767D01*
X15190151Y3266762D01*
X15174195Y3232543D01*
X15127278Y3179258D01*
X15059001Y3159797D01*
X14991041Y3180339D01*
X14945805Y3232543D01*
X14929849Y3266762D01*
X14929846Y3266767D01*
X14927523Y3271749D01*
X14796198Y3459300D01*
X14634300Y3621198D01*
X14629792Y3624355D01*
X14629789Y3624357D01*
X14520233Y3701069D01*
X14446749Y3752523D01*
X14441767Y3754846D01*
X14441762Y3754849D01*
X14244225Y3846961D01*
X14244224Y3846961D01*
X14239243Y3849284D01*
X14233935Y3850706D01*
X14233933Y3850707D01*
X14023402Y3907119D01*
X14023400Y3907119D01*
X14018087Y3908543D01*
X13790000Y3928498D01*
X13561913Y3908543D01*
X13556600Y3907119D01*
X13556598Y3907119D01*
X13346067Y3850707D01*
X13346065Y3850706D01*
X13340757Y3849284D01*
X13335776Y3846961D01*
X13335775Y3846961D01*
X13138238Y3754849D01*
X13138233Y3754846D01*
X13133251Y3752523D01*
X13059767Y3701069D01*
X12950211Y3624357D01*
X12950208Y3624355D01*
X12945700Y3621198D01*
X12783802Y3459300D01*
X12652477Y3271749D01*
X12650154Y3266767D01*
X12650151Y3266762D01*
X12633919Y3231951D01*
X12587002Y3178666D01*
X12518725Y3159205D01*
X12450765Y3179747D01*
X12405529Y3231951D01*
X12389414Y3266511D01*
X12383931Y3276007D01*
X12258972Y3454467D01*
X12251916Y3462875D01*
X12097875Y3616916D01*
X12089467Y3623972D01*
X11911007Y3748931D01*
X11901511Y3754414D01*
X11704053Y3846490D01*
X11693761Y3850236D01*
X11521497Y3896394D01*
X11507401Y3896058D01*
X11504000Y3888116D01*
X11504000Y947033D01*
X11507973Y933502D01*
X11516522Y932273D01*
X11693761Y979764D01*
X11704053Y983510D01*
X11901511Y1075586D01*
X11911007Y1081069D01*
X12089467Y1206028D01*
X12097875Y1213084D01*
X12251916Y1367125D01*
X12258972Y1375533D01*
X12383931Y1553993D01*
X12389414Y1563489D01*
X12405529Y1598049D01*
X12452446Y1651334D01*
X12520723Y1670795D01*
X12588683Y1650253D01*
X12633919Y1598049D01*
X12650151Y1563238D01*
X12650154Y1563233D01*
X12652477Y1558251D01*
X12655634Y1553743D01*
X12780640Y1375216D01*
X12783802Y1370700D01*
X12945700Y1208802D01*
X12950208Y1205645D01*
X12950211Y1205643D01*
X13028389Y1150902D01*
X13133251Y1077477D01*
X13138233Y1075154D01*
X13138238Y1075151D01*
X13279966Y1009063D01*
X13340757Y980716D01*
X13346065Y979294D01*
X13346067Y979293D01*
X13556598Y922881D01*
X13556600Y922881D01*
X13561913Y921457D01*
X13790000Y901502D01*
X14018087Y921457D01*
X14023400Y922881D01*
X14023402Y922881D01*
X14233933Y979293D01*
X14233935Y979294D01*
X14239243Y980716D01*
X14300034Y1009063D01*
X14441762Y1075151D01*
X14441767Y1075154D01*
X14446749Y1077477D01*
X14551611Y1150902D01*
X14629789Y1205643D01*
X14629792Y1205645D01*
X14634300Y1208802D01*
X14796198Y1370700D01*
X14799361Y1375216D01*
X14924366Y1553743D01*
X14927523Y1558251D01*
X14929846Y1563233D01*
X14929849Y1563238D01*
X14945805Y1597457D01*
X14992722Y1650742D01*
X15060999Y1670203D01*
X15128959Y1649661D01*
X15174195Y1597457D01*
X15190151Y1563238D01*
X15190154Y1563233D01*
X15192477Y1558251D01*
X15195634Y1553743D01*
X15320640Y1375216D01*
X15323802Y1370700D01*
X15485700Y1208802D01*
X15490208Y1205645D01*
X15490211Y1205643D01*
X15568389Y1150902D01*
X15673251Y1077477D01*
X15678233Y1075154D01*
X15678238Y1075151D01*
X15819966Y1009063D01*
X15880757Y980716D01*
X15886065Y979294D01*
X15886067Y979293D01*
X16096598Y922881D01*
X16096600Y922881D01*
X16101913Y921457D01*
X16330000Y901502D01*
X16558087Y921457D01*
X16563400Y922881D01*
X16563402Y922881D01*
X16773933Y979293D01*
X16773935Y979294D01*
X16779243Y980716D01*
X16840034Y1009063D01*
X16981762Y1075151D01*
X16981767Y1075154D01*
X16986749Y1077477D01*
X17091611Y1150902D01*
X17169789Y1205643D01*
X17169792Y1205645D01*
X17174300Y1208802D01*
X17336198Y1370700D01*
X17339361Y1375216D01*
X17464366Y1553743D01*
X17467523Y1558251D01*
X17469846Y1563233D01*
X17469849Y1563238D01*
X17485805Y1597457D01*
X17532722Y1650742D01*
X17600999Y1670203D01*
X17668959Y1649661D01*
X17714195Y1597457D01*
X17730151Y1563238D01*
X17730154Y1563233D01*
X17732477Y1558251D01*
X17735634Y1553743D01*
X17860640Y1375216D01*
X17863802Y1370700D01*
X18025700Y1208802D01*
X18030208Y1205645D01*
X18030211Y1205643D01*
X18108389Y1150902D01*
X18213251Y1077477D01*
X18218233Y1075154D01*
X18218238Y1075151D01*
X18359966Y1009063D01*
X18420757Y980716D01*
X18426065Y979294D01*
X18426067Y979293D01*
X18636598Y922881D01*
X18636600Y922881D01*
X18641913Y921457D01*
X18870000Y901502D01*
X19098087Y921457D01*
X19103400Y922881D01*
X19103402Y922881D01*
X19319243Y980716D01*
X19319815Y978582D01*
X19381849Y981406D01*
X19440981Y948115D01*
X19665501Y723595D01*
X19699527Y661283D01*
X19694462Y590468D01*
X19651915Y533632D01*
X19585395Y508821D01*
X19576406Y508500D01*
X2216537Y508500D01*
X2148416Y528502D01*
X2101923Y582158D01*
X2097764Y592440D01*
X2076520Y652432D01*
X2000934Y865881D01*
X1864907Y1129428D01*
X1851226Y1148895D01*
X1696835Y1368570D01*
X1694372Y1372075D01*
X1619349Y1452809D01*
X1495404Y1586190D01*
X1495401Y1586192D01*
X1492483Y1589333D01*
X1489168Y1592047D01*
X1489164Y1592050D01*
X1283022Y1760775D01*
X1262977Y1777182D01*
X1010101Y1932144D01*
X738533Y2051354D01*
X711776Y2058976D01*
X599981Y2090822D01*
X539946Y2128721D01*
X526347Y2157873D01*
X7401500Y2157873D01*
X7416457Y1986913D01*
X7417881Y1981600D01*
X7417881Y1981598D01*
X7472655Y1777182D01*
X7475716Y1765757D01*
X7478039Y1760776D01*
X7478039Y1760775D01*
X7570151Y1563238D01*
X7570154Y1563233D01*
X7572477Y1558251D01*
X7575634Y1553743D01*
X7700640Y1375216D01*
X7703802Y1370700D01*
X7865700Y1208802D01*
X7870208Y1205645D01*
X7870211Y1205643D01*
X7948389Y1150902D01*
X8053251Y1077477D01*
X8058233Y1075154D01*
X8058238Y1075151D01*
X8199966Y1009063D01*
X8260757Y980716D01*
X8266065Y979294D01*
X8266067Y979293D01*
X8476598Y922881D01*
X8476600Y922881D01*
X8481913Y921457D01*
X8710000Y901502D01*
X8938087Y921457D01*
X8943400Y922881D01*
X8943402Y922881D01*
X9153933Y979293D01*
X9153935Y979294D01*
X9159243Y980716D01*
X9220034Y1009063D01*
X9361762Y1075151D01*
X9361767Y1075154D01*
X9366749Y1077477D01*
X9471611Y1150902D01*
X9549789Y1205643D01*
X9549792Y1205645D01*
X9554300Y1208802D01*
X9716198Y1370700D01*
X9719361Y1375216D01*
X9844366Y1553743D01*
X9847523Y1558251D01*
X9849846Y1563233D01*
X9849849Y1563238D01*
X9866081Y1598049D01*
X9912998Y1651334D01*
X9981275Y1670795D01*
X10049235Y1650253D01*
X10094471Y1598049D01*
X10110586Y1563489D01*
X10116069Y1553993D01*
X10241028Y1375533D01*
X10248084Y1367125D01*
X10402125Y1213084D01*
X10410533Y1206028D01*
X10588993Y1081069D01*
X10598489Y1075586D01*
X10795947Y983510D01*
X10806239Y979764D01*
X10978503Y933606D01*
X10992599Y933942D01*
X10996000Y941884D01*
X10996000Y3882967D01*
X10992027Y3896498D01*
X10983478Y3897727D01*
X10806239Y3850236D01*
X10795947Y3846490D01*
X10598489Y3754414D01*
X10588993Y3748931D01*
X10410533Y3623972D01*
X10402125Y3616916D01*
X10248084Y3462875D01*
X10241028Y3454467D01*
X10116069Y3276007D01*
X10110586Y3266511D01*
X10094471Y3231951D01*
X10047554Y3178666D01*
X9979277Y3159205D01*
X9911317Y3179747D01*
X9866081Y3231951D01*
X9849849Y3266762D01*
X9849846Y3266767D01*
X9847523Y3271749D01*
X9716198Y3459300D01*
X9554300Y3621198D01*
X9549792Y3624355D01*
X9549789Y3624357D01*
X9440233Y3701069D01*
X9366749Y3752523D01*
X9361767Y3754846D01*
X9361762Y3754849D01*
X9164225Y3846961D01*
X9164224Y3846961D01*
X9159243Y3849284D01*
X9153935Y3850706D01*
X9153933Y3850707D01*
X8943402Y3907119D01*
X8943400Y3907119D01*
X8938087Y3908543D01*
X8710000Y3928498D01*
X8481913Y3908543D01*
X8476600Y3907119D01*
X8476598Y3907119D01*
X8266067Y3850707D01*
X8266065Y3850706D01*
X8260757Y3849284D01*
X8255776Y3846961D01*
X8255775Y3846961D01*
X8058238Y3754849D01*
X8058233Y3754846D01*
X8053251Y3752523D01*
X7979767Y3701069D01*
X7870211Y3624357D01*
X7870208Y3624355D01*
X7865700Y3621198D01*
X7703802Y3459300D01*
X7572477Y3271749D01*
X7570154Y3266767D01*
X7570151Y3266762D01*
X7480105Y3073655D01*
X7475716Y3064243D01*
X7474294Y3058935D01*
X7474293Y3058933D01*
X7448593Y2963020D01*
X7416457Y2843087D01*
X7401500Y2672127D01*
X7401500Y2157873D01*
X526347Y2157873D01*
X509932Y2193061D01*
X508500Y2212001D01*
X508500Y25017873D01*
X7401500Y25017873D01*
X7401738Y25015156D01*
X7401738Y25015149D01*
X7407746Y24946480D01*
X7416457Y24846913D01*
X7417881Y24841600D01*
X7417881Y24841598D01*
X7474027Y24632062D01*
X7475716Y24625757D01*
X7478039Y24620776D01*
X7478039Y24620775D01*
X7570151Y24423238D01*
X7570154Y24423233D01*
X7572477Y24418251D01*
X7640388Y24321264D01*
X7676168Y24270166D01*
X7703802Y24230700D01*
X7865700Y24068802D01*
X7870208Y24065645D01*
X7870211Y24065643D01*
X7911536Y24036707D01*
X8053251Y23937477D01*
X8058233Y23935154D01*
X8058238Y23935151D01*
X8255775Y23843039D01*
X8260757Y23840716D01*
X8266065Y23839294D01*
X8266067Y23839293D01*
X8476598Y23782881D01*
X8476600Y23782881D01*
X8481913Y23781457D01*
X8710000Y23761502D01*
X8938087Y23781457D01*
X8943400Y23782881D01*
X8943402Y23782881D01*
X9153933Y23839293D01*
X9153935Y23839294D01*
X9159243Y23840716D01*
X9164225Y23843039D01*
X9361762Y23935151D01*
X9361767Y23935154D01*
X9366749Y23937477D01*
X9508464Y24036707D01*
X9549789Y24065643D01*
X9549792Y24065645D01*
X9554300Y24068802D01*
X9716198Y24230700D01*
X9743833Y24270166D01*
X9779612Y24321264D01*
X9847523Y24418251D01*
X9849846Y24423233D01*
X9849849Y24423238D01*
X9865805Y24457457D01*
X9912722Y24510742D01*
X9980999Y24530203D01*
X10048959Y24509661D01*
X10094195Y24457457D01*
X10110151Y24423238D01*
X10110154Y24423233D01*
X10112477Y24418251D01*
X10180388Y24321264D01*
X10216168Y24270166D01*
X10243802Y24230700D01*
X10405700Y24068802D01*
X10410208Y24065645D01*
X10410211Y24065643D01*
X10451536Y24036707D01*
X10593251Y23937477D01*
X10598233Y23935154D01*
X10598238Y23935151D01*
X10795775Y23843039D01*
X10800757Y23840716D01*
X10806065Y23839294D01*
X10806067Y23839293D01*
X11016598Y23782881D01*
X11016600Y23782881D01*
X11021913Y23781457D01*
X11250000Y23761502D01*
X11478087Y23781457D01*
X11483400Y23782881D01*
X11483402Y23782881D01*
X11693933Y23839293D01*
X11693935Y23839294D01*
X11699243Y23840716D01*
X11704225Y23843039D01*
X11901762Y23935151D01*
X11901767Y23935154D01*
X11906749Y23937477D01*
X12048464Y24036707D01*
X12089789Y24065643D01*
X12089792Y24065645D01*
X12094300Y24068802D01*
X12256198Y24230700D01*
X12283833Y24270166D01*
X12319612Y24321264D01*
X12387523Y24418251D01*
X12389846Y24423233D01*
X12389849Y24423238D01*
X12405805Y24457457D01*
X12452722Y24510742D01*
X12520999Y24530203D01*
X12588959Y24509661D01*
X12634195Y24457457D01*
X12650151Y24423238D01*
X12650154Y24423233D01*
X12652477Y24418251D01*
X12720388Y24321264D01*
X12756168Y24270166D01*
X12783802Y24230700D01*
X12945700Y24068802D01*
X12950208Y24065645D01*
X12950211Y24065643D01*
X12991536Y24036707D01*
X13133251Y23937477D01*
X13138233Y23935154D01*
X13138238Y23935151D01*
X13335775Y23843039D01*
X13340757Y23840716D01*
X13346065Y23839294D01*
X13346067Y23839293D01*
X13556598Y23782881D01*
X13556600Y23782881D01*
X13561913Y23781457D01*
X13790000Y23761502D01*
X14018087Y23781457D01*
X14023400Y23782881D01*
X14023402Y23782881D01*
X14233933Y23839293D01*
X14233935Y23839294D01*
X14239243Y23840716D01*
X14244225Y23843039D01*
X14441762Y23935151D01*
X14441767Y23935154D01*
X14446749Y23937477D01*
X14588464Y24036707D01*
X14629789Y24065643D01*
X14629792Y24065645D01*
X14634300Y24068802D01*
X14796198Y24230700D01*
X14823833Y24270166D01*
X14859612Y24321264D01*
X14927523Y24418251D01*
X14929846Y24423233D01*
X14929849Y24423238D01*
X14945805Y24457457D01*
X14992722Y24510742D01*
X15060999Y24530203D01*
X15128959Y24509661D01*
X15174195Y24457457D01*
X15190151Y24423238D01*
X15190154Y24423233D01*
X15192477Y24418251D01*
X15260388Y24321264D01*
X15296168Y24270166D01*
X15323802Y24230700D01*
X15485700Y24068802D01*
X15490208Y24065645D01*
X15490211Y24065643D01*
X15531536Y24036707D01*
X15673251Y23937477D01*
X15678233Y23935154D01*
X15678238Y23935151D01*
X15875775Y23843039D01*
X15880757Y23840716D01*
X15886065Y23839294D01*
X15886067Y23839293D01*
X16096598Y23782881D01*
X16096600Y23782881D01*
X16101913Y23781457D01*
X16330000Y23761502D01*
X16558087Y23781457D01*
X16563400Y23782881D01*
X16563402Y23782881D01*
X16773933Y23839293D01*
X16773935Y23839294D01*
X16779243Y23840716D01*
X16784225Y23843039D01*
X16981762Y23935151D01*
X16981767Y23935154D01*
X16986749Y23937477D01*
X17128464Y24036707D01*
X17169789Y24065643D01*
X17169792Y24065645D01*
X17174300Y24068802D01*
X17336198Y24230700D01*
X17363833Y24270166D01*
X17399612Y24321264D01*
X17467523Y24418251D01*
X17469846Y24423233D01*
X17469849Y24423238D01*
X17485805Y24457457D01*
X17532722Y24510742D01*
X17600999Y24530203D01*
X17668959Y24509661D01*
X17714195Y24457457D01*
X17730151Y24423238D01*
X17730154Y24423233D01*
X17732477Y24418251D01*
X17800388Y24321264D01*
X17836168Y24270166D01*
X17863802Y24230700D01*
X18025700Y24068802D01*
X18030208Y24065645D01*
X18030211Y24065643D01*
X18071536Y24036707D01*
X18213251Y23937477D01*
X18218233Y23935154D01*
X18218238Y23935151D01*
X18415775Y23843039D01*
X18420757Y23840716D01*
X18426065Y23839294D01*
X18426067Y23839293D01*
X18636598Y23782881D01*
X18636600Y23782881D01*
X18641913Y23781457D01*
X18870000Y23761502D01*
X19098087Y23781457D01*
X19103400Y23782881D01*
X19103402Y23782881D01*
X19313933Y23839293D01*
X19313935Y23839294D01*
X19319243Y23840716D01*
X19324225Y23843039D01*
X19521762Y23935151D01*
X19521767Y23935154D01*
X19526749Y23937477D01*
X19668464Y24036707D01*
X19709789Y24065643D01*
X19709792Y24065645D01*
X19714300Y24068802D01*
X19876198Y24230700D01*
X19903833Y24270166D01*
X19939612Y24321264D01*
X20007523Y24418251D01*
X20009846Y24423233D01*
X20009849Y24423238D01*
X20025805Y24457457D01*
X20072722Y24510742D01*
X20140999Y24530203D01*
X20208959Y24509661D01*
X20254195Y24457457D01*
X20270151Y24423238D01*
X20270154Y24423233D01*
X20272477Y24418251D01*
X20340388Y24321264D01*
X20376168Y24270166D01*
X20403802Y24230700D01*
X20565700Y24068802D01*
X20570208Y24065645D01*
X20570211Y24065643D01*
X20611536Y24036707D01*
X20753251Y23937477D01*
X20758233Y23935154D01*
X20758238Y23935151D01*
X20955775Y23843039D01*
X20960757Y23840716D01*
X20966065Y23839294D01*
X20966067Y23839293D01*
X21176598Y23782881D01*
X21176600Y23782881D01*
X21181913Y23781457D01*
X21410000Y23761502D01*
X21638087Y23781457D01*
X21643400Y23782881D01*
X21643402Y23782881D01*
X21853933Y23839293D01*
X21853935Y23839294D01*
X21859243Y23840716D01*
X21864225Y23843039D01*
X22061762Y23935151D01*
X22061767Y23935154D01*
X22066749Y23937477D01*
X22208464Y24036707D01*
X22249789Y24065643D01*
X22249792Y24065645D01*
X22254300Y24068802D01*
X22416198Y24230700D01*
X22443833Y24270166D01*
X22479612Y24321264D01*
X22547523Y24418251D01*
X22549846Y24423233D01*
X22549849Y24423238D01*
X22565805Y24457457D01*
X22612722Y24510742D01*
X22680999Y24530203D01*
X22748959Y24509661D01*
X22794195Y24457457D01*
X22810151Y24423238D01*
X22810154Y24423233D01*
X22812477Y24418251D01*
X22880388Y24321264D01*
X22916168Y24270166D01*
X22943802Y24230700D01*
X23105700Y24068802D01*
X23110208Y24065645D01*
X23110211Y24065643D01*
X23151536Y24036707D01*
X23293251Y23937477D01*
X23298233Y23935154D01*
X23298238Y23935151D01*
X23495775Y23843039D01*
X23500757Y23840716D01*
X23506065Y23839294D01*
X23506067Y23839293D01*
X23716598Y23782881D01*
X23716600Y23782881D01*
X23721913Y23781457D01*
X23950000Y23761502D01*
X24178087Y23781457D01*
X24183400Y23782881D01*
X24183402Y23782881D01*
X24393933Y23839293D01*
X24393935Y23839294D01*
X24399243Y23840716D01*
X24404225Y23843039D01*
X24601762Y23935151D01*
X24601767Y23935154D01*
X24606749Y23937477D01*
X24748464Y24036707D01*
X24789789Y24065643D01*
X24789792Y24065645D01*
X24794300Y24068802D01*
X24823133Y24097635D01*
X24885445Y24131661D01*
X24956260Y24126596D01*
X25013096Y24084049D01*
X25030210Y24052768D01*
X25039385Y24028295D01*
X25126739Y23911739D01*
X25243295Y23824385D01*
X25379684Y23773255D01*
X25441866Y23766500D01*
X27538134Y23766500D01*
X27600316Y23773255D01*
X27736705Y23824385D01*
X27853261Y23911739D01*
X27940615Y24028295D01*
X27991745Y24164684D01*
X27998500Y24226866D01*
X27998500Y26323134D01*
X27991745Y26385316D01*
X27940615Y26521705D01*
X27853261Y26638261D01*
X27736705Y26725615D01*
X27600316Y26776745D01*
X27538134Y26783500D01*
X25441866Y26783500D01*
X25379684Y26776745D01*
X25243295Y26725615D01*
X25126739Y26638261D01*
X25039385Y26521705D01*
X25036233Y26513297D01*
X25036231Y26513293D01*
X25030210Y26497232D01*
X24987569Y26440467D01*
X24921008Y26415766D01*
X24851659Y26430973D01*
X24823133Y26452365D01*
X24794300Y26481198D01*
X24789792Y26484355D01*
X24789789Y26484357D01*
X24681032Y26560509D01*
X24606749Y26612523D01*
X24601767Y26614846D01*
X24601762Y26614849D01*
X24404225Y26706961D01*
X24404224Y26706961D01*
X24399243Y26709284D01*
X24393935Y26710706D01*
X24393933Y26710707D01*
X24183402Y26767119D01*
X24183400Y26767119D01*
X24178087Y26768543D01*
X23950000Y26788498D01*
X23721913Y26768543D01*
X23716600Y26767119D01*
X23716598Y26767119D01*
X23506067Y26710707D01*
X23506065Y26710706D01*
X23500757Y26709284D01*
X23495776Y26706961D01*
X23495775Y26706961D01*
X23298238Y26614849D01*
X23298233Y26614846D01*
X23293251Y26612523D01*
X23218968Y26560509D01*
X23110211Y26484357D01*
X23110208Y26484355D01*
X23105700Y26481198D01*
X22943802Y26319300D01*
X22812477Y26131749D01*
X22810154Y26126767D01*
X22810151Y26126762D01*
X22794195Y26092543D01*
X22747278Y26039258D01*
X22679001Y26019797D01*
X22611041Y26040339D01*
X22565805Y26092543D01*
X22549849Y26126762D01*
X22549846Y26126767D01*
X22547523Y26131749D01*
X22416198Y26319300D01*
X22254300Y26481198D01*
X22249792Y26484355D01*
X22249789Y26484357D01*
X22141032Y26560509D01*
X22066749Y26612523D01*
X22061767Y26614846D01*
X22061762Y26614849D01*
X21864225Y26706961D01*
X21864224Y26706961D01*
X21859243Y26709284D01*
X21853935Y26710706D01*
X21853933Y26710707D01*
X21643402Y26767119D01*
X21643400Y26767119D01*
X21638087Y26768543D01*
X21410000Y26788498D01*
X21181913Y26768543D01*
X21176600Y26767119D01*
X21176598Y26767119D01*
X20966067Y26710707D01*
X20966065Y26710706D01*
X20960757Y26709284D01*
X20955776Y26706961D01*
X20955775Y26706961D01*
X20758238Y26614849D01*
X20758233Y26614846D01*
X20753251Y26612523D01*
X20678968Y26560509D01*
X20570211Y26484357D01*
X20570208Y26484355D01*
X20565700Y26481198D01*
X20403802Y26319300D01*
X20272477Y26131749D01*
X20270154Y26126767D01*
X20270151Y26126762D01*
X20254195Y26092543D01*
X20207278Y26039258D01*
X20139001Y26019797D01*
X20071041Y26040339D01*
X20025805Y26092543D01*
X20009849Y26126762D01*
X20009846Y26126767D01*
X20007523Y26131749D01*
X19876198Y26319300D01*
X19714300Y26481198D01*
X19709792Y26484355D01*
X19709789Y26484357D01*
X19601032Y26560509D01*
X19526749Y26612523D01*
X19521767Y26614846D01*
X19521762Y26614849D01*
X19324225Y26706961D01*
X19324224Y26706961D01*
X19319243Y26709284D01*
X19313935Y26710706D01*
X19313933Y26710707D01*
X19103402Y26767119D01*
X19103400Y26767119D01*
X19098087Y26768543D01*
X18870000Y26788498D01*
X18641913Y26768543D01*
X18636600Y26767119D01*
X18636598Y26767119D01*
X18426067Y26710707D01*
X18426065Y26710706D01*
X18420757Y26709284D01*
X18415776Y26706961D01*
X18415775Y26706961D01*
X18218238Y26614849D01*
X18218233Y26614846D01*
X18213251Y26612523D01*
X18138968Y26560509D01*
X18030211Y26484357D01*
X18030208Y26484355D01*
X18025700Y26481198D01*
X17863802Y26319300D01*
X17732477Y26131749D01*
X17730154Y26126767D01*
X17730151Y26126762D01*
X17714195Y26092543D01*
X17667278Y26039258D01*
X17599001Y26019797D01*
X17531041Y26040339D01*
X17485805Y26092543D01*
X17469849Y26126762D01*
X17469846Y26126767D01*
X17467523Y26131749D01*
X17336198Y26319300D01*
X17174300Y26481198D01*
X17169792Y26484355D01*
X17169789Y26484357D01*
X17061032Y26560509D01*
X16986749Y26612523D01*
X16981767Y26614846D01*
X16981762Y26614849D01*
X16784225Y26706961D01*
X16784224Y26706961D01*
X16779243Y26709284D01*
X16773935Y26710706D01*
X16773933Y26710707D01*
X16563402Y26767119D01*
X16563400Y26767119D01*
X16558087Y26768543D01*
X16330000Y26788498D01*
X16101913Y26768543D01*
X16096600Y26767119D01*
X16096598Y26767119D01*
X15886067Y26710707D01*
X15886065Y26710706D01*
X15880757Y26709284D01*
X15875776Y26706961D01*
X15875775Y26706961D01*
X15678238Y26614849D01*
X15678233Y26614846D01*
X15673251Y26612523D01*
X15598968Y26560509D01*
X15490211Y26484357D01*
X15490208Y26484355D01*
X15485700Y26481198D01*
X15323802Y26319300D01*
X15192477Y26131749D01*
X15190154Y26126767D01*
X15190151Y26126762D01*
X15174195Y26092543D01*
X15127278Y26039258D01*
X15059001Y26019797D01*
X14991041Y26040339D01*
X14945805Y26092543D01*
X14929849Y26126762D01*
X14929846Y26126767D01*
X14927523Y26131749D01*
X14796198Y26319300D01*
X14634300Y26481198D01*
X14629792Y26484355D01*
X14629789Y26484357D01*
X14521032Y26560509D01*
X14446749Y26612523D01*
X14441767Y26614846D01*
X14441762Y26614849D01*
X14244225Y26706961D01*
X14244224Y26706961D01*
X14239243Y26709284D01*
X14233935Y26710706D01*
X14233933Y26710707D01*
X14023402Y26767119D01*
X14023400Y26767119D01*
X14018087Y26768543D01*
X13790000Y26788498D01*
X13561913Y26768543D01*
X13556600Y26767119D01*
X13556598Y26767119D01*
X13346067Y26710707D01*
X13346065Y26710706D01*
X13340757Y26709284D01*
X13335776Y26706961D01*
X13335775Y26706961D01*
X13138238Y26614849D01*
X13138233Y26614846D01*
X13133251Y26612523D01*
X13058968Y26560509D01*
X12950211Y26484357D01*
X12950208Y26484355D01*
X12945700Y26481198D01*
X12783802Y26319300D01*
X12652477Y26131749D01*
X12650154Y26126767D01*
X12650151Y26126762D01*
X12634195Y26092543D01*
X12587278Y26039258D01*
X12519001Y26019797D01*
X12451041Y26040339D01*
X12405805Y26092543D01*
X12389849Y26126762D01*
X12389846Y26126767D01*
X12387523Y26131749D01*
X12256198Y26319300D01*
X12094300Y26481198D01*
X12089792Y26484355D01*
X12089789Y26484357D01*
X11981032Y26560509D01*
X11906749Y26612523D01*
X11901767Y26614846D01*
X11901762Y26614849D01*
X11704225Y26706961D01*
X11704224Y26706961D01*
X11699243Y26709284D01*
X11693935Y26710706D01*
X11693933Y26710707D01*
X11483402Y26767119D01*
X11483400Y26767119D01*
X11478087Y26768543D01*
X11250000Y26788498D01*
X11021913Y26768543D01*
X11016600Y26767119D01*
X11016598Y26767119D01*
X10806067Y26710707D01*
X10806065Y26710706D01*
X10800757Y26709284D01*
X10795776Y26706961D01*
X10795775Y26706961D01*
X10598238Y26614849D01*
X10598233Y26614846D01*
X10593251Y26612523D01*
X10518968Y26560509D01*
X10410211Y26484357D01*
X10410208Y26484355D01*
X10405700Y26481198D01*
X10243802Y26319300D01*
X10112477Y26131749D01*
X10110154Y26126767D01*
X10110151Y26126762D01*
X10094195Y26092543D01*
X10047278Y26039258D01*
X9979001Y26019797D01*
X9911041Y26040339D01*
X9865805Y26092543D01*
X9849849Y26126762D01*
X9849846Y26126767D01*
X9847523Y26131749D01*
X9716198Y26319300D01*
X9554300Y26481198D01*
X9549792Y26484355D01*
X9549789Y26484357D01*
X9441032Y26560509D01*
X9366749Y26612523D01*
X9361767Y26614846D01*
X9361762Y26614849D01*
X9164225Y26706961D01*
X9164224Y26706961D01*
X9159243Y26709284D01*
X9153935Y26710706D01*
X9153933Y26710707D01*
X8943402Y26767119D01*
X8943400Y26767119D01*
X8938087Y26768543D01*
X8710000Y26788498D01*
X8481913Y26768543D01*
X8476600Y26767119D01*
X8476598Y26767119D01*
X8266067Y26710707D01*
X8266065Y26710706D01*
X8260757Y26709284D01*
X8255776Y26706961D01*
X8255775Y26706961D01*
X8058238Y26614849D01*
X8058233Y26614846D01*
X8053251Y26612523D01*
X7978968Y26560509D01*
X7870211Y26484357D01*
X7870208Y26484355D01*
X7865700Y26481198D01*
X7703802Y26319300D01*
X7572477Y26131749D01*
X7570154Y26126767D01*
X7570151Y26126762D01*
X7506345Y25989928D01*
X7475716Y25924243D01*
X7474294Y25918935D01*
X7474293Y25918933D01*
X7428864Y25749390D01*
X7416457Y25703087D01*
X7401500Y25532127D01*
X7401500Y25017873D01*
X508500Y25017873D01*
X508500Y29507500D01*
X23993996Y29507500D01*
X24013958Y29317572D01*
X24072973Y29135944D01*
X24076276Y29130222D01*
X24076277Y29130221D01*
X24083373Y29117931D01*
X24168460Y28970556D01*
X24172878Y28965649D01*
X24172879Y28965648D01*
X24186619Y28950388D01*
X24296247Y28828634D01*
X24390278Y28760316D01*
X24412448Y28744209D01*
X24450748Y28716382D01*
X24456776Y28713698D01*
X24456778Y28713697D01*
X24619181Y28641391D01*
X24625212Y28638706D01*
X24718613Y28618853D01*
X24805556Y28600372D01*
X24805561Y28600372D01*
X24812013Y28599000D01*
X25002987Y28599000D01*
X25009439Y28600372D01*
X25009444Y28600372D01*
X25096387Y28618853D01*
X25189788Y28638706D01*
X25195819Y28641391D01*
X25358222Y28713697D01*
X25358224Y28713698D01*
X25364252Y28716382D01*
X25402553Y28744209D01*
X25424722Y28760316D01*
X25518753Y28828634D01*
X25628381Y28950388D01*
X25642121Y28965648D01*
X25642122Y28965649D01*
X25646540Y28970556D01*
X25731627Y29117931D01*
X25738723Y29130221D01*
X25738724Y29130222D01*
X25742027Y29135944D01*
X25801042Y29317572D01*
X25821004Y29507500D01*
X25812730Y29586225D01*
X25801732Y29690865D01*
X25801732Y29690867D01*
X25801042Y29697428D01*
X25742027Y29879056D01*
X25646540Y30044444D01*
X25573363Y30125715D01*
X25542647Y30189721D01*
X25541000Y30210024D01*
X25541000Y33810000D01*
X26546835Y33810000D01*
X26565465Y33573289D01*
X26566619Y33568482D01*
X26566620Y33568476D01*
X26594136Y33453866D01*
X26620895Y33342406D01*
X26622788Y33337835D01*
X26622789Y33337833D01*
X26699648Y33152279D01*
X26711760Y33123037D01*
X26714346Y33118817D01*
X26833241Y32924798D01*
X26833245Y32924792D01*
X26835824Y32920584D01*
X26990031Y32740031D01*
X27170584Y32585824D01*
X27174792Y32583245D01*
X27174798Y32583241D01*
X27348853Y32476580D01*
X27373037Y32461760D01*
X27377607Y32459867D01*
X27377611Y32459865D01*
X27587833Y32372789D01*
X27592406Y32370895D01*
X27638870Y32359740D01*
X27818476Y32316620D01*
X27818482Y32316619D01*
X27823289Y32315465D01*
X28060000Y32296835D01*
X28296711Y32315465D01*
X28301518Y32316619D01*
X28301524Y32316620D01*
X28481130Y32359740D01*
X28527594Y32370895D01*
X28532167Y32372789D01*
X28742389Y32459865D01*
X28742393Y32459867D01*
X28746963Y32461760D01*
X28771147Y32476580D01*
X28945202Y32583241D01*
X28945208Y32583245D01*
X28949416Y32585824D01*
X29129969Y32740031D01*
X29284176Y32920584D01*
X29286755Y32924792D01*
X29286759Y32924798D01*
X29405654Y33118817D01*
X29408240Y33123037D01*
X29420353Y33152279D01*
X29497211Y33337833D01*
X29497212Y33337835D01*
X29499105Y33342406D01*
X29525864Y33453866D01*
X29553380Y33568476D01*
X29553381Y33568482D01*
X29554535Y33573289D01*
X29572378Y33800000D01*
X31626835Y33800000D01*
X31645465Y33563289D01*
X31646619Y33558482D01*
X31646620Y33558476D01*
X31669356Y33463775D01*
X31700895Y33332406D01*
X31702788Y33327835D01*
X31702789Y33327833D01*
X31789366Y33118817D01*
X31791760Y33113037D01*
X31794346Y33108817D01*
X31913241Y32914798D01*
X31913245Y32914792D01*
X31915824Y32910584D01*
X32070031Y32730031D01*
X32073787Y32726823D01*
X32080567Y32721032D01*
X32250584Y32575824D01*
X32254792Y32573245D01*
X32254798Y32573241D01*
X32439811Y32459865D01*
X32453037Y32451760D01*
X32457607Y32449867D01*
X32457611Y32449865D01*
X32651052Y32369740D01*
X32672406Y32360895D01*
X32718258Y32349887D01*
X32898476Y32306620D01*
X32898482Y32306619D01*
X32903289Y32305465D01*
X33140000Y32286835D01*
X33376711Y32305465D01*
X33381518Y32306619D01*
X33381524Y32306620D01*
X33561742Y32349887D01*
X33607594Y32360895D01*
X33628948Y32369740D01*
X33822389Y32449865D01*
X33822393Y32449867D01*
X33826963Y32451760D01*
X33840189Y32459865D01*
X34025202Y32573241D01*
X34025208Y32573245D01*
X34029416Y32575824D01*
X34199433Y32721032D01*
X34206213Y32726823D01*
X34209969Y32730031D01*
X34213177Y32733787D01*
X34213182Y32733792D01*
X34344689Y32887767D01*
X34404139Y32926577D01*
X34475134Y32927084D01*
X34535133Y32889127D01*
X34565086Y32824759D01*
X34566500Y32805937D01*
X34566500Y27514595D01*
X34546498Y27446474D01*
X34529595Y27425499D01*
X33849499Y26745404D01*
X33787187Y26711379D01*
X33760404Y26708500D01*
X33704513Y26708500D01*
X33698061Y26707128D01*
X33698056Y26707128D01*
X33611113Y26688647D01*
X33517712Y26668794D01*
X33511682Y26666109D01*
X33511681Y26666109D01*
X33349278Y26593803D01*
X33349276Y26593802D01*
X33343248Y26591118D01*
X33337907Y26587238D01*
X33337906Y26587237D01*
X33328263Y26580231D01*
X33188747Y26478866D01*
X33184326Y26473956D01*
X33184325Y26473955D01*
X33088781Y26367842D01*
X33060960Y26336944D01*
X32965473Y26171556D01*
X32906458Y25989928D01*
X32905768Y25983367D01*
X32905768Y25983365D01*
X32891489Y25847505D01*
X32886496Y25800000D01*
X32887186Y25793435D01*
X32905372Y25620409D01*
X32906458Y25610072D01*
X32965473Y25428444D01*
X33060960Y25263056D01*
X33188747Y25121134D01*
X33343248Y25008882D01*
X33349276Y25006198D01*
X33349278Y25006197D01*
X33511681Y24933891D01*
X33517712Y24931206D01*
X33611113Y24911353D01*
X33698056Y24892872D01*
X33698061Y24892872D01*
X33704513Y24891500D01*
X33856329Y24891500D01*
X33924450Y24871498D01*
X33962774Y24826886D01*
X33965473Y24828444D01*
X34060960Y24663056D01*
X34065378Y24658149D01*
X34065379Y24658148D01*
X34174101Y24537400D01*
X34188747Y24521134D01*
X34258948Y24470130D01*
X34330353Y24418251D01*
X34343248Y24408882D01*
X34349276Y24406198D01*
X34349278Y24406197D01*
X34485681Y24345467D01*
X34517712Y24331206D01*
X34611112Y24311353D01*
X34698056Y24292872D01*
X34698061Y24292872D01*
X34704513Y24291500D01*
X34856329Y24291500D01*
X34924450Y24271498D01*
X34962774Y24226886D01*
X34965473Y24228444D01*
X35060960Y24063056D01*
X35188747Y23921134D01*
X35343248Y23808882D01*
X35349276Y23806198D01*
X35349278Y23806197D01*
X35511681Y23733891D01*
X35517712Y23731206D01*
X35605886Y23712464D01*
X35668359Y23678736D01*
X35702681Y23616586D01*
X35704999Y23576047D01*
X35686496Y23400000D01*
X35706458Y23210072D01*
X35765473Y23028444D01*
X35860960Y22863056D01*
X35865378Y22858149D01*
X35865379Y22858148D01*
X35947452Y22766997D01*
X35988747Y22721134D01*
X36143248Y22608882D01*
X36149276Y22606198D01*
X36149278Y22606197D01*
X36311681Y22533891D01*
X36317712Y22531206D01*
X36411112Y22511353D01*
X36498056Y22492872D01*
X36498061Y22492872D01*
X36504513Y22491500D01*
X36695487Y22491500D01*
X36701939Y22492872D01*
X36701944Y22492872D01*
X36788888Y22511353D01*
X36882288Y22531206D01*
X36888319Y22533891D01*
X37050722Y22606197D01*
X37050724Y22606198D01*
X37056752Y22608882D01*
X37084466Y22629017D01*
X37204466Y22716203D01*
X37211253Y22721134D01*
X37215668Y22726037D01*
X37220580Y22730460D01*
X37221705Y22729211D01*
X37275014Y22762051D01*
X37308200Y22766500D01*
X37365513Y22766500D01*
X37376696Y22765973D01*
X37384189Y22764298D01*
X37392115Y22764547D01*
X37392116Y22764547D01*
X37452266Y22766438D01*
X37456225Y22766500D01*
X37484136Y22766500D01*
X37488071Y22766997D01*
X37488136Y22767005D01*
X37499973Y22767938D01*
X37532231Y22768952D01*
X37536250Y22769078D01*
X37544169Y22769327D01*
X37563623Y22774979D01*
X37582980Y22778987D01*
X37595210Y22780532D01*
X37595211Y22780532D01*
X37603077Y22781526D01*
X37610448Y22784445D01*
X37610450Y22784445D01*
X37644192Y22797804D01*
X37655422Y22801649D01*
X37690263Y22811771D01*
X37690264Y22811771D01*
X37697873Y22813982D01*
X37704692Y22818015D01*
X37704697Y22818017D01*
X37715308Y22824293D01*
X37733056Y22832988D01*
X37751897Y22840448D01*
X37787667Y22866436D01*
X37797587Y22872952D01*
X37828815Y22891420D01*
X37828818Y22891422D01*
X37835642Y22895458D01*
X37849963Y22909779D01*
X37864997Y22922620D01*
X37874974Y22929869D01*
X37881387Y22934528D01*
X37909578Y22968605D01*
X37917568Y22977384D01*
X38032642Y23092458D01*
X40540500Y23092458D01*
X40552022Y22950800D01*
X40553356Y22945605D01*
X40553356Y22945604D01*
X40595484Y22781526D01*
X40607890Y22733206D01*
X40701409Y22528945D01*
X40829620Y22344473D01*
X40988473Y22185620D01*
X41172945Y22057409D01*
X41377206Y21963890D01*
X41382638Y21962495D01*
X41382639Y21962495D01*
X41587673Y21909852D01*
X41594800Y21908022D01*
X41648705Y21903638D01*
X41733908Y21896707D01*
X41733918Y21896707D01*
X41736458Y21896500D01*
X43361542Y21896500D01*
X43364082Y21896707D01*
X43364092Y21896707D01*
X43449295Y21903638D01*
X43503200Y21908022D01*
X43510328Y21909852D01*
X43715361Y21962495D01*
X43715362Y21962495D01*
X43720794Y21963890D01*
X43925055Y22057409D01*
X44109527Y22185620D01*
X44268380Y22344473D01*
X44396591Y22528945D01*
X44490110Y22733206D01*
X44502516Y22781526D01*
X44544644Y22945604D01*
X44544644Y22945605D01*
X44545978Y22950800D01*
X44557500Y23092458D01*
X44557500Y23095039D01*
X55781001Y23095039D01*
X55781209Y23089929D01*
X55792082Y22956233D01*
X55793852Y22945680D01*
X55846967Y22738815D01*
X55850701Y22728269D01*
X55939510Y22534295D01*
X55945046Y22524588D01*
X56066803Y22349403D01*
X56073976Y22340824D01*
X56224824Y22189976D01*
X56233403Y22182803D01*
X56408588Y22061046D01*
X56418295Y22055510D01*
X56612269Y21966701D01*
X56622815Y21962967D01*
X56829679Y21909853D01*
X56840234Y21908082D01*
X56973930Y21897207D01*
X56979036Y21897000D01*
X57516885Y21897000D01*
X57532124Y21901475D01*
X57533329Y21902865D01*
X57535000Y21910548D01*
X57535000Y21915116D01*
X58043000Y21915116D01*
X58047475Y21899877D01*
X58048865Y21898672D01*
X58056548Y21897001D01*
X58598961Y21897001D01*
X58604071Y21897209D01*
X58737767Y21908082D01*
X58748320Y21909852D01*
X58955185Y21962967D01*
X58965731Y21966701D01*
X59159705Y22055510D01*
X59169412Y22061046D01*
X59344597Y22182803D01*
X59353176Y22189976D01*
X59504024Y22340824D01*
X59511197Y22349403D01*
X59632954Y22524588D01*
X59638490Y22534295D01*
X59727299Y22728269D01*
X59731033Y22738815D01*
X59784147Y22945679D01*
X59785918Y22956234D01*
X59796793Y23089930D01*
X59797000Y23095036D01*
X59797000Y23632885D01*
X59792525Y23648124D01*
X59791135Y23649329D01*
X59783452Y23651000D01*
X58061115Y23651000D01*
X58045876Y23646525D01*
X58044671Y23645135D01*
X58043000Y23637452D01*
X58043000Y21915116D01*
X57535000Y21915116D01*
X57535000Y23632885D01*
X57530525Y23648124D01*
X57529135Y23649329D01*
X57521452Y23651000D01*
X55799116Y23651000D01*
X55783877Y23646525D01*
X55782672Y23645135D01*
X55781001Y23637452D01*
X55781001Y23095039D01*
X44557500Y23095039D01*
X44557500Y24177115D01*
X55781000Y24177115D01*
X55785475Y24161876D01*
X55786865Y24160671D01*
X55794548Y24159000D01*
X57516885Y24159000D01*
X57532124Y24163475D01*
X57533329Y24164865D01*
X57535000Y24172548D01*
X57535000Y24177115D01*
X58043000Y24177115D01*
X58047475Y24161876D01*
X58048865Y24160671D01*
X58056548Y24159000D01*
X59778884Y24159000D01*
X59794123Y24163475D01*
X59795328Y24164865D01*
X59796999Y24172548D01*
X59796999Y24714961D01*
X59796791Y24720071D01*
X59785918Y24853767D01*
X59784148Y24864320D01*
X59731033Y25071185D01*
X59727299Y25081731D01*
X59638490Y25275705D01*
X59632954Y25285412D01*
X59511197Y25460597D01*
X59504024Y25469176D01*
X59353176Y25620024D01*
X59344597Y25627197D01*
X59169412Y25748954D01*
X59159705Y25754490D01*
X58965731Y25843299D01*
X58955185Y25847033D01*
X58748321Y25900147D01*
X58737766Y25901918D01*
X58604070Y25912793D01*
X58598964Y25913000D01*
X58061115Y25913000D01*
X58045876Y25908525D01*
X58044671Y25907135D01*
X58043000Y25899452D01*
X58043000Y24177115D01*
X57535000Y24177115D01*
X57535000Y25894884D01*
X57530525Y25910123D01*
X57529135Y25911328D01*
X57521452Y25912999D01*
X56979039Y25912999D01*
X56973929Y25912791D01*
X56840233Y25901918D01*
X56829680Y25900148D01*
X56622815Y25847033D01*
X56612269Y25843299D01*
X56418295Y25754490D01*
X56408588Y25748954D01*
X56233403Y25627197D01*
X56224824Y25620024D01*
X56073976Y25469176D01*
X56066803Y25460597D01*
X55945046Y25285412D01*
X55939510Y25275705D01*
X55850701Y25081731D01*
X55846967Y25071185D01*
X55793853Y24864321D01*
X55792082Y24853766D01*
X55781207Y24720070D01*
X55781000Y24714964D01*
X55781000Y24177115D01*
X44557500Y24177115D01*
X44557500Y24717542D01*
X44557135Y24722040D01*
X44548606Y24826886D01*
X44545978Y24859200D01*
X44542821Y24871498D01*
X44491505Y25071361D01*
X44491505Y25071362D01*
X44490110Y25076794D01*
X44396591Y25281055D01*
X44268380Y25465527D01*
X44109527Y25624380D01*
X43925055Y25752591D01*
X43720794Y25846110D01*
X43530830Y25894884D01*
X43508396Y25900644D01*
X43508395Y25900644D01*
X43503200Y25901978D01*
X43439797Y25907135D01*
X43364092Y25913293D01*
X43364082Y25913293D01*
X43361542Y25913500D01*
X41736458Y25913500D01*
X41733918Y25913293D01*
X41733908Y25913293D01*
X41658203Y25907135D01*
X41594800Y25901978D01*
X41589605Y25900644D01*
X41589604Y25900644D01*
X41567170Y25894884D01*
X41377206Y25846110D01*
X41172945Y25752591D01*
X40988473Y25624380D01*
X40829620Y25465527D01*
X40701409Y25281055D01*
X40607890Y25076794D01*
X40606495Y25071362D01*
X40606495Y25071361D01*
X40555180Y24871498D01*
X40552022Y24859200D01*
X40549394Y24826886D01*
X40540866Y24722040D01*
X40540500Y24717542D01*
X40540500Y23092458D01*
X38032642Y23092458D01*
X45652642Y30712458D01*
X55780500Y30712458D01*
X55780707Y30709918D01*
X55780707Y30709908D01*
X55786403Y30639888D01*
X55792022Y30570800D01*
X55793356Y30565605D01*
X55793356Y30565604D01*
X55842116Y30375695D01*
X55847890Y30353206D01*
X55941409Y30148945D01*
X55944609Y30144341D01*
X55944610Y30144339D01*
X55978454Y30095644D01*
X56069620Y29964473D01*
X56228473Y29805620D01*
X56412945Y29677409D01*
X56617206Y29583890D01*
X56834800Y29528022D01*
X56888705Y29523638D01*
X56973908Y29516707D01*
X56973918Y29516707D01*
X56976458Y29516500D01*
X58601542Y29516500D01*
X58604082Y29516707D01*
X58604092Y29516707D01*
X58689295Y29523638D01*
X58743200Y29528022D01*
X58960794Y29583890D01*
X59165055Y29677409D01*
X59349527Y29805620D01*
X59508380Y29964473D01*
X59599546Y30095644D01*
X59633390Y30144339D01*
X59633391Y30144341D01*
X59636591Y30148945D01*
X59730110Y30353206D01*
X59735884Y30375695D01*
X59784644Y30565604D01*
X59784644Y30565605D01*
X59785978Y30570800D01*
X59791597Y30639888D01*
X59797293Y30709908D01*
X59797293Y30709918D01*
X59797500Y30712458D01*
X59797500Y32337542D01*
X59797278Y32340278D01*
X59788210Y32451760D01*
X59785978Y32479200D01*
X59768071Y32548946D01*
X59731505Y32691361D01*
X59731505Y32691362D01*
X59730110Y32696794D01*
X59694304Y32775000D01*
X64461496Y32775000D01*
X64462186Y32768435D01*
X64470102Y32693123D01*
X64481458Y32585072D01*
X64540473Y32403444D01*
X64543776Y32397722D01*
X64543777Y32397721D01*
X64558037Y32373022D01*
X64635960Y32238056D01*
X64640378Y32233149D01*
X64640379Y32233148D01*
X64748212Y32113387D01*
X64763747Y32096134D01*
X64862843Y32024136D01*
X64890842Y32003794D01*
X64918248Y31983882D01*
X64924276Y31981198D01*
X64924278Y31981197D01*
X65050877Y31924832D01*
X65092712Y31906206D01*
X65186113Y31886353D01*
X65273056Y31867872D01*
X65273061Y31867872D01*
X65279513Y31866500D01*
X65470487Y31866500D01*
X65476939Y31867872D01*
X65476944Y31867872D01*
X65563887Y31886353D01*
X65657288Y31906206D01*
X65699123Y31924832D01*
X65825722Y31981197D01*
X65825724Y31981198D01*
X65831752Y31983882D01*
X65859159Y32003794D01*
X65979500Y32091228D01*
X65986253Y32096134D01*
X65990668Y32101037D01*
X65995580Y32105460D01*
X65996705Y32104211D01*
X66050014Y32137051D01*
X66083200Y32141500D01*
X73496233Y32141500D01*
X73507416Y32140973D01*
X73514909Y32139298D01*
X73522835Y32139547D01*
X73522836Y32139547D01*
X73582986Y32141438D01*
X73586945Y32141500D01*
X73614856Y32141500D01*
X73618791Y32141997D01*
X73618856Y32142005D01*
X73630693Y32142938D01*
X73662951Y32143952D01*
X73666970Y32144078D01*
X73674889Y32144327D01*
X73694343Y32149979D01*
X73713700Y32153987D01*
X73725930Y32155532D01*
X73725931Y32155532D01*
X73733797Y32156526D01*
X73741168Y32159445D01*
X73741170Y32159445D01*
X73774912Y32172804D01*
X73786142Y32176649D01*
X73820983Y32186771D01*
X73820984Y32186771D01*
X73828593Y32188982D01*
X73835412Y32193015D01*
X73835417Y32193017D01*
X73846028Y32199293D01*
X73863776Y32207988D01*
X73882617Y32215448D01*
X73918387Y32241436D01*
X73928307Y32247952D01*
X73959535Y32266420D01*
X73959538Y32266422D01*
X73966362Y32270458D01*
X73980683Y32284779D01*
X73995717Y32297620D01*
X74005694Y32304869D01*
X74012107Y32309528D01*
X74040298Y32343605D01*
X74048288Y32352384D01*
X76667247Y34971343D01*
X76675537Y34978887D01*
X76682018Y34983000D01*
X76728659Y35032668D01*
X76731413Y35035509D01*
X76751135Y35055231D01*
X76753612Y35058424D01*
X76761317Y35067445D01*
X76786159Y35093900D01*
X76791586Y35099679D01*
X76795407Y35106629D01*
X76801346Y35117432D01*
X76812202Y35133959D01*
X76819757Y35143698D01*
X76819758Y35143700D01*
X76824614Y35149960D01*
X76842174Y35190540D01*
X76847391Y35201188D01*
X76864875Y35232991D01*
X76864876Y35232993D01*
X76868695Y35239940D01*
X76873733Y35259563D01*
X76880137Y35278266D01*
X76885033Y35289580D01*
X76885033Y35289581D01*
X76888181Y35296855D01*
X76889420Y35304678D01*
X76889423Y35304688D01*
X76895099Y35340524D01*
X76897505Y35352144D01*
X76906528Y35387289D01*
X76906528Y35387290D01*
X76908500Y35394970D01*
X76908500Y35415224D01*
X76910051Y35434935D01*
X76911980Y35447115D01*
X76913220Y35454943D01*
X76912474Y35462834D01*
X76912599Y35466806D01*
X76934731Y35534265D01*
X76987287Y35577954D01*
X76989250Y35578828D01*
X77059617Y35588263D01*
X77123915Y35558157D01*
X77161728Y35498069D01*
X77166500Y35463722D01*
X77166500Y33714595D01*
X77146498Y33646474D01*
X77129595Y33625500D01*
X76649500Y33145405D01*
X76587188Y33111379D01*
X76560405Y33108500D01*
X76504513Y33108500D01*
X76498061Y33107128D01*
X76498056Y33107128D01*
X76415116Y33089498D01*
X76317712Y33068794D01*
X76311682Y33066109D01*
X76311681Y33066109D01*
X76149278Y32993803D01*
X76149276Y32993802D01*
X76143248Y32991118D01*
X76137907Y32987238D01*
X76137906Y32987237D01*
X76097207Y32957667D01*
X75988747Y32878866D01*
X75984326Y32873956D01*
X75984325Y32873955D01*
X75889315Y32768435D01*
X75860960Y32736944D01*
X75807015Y32643509D01*
X75773711Y32585824D01*
X75765473Y32571556D01*
X75706458Y32389928D01*
X75705768Y32383367D01*
X75705768Y32383365D01*
X75695177Y32282599D01*
X75686496Y32200000D01*
X75687186Y32193435D01*
X75702045Y32052063D01*
X75706458Y32010072D01*
X75765473Y31828444D01*
X75860960Y31663056D01*
X75865378Y31658149D01*
X75865379Y31658148D01*
X75926565Y31590194D01*
X75988747Y31521134D01*
X76143248Y31408882D01*
X76149276Y31406198D01*
X76149278Y31406197D01*
X76294535Y31341525D01*
X76317712Y31331206D01*
X76411112Y31311353D01*
X76498056Y31292872D01*
X76498061Y31292872D01*
X76504513Y31291500D01*
X76695487Y31291500D01*
X76701939Y31292872D01*
X76701944Y31292872D01*
X76788888Y31311353D01*
X76882288Y31331206D01*
X76905465Y31341525D01*
X77050722Y31406197D01*
X77050724Y31406198D01*
X77056752Y31408882D01*
X77211253Y31521134D01*
X77273435Y31590194D01*
X77334621Y31658148D01*
X77334622Y31658149D01*
X77339040Y31663056D01*
X77434527Y31828444D01*
X77493542Y32010072D01*
X77510907Y32175294D01*
X77537920Y32240950D01*
X77547122Y32251218D01*
X78192247Y32896343D01*
X78200537Y32903887D01*
X78207018Y32908000D01*
X78215578Y32917115D01*
X78253658Y32957667D01*
X78256413Y32960509D01*
X78276134Y32980230D01*
X78278612Y32983425D01*
X78286318Y32992447D01*
X78311158Y33018899D01*
X78316586Y33024679D01*
X78326346Y33042432D01*
X78337199Y33058955D01*
X78344753Y33068694D01*
X78349613Y33074959D01*
X78367176Y33115543D01*
X78372383Y33126173D01*
X78393695Y33164940D01*
X78395666Y33172617D01*
X78395668Y33172622D01*
X78398732Y33184558D01*
X78405138Y33203270D01*
X78408988Y33212165D01*
X78413181Y33221855D01*
X78414421Y33229683D01*
X78414423Y33229690D01*
X78420099Y33265524D01*
X78422505Y33277144D01*
X78431528Y33312289D01*
X78431528Y33312290D01*
X78433500Y33319970D01*
X78433500Y33340224D01*
X78435051Y33359935D01*
X78436980Y33372114D01*
X78438220Y33379943D01*
X78434059Y33423962D01*
X78433500Y33435819D01*
X78433500Y36721233D01*
X78434027Y36732416D01*
X78435702Y36739909D01*
X78433562Y36807986D01*
X78433500Y36811945D01*
X78433500Y36839856D01*
X78432995Y36843856D01*
X78432062Y36855699D01*
X78430922Y36891971D01*
X78430673Y36899890D01*
X78425022Y36919342D01*
X78421014Y36938694D01*
X78419467Y36950937D01*
X78418474Y36958797D01*
X78409944Y36980342D01*
X78402200Y36999903D01*
X78398355Y37011130D01*
X78394987Y37022721D01*
X78386018Y37053593D01*
X78375707Y37071028D01*
X78367012Y37088776D01*
X78359552Y37107617D01*
X78333564Y37143387D01*
X78327048Y37153307D01*
X78308580Y37184535D01*
X78308578Y37184538D01*
X78304542Y37191362D01*
X78290221Y37205683D01*
X78277380Y37220717D01*
X78270132Y37230693D01*
X78265472Y37237107D01*
X78231407Y37265288D01*
X78222626Y37273278D01*
X77703647Y37792258D01*
X77696113Y37800537D01*
X77692000Y37807018D01*
X77642348Y37853644D01*
X77639507Y37856398D01*
X77619770Y37876135D01*
X77616573Y37878615D01*
X77607551Y37886320D01*
X77581100Y37911159D01*
X77575321Y37916586D01*
X77568375Y37920405D01*
X77568372Y37920407D01*
X77557566Y37926348D01*
X77541047Y37937199D01*
X77535048Y37941852D01*
X77525041Y37949614D01*
X77517772Y37952759D01*
X77517768Y37952762D01*
X77484463Y37967174D01*
X77473813Y37972391D01*
X77435060Y37993695D01*
X77415437Y37998733D01*
X77396734Y38005137D01*
X77385420Y38010033D01*
X77385419Y38010033D01*
X77378145Y38013181D01*
X77370322Y38014420D01*
X77370312Y38014423D01*
X77334476Y38020099D01*
X77322856Y38022505D01*
X77287711Y38031528D01*
X77287710Y38031528D01*
X77280030Y38033500D01*
X77259776Y38033500D01*
X77240065Y38035051D01*
X77227886Y38036980D01*
X77220057Y38038220D01*
X77212165Y38037474D01*
X77176039Y38034059D01*
X77164181Y38033500D01*
X72908200Y38033500D01*
X72840079Y38053502D01*
X72820853Y38069843D01*
X72820580Y38069540D01*
X72815668Y38073963D01*
X72811253Y38078866D01*
X72777138Y38103652D01*
X72662094Y38187237D01*
X72662093Y38187238D01*
X72656752Y38191118D01*
X72650724Y38193802D01*
X72650722Y38193803D01*
X72488319Y38266109D01*
X72488318Y38266109D01*
X72482288Y38268794D01*
X72388887Y38288647D01*
X72301944Y38307128D01*
X72301939Y38307128D01*
X72295487Y38308500D01*
X72104513Y38308500D01*
X72098061Y38307128D01*
X72098056Y38307128D01*
X72011113Y38288647D01*
X71917712Y38268794D01*
X71911682Y38266109D01*
X71911681Y38266109D01*
X71749278Y38193803D01*
X71749276Y38193802D01*
X71743248Y38191118D01*
X71737907Y38187238D01*
X71737906Y38187237D01*
X71720377Y38174501D01*
X71588747Y38078866D01*
X71584326Y38073956D01*
X71584325Y38073955D01*
X71475203Y37952762D01*
X71460960Y37936944D01*
X71365473Y37771556D01*
X71306458Y37589928D01*
X71305768Y37583367D01*
X71305768Y37583365D01*
X71292414Y37456305D01*
X71286496Y37400000D01*
X71287186Y37393435D01*
X71304291Y37230693D01*
X71306458Y37210072D01*
X71365473Y37028444D01*
X71460960Y36863056D01*
X71465378Y36858149D01*
X71465379Y36858148D01*
X71510545Y36807986D01*
X71588747Y36721134D01*
X71743248Y36608882D01*
X71749276Y36606198D01*
X71749278Y36606197D01*
X71893450Y36542008D01*
X71917712Y36531206D01*
X72011112Y36511353D01*
X72098056Y36492872D01*
X72098061Y36492872D01*
X72104513Y36491500D01*
X72295487Y36491500D01*
X72301939Y36492872D01*
X72301944Y36492872D01*
X72388888Y36511353D01*
X72482288Y36531206D01*
X72506550Y36542008D01*
X72650722Y36606197D01*
X72650724Y36606198D01*
X72656752Y36608882D01*
X72811253Y36721134D01*
X72815668Y36726037D01*
X72820580Y36730460D01*
X72821705Y36729211D01*
X72875014Y36762051D01*
X72908200Y36766500D01*
X75590406Y36766500D01*
X75658527Y36746498D01*
X75705020Y36692842D01*
X75715124Y36622568D01*
X75710238Y36601562D01*
X75708498Y36596208D01*
X75708497Y36596203D01*
X75706458Y36589928D01*
X75705768Y36583367D01*
X75705768Y36583365D01*
X75701184Y36539753D01*
X75686496Y36400000D01*
X75687186Y36393435D01*
X75687186Y36393432D01*
X75689866Y36367931D01*
X75682149Y36311596D01*
X75681305Y36310060D01*
X75679334Y36302384D01*
X75679333Y36302381D01*
X75676267Y36290438D01*
X75669863Y36271734D01*
X75661819Y36253145D01*
X75660580Y36245322D01*
X75660577Y36245312D01*
X75654901Y36209476D01*
X75652495Y36197856D01*
X75647896Y36179943D01*
X75641500Y36155030D01*
X75641500Y36134776D01*
X75639949Y36115066D01*
X75636780Y36095057D01*
X75637526Y36087165D01*
X75640941Y36051039D01*
X75641500Y36039181D01*
X75641500Y35789594D01*
X75621498Y35721473D01*
X75604595Y35700499D01*
X73349500Y33445405D01*
X73287188Y33411379D01*
X73260405Y33408500D01*
X66083200Y33408500D01*
X66015079Y33428502D01*
X65995853Y33444843D01*
X65995580Y33444540D01*
X65990668Y33448963D01*
X65986253Y33453866D01*
X65891907Y33522413D01*
X65837094Y33562237D01*
X65837093Y33562238D01*
X65831752Y33566118D01*
X65825724Y33568802D01*
X65825722Y33568803D01*
X65663319Y33641109D01*
X65663318Y33641109D01*
X65657288Y33643794D01*
X65563888Y33663647D01*
X65476944Y33682128D01*
X65476939Y33682128D01*
X65470487Y33683500D01*
X65279513Y33683500D01*
X65273061Y33682128D01*
X65273056Y33682128D01*
X65186112Y33663647D01*
X65092712Y33643794D01*
X65086682Y33641109D01*
X65086681Y33641109D01*
X64924278Y33568803D01*
X64924276Y33568802D01*
X64918248Y33566118D01*
X64912907Y33562238D01*
X64912906Y33562237D01*
X64906477Y33557566D01*
X64763747Y33453866D01*
X64759326Y33448956D01*
X64759325Y33448955D01*
X64643187Y33319970D01*
X64635960Y33311944D01*
X64605841Y33259776D01*
X64554081Y33170125D01*
X64540473Y33146556D01*
X64481458Y32964928D01*
X64480768Y32958367D01*
X64480768Y32958365D01*
X64466029Y32818125D01*
X64461496Y32775000D01*
X59694304Y32775000D01*
X59636591Y32901055D01*
X59627040Y32914798D01*
X59596252Y32959095D01*
X59508380Y33085527D01*
X59349527Y33244380D01*
X59165055Y33372591D01*
X58960794Y33466110D01*
X58955361Y33467505D01*
X58748396Y33520644D01*
X58748395Y33520644D01*
X58743200Y33521978D01*
X58689295Y33526362D01*
X58604092Y33533293D01*
X58604082Y33533293D01*
X58601542Y33533500D01*
X56976458Y33533500D01*
X56973918Y33533293D01*
X56973908Y33533293D01*
X56888705Y33526362D01*
X56834800Y33521978D01*
X56829605Y33520644D01*
X56829604Y33520644D01*
X56622639Y33467505D01*
X56617206Y33466110D01*
X56412945Y33372591D01*
X56228473Y33244380D01*
X56069620Y33085527D01*
X55981748Y32959095D01*
X55950961Y32914798D01*
X55941409Y32901055D01*
X55847890Y32696794D01*
X55846495Y32691362D01*
X55846495Y32691361D01*
X55809930Y32548946D01*
X55792022Y32479200D01*
X55789790Y32451760D01*
X55780723Y32340278D01*
X55780500Y32337542D01*
X55780500Y30712458D01*
X45652642Y30712458D01*
X46992247Y32052063D01*
X47000537Y32059607D01*
X47007018Y32063720D01*
X47053659Y32113388D01*
X47056413Y32116229D01*
X47076134Y32135950D01*
X47078612Y32139145D01*
X47086318Y32148167D01*
X47111158Y32174619D01*
X47116586Y32180399D01*
X47126346Y32198152D01*
X47137199Y32214675D01*
X47144753Y32224414D01*
X47149613Y32230679D01*
X47167176Y32271263D01*
X47172383Y32281893D01*
X47193695Y32320660D01*
X47195666Y32328337D01*
X47195668Y32328342D01*
X47198732Y32340278D01*
X47205138Y32358990D01*
X47205963Y32360895D01*
X47213181Y32377575D01*
X47217279Y32403444D01*
X47220097Y32421239D01*
X47222504Y32432860D01*
X47231528Y32468009D01*
X47231528Y32468010D01*
X47233500Y32475690D01*
X47233500Y32495951D01*
X47235051Y32515662D01*
X47236979Y32527835D01*
X47238219Y32535663D01*
X47234059Y32579674D01*
X47233500Y32591531D01*
X47233500Y36135529D01*
X48300884Y36135529D01*
X48304570Y36130260D01*
X48512121Y36003073D01*
X48520915Y35998592D01*
X48749242Y35904016D01*
X48758627Y35900967D01*
X48998940Y35843272D01*
X49008687Y35841729D01*
X49255070Y35822338D01*
X49264930Y35822338D01*
X49511313Y35841729D01*
X49521060Y35843272D01*
X49761373Y35900967D01*
X49770758Y35904016D01*
X49999085Y35998592D01*
X50007879Y36003073D01*
X50213928Y36129340D01*
X50217968Y36135529D01*
X53380884Y36135529D01*
X53384570Y36130260D01*
X53592121Y36003073D01*
X53600915Y35998592D01*
X53829242Y35904016D01*
X53838627Y35900967D01*
X54078940Y35843272D01*
X54088687Y35841729D01*
X54335070Y35822338D01*
X54344930Y35822338D01*
X54591313Y35841729D01*
X54601060Y35843272D01*
X54841373Y35900967D01*
X54850753Y35904015D01*
X54909090Y35928179D01*
X54979680Y35935768D01*
X55043167Y35903989D01*
X55079395Y35842931D01*
X55076861Y35771980D01*
X55031371Y35709835D01*
X54994093Y35682751D01*
X54994088Y35682746D01*
X54988747Y35678866D01*
X54984326Y35673956D01*
X54984325Y35673955D01*
X54897886Y35577954D01*
X54860960Y35536944D01*
X54765473Y35371556D01*
X54706458Y35189928D01*
X54705768Y35183367D01*
X54705768Y35183365D01*
X54689308Y35026759D01*
X54686496Y35000000D01*
X54687186Y34993435D01*
X54699112Y34879969D01*
X54706458Y34810072D01*
X54765473Y34628444D01*
X54860960Y34463056D01*
X54988747Y34321134D01*
X55143248Y34208882D01*
X55149276Y34206198D01*
X55149278Y34206197D01*
X55311681Y34133891D01*
X55317712Y34131206D01*
X55411112Y34111353D01*
X55498056Y34092872D01*
X55498061Y34092872D01*
X55504513Y34091500D01*
X55695487Y34091500D01*
X55701939Y34092872D01*
X55701944Y34092872D01*
X55788888Y34111353D01*
X55882288Y34131206D01*
X55888319Y34133891D01*
X56050722Y34206197D01*
X56050724Y34206198D01*
X56056752Y34208882D01*
X56211253Y34321134D01*
X56339040Y34463056D01*
X56434527Y34628444D01*
X56493542Y34810072D01*
X56510907Y34975294D01*
X56537920Y35040950D01*
X56547122Y35051218D01*
X57192247Y35696343D01*
X57200537Y35703887D01*
X57207018Y35708000D01*
X57253659Y35757668D01*
X57256413Y35760509D01*
X57276134Y35780230D01*
X57278612Y35783425D01*
X57286318Y35792447D01*
X57311158Y35818899D01*
X57316586Y35824679D01*
X57326346Y35842432D01*
X57337199Y35858955D01*
X57344753Y35868694D01*
X57349613Y35874959D01*
X57367176Y35915543D01*
X57372383Y35926173D01*
X57393695Y35964940D01*
X57395666Y35972617D01*
X57395668Y35972622D01*
X57398732Y35984558D01*
X57405138Y36003270D01*
X57410033Y36014581D01*
X57413181Y36021855D01*
X57414421Y36029683D01*
X57414423Y36029690D01*
X57420099Y36065524D01*
X57422505Y36077144D01*
X57431528Y36112289D01*
X57431528Y36112290D01*
X57433500Y36119970D01*
X57433500Y36140224D01*
X57435051Y36159935D01*
X57436980Y36172114D01*
X57438220Y36179943D01*
X57434059Y36223962D01*
X57433500Y36235819D01*
X57433500Y36532601D01*
X59199712Y36532601D01*
X59221194Y36443463D01*
X59225083Y36432168D01*
X59307629Y36250618D01*
X59313576Y36240276D01*
X59428968Y36077603D01*
X59436761Y36068575D01*
X59580831Y35930658D01*
X59590196Y35923262D01*
X59757741Y35815079D01*
X59768345Y35809583D01*
X59953312Y35735039D01*
X59964770Y35731645D01*
X60161928Y35693143D01*
X60170791Y35692066D01*
X60173500Y35692000D01*
X60277885Y35692000D01*
X60293124Y35696475D01*
X60294329Y35697865D01*
X60296000Y35705548D01*
X60296000Y35710115D01*
X60804000Y35710115D01*
X60808475Y35694876D01*
X60809865Y35693671D01*
X60817548Y35692000D01*
X60874832Y35692000D01*
X60880808Y35692285D01*
X61029494Y35706471D01*
X61041228Y35708730D01*
X61232599Y35764872D01*
X61243675Y35769302D01*
X61420978Y35860619D01*
X61431024Y35867069D01*
X61587857Y35990262D01*
X61596506Y35998499D01*
X61727212Y36149123D01*
X61734147Y36158847D01*
X61834010Y36331467D01*
X61838984Y36342331D01*
X61904407Y36530727D01*
X61904648Y36531716D01*
X61903180Y36542008D01*
X61889615Y36546000D01*
X60822115Y36546000D01*
X60806876Y36541525D01*
X60805671Y36540135D01*
X60804000Y36532452D01*
X60804000Y35710115D01*
X60296000Y35710115D01*
X60296000Y36527885D01*
X60291525Y36543124D01*
X60290135Y36544329D01*
X60282452Y36546000D01*
X59214598Y36546000D01*
X59201067Y36542027D01*
X59199712Y36532601D01*
X57433500Y36532601D01*
X57433500Y38697476D01*
X57453502Y38765597D01*
X57465858Y38781779D01*
X57531243Y38854396D01*
X59162787Y38854396D01*
X59172567Y38643101D01*
X59173971Y38637276D01*
X59173971Y38637275D01*
X59219139Y38449858D01*
X59222125Y38437466D01*
X59224607Y38432008D01*
X59224608Y38432004D01*
X59268053Y38336454D01*
X59309674Y38244913D01*
X59384845Y38138941D01*
X59427460Y38078866D01*
X59432054Y38072389D01*
X59584850Y37926119D01*
X59589881Y37922870D01*
X59589888Y37922865D01*
X59617607Y37904967D01*
X59663984Y37851211D01*
X59673937Y37780915D01*
X59644304Y37716398D01*
X59627091Y37700030D01*
X59512143Y37609738D01*
X59503494Y37601501D01*
X59372788Y37450877D01*
X59365853Y37441153D01*
X59265990Y37268533D01*
X59261016Y37257669D01*
X59195593Y37069273D01*
X59195352Y37068284D01*
X59196820Y37057992D01*
X59210385Y37054000D01*
X61885402Y37054000D01*
X61898933Y37057973D01*
X61900288Y37067399D01*
X61878806Y37156537D01*
X61874917Y37167832D01*
X61792371Y37349382D01*
X61786424Y37359724D01*
X61671032Y37522397D01*
X61663239Y37531425D01*
X61519169Y37669342D01*
X61509800Y37676741D01*
X61482423Y37694418D01*
X61436045Y37748172D01*
X61426091Y37818468D01*
X61455722Y37882985D01*
X61472937Y37899356D01*
X61588202Y37989898D01*
X61592920Y37993604D01*
X61596852Y37998135D01*
X61596855Y37998138D01*
X61727621Y38148833D01*
X61731552Y38153363D01*
X61734552Y38158549D01*
X61734555Y38158553D01*
X61834467Y38331258D01*
X61837473Y38336454D01*
X61906861Y38536271D01*
X61907722Y38542208D01*
X61936352Y38739664D01*
X61936352Y38739667D01*
X61937213Y38745604D01*
X61927433Y38956899D01*
X61892321Y39102593D01*
X61880940Y39149817D01*
X61884425Y39220728D01*
X61914338Y39268433D01*
X62992253Y40346348D01*
X63000539Y40353888D01*
X63007018Y40358000D01*
X63053644Y40407652D01*
X63056398Y40410493D01*
X63076135Y40430230D01*
X63078615Y40433427D01*
X63086320Y40442449D01*
X63087118Y40443299D01*
X63116586Y40474679D01*
X63120405Y40481625D01*
X63120407Y40481628D01*
X63126348Y40492434D01*
X63137199Y40508953D01*
X63144758Y40518699D01*
X63149614Y40524959D01*
X63152759Y40532228D01*
X63152762Y40532232D01*
X63167174Y40565537D01*
X63172391Y40576187D01*
X63193695Y40614940D01*
X63198733Y40634563D01*
X63205137Y40653266D01*
X63210033Y40664580D01*
X63210033Y40664581D01*
X63213181Y40671855D01*
X63214420Y40679678D01*
X63214423Y40679688D01*
X63220099Y40715524D01*
X63222505Y40727144D01*
X63231528Y40762289D01*
X63231528Y40762290D01*
X63233500Y40769970D01*
X63233500Y40790224D01*
X63235051Y40809935D01*
X63236980Y40822114D01*
X63238220Y40829943D01*
X63234059Y40873962D01*
X63233500Y40885819D01*
X63233500Y42497476D01*
X63253502Y42565597D01*
X63265858Y42581779D01*
X63339040Y42663056D01*
X63434527Y42828444D01*
X63493542Y43010072D01*
X63507510Y43142965D01*
X63512814Y43193435D01*
X63513504Y43200000D01*
X63503202Y43298022D01*
X63494232Y43383365D01*
X63494232Y43383367D01*
X63493542Y43389928D01*
X63434527Y43571556D01*
X63339040Y43736944D01*
X63248325Y43837694D01*
X63215675Y43873955D01*
X63215674Y43873956D01*
X63211253Y43878866D01*
X63056752Y43991118D01*
X63050724Y43993802D01*
X63050722Y43993803D01*
X62888319Y44066109D01*
X62888318Y44066109D01*
X62882288Y44068794D01*
X62788888Y44088647D01*
X62701944Y44107128D01*
X62701939Y44107128D01*
X62695487Y44108500D01*
X62504513Y44108500D01*
X62498061Y44107128D01*
X62498056Y44107128D01*
X62411112Y44088647D01*
X62317712Y44068794D01*
X62311682Y44066109D01*
X62311681Y44066109D01*
X62149278Y43993803D01*
X62149276Y43993802D01*
X62143248Y43991118D01*
X61988747Y43878866D01*
X61984326Y43873956D01*
X61984325Y43873955D01*
X61952199Y43838275D01*
X61860960Y43736944D01*
X61860599Y43737269D01*
X61807675Y43696461D01*
X61736938Y43690387D01*
X61672945Y43724706D01*
X61653487Y43744131D01*
X61653482Y43744135D01*
X61648303Y43749305D01*
X61642072Y43753146D01*
X61503968Y43838275D01*
X61503966Y43838276D01*
X61497738Y43842115D01*
X61386937Y43878866D01*
X61336389Y43895632D01*
X61336387Y43895632D01*
X61329861Y43897797D01*
X61323025Y43898497D01*
X61323022Y43898498D01*
X61279969Y43902909D01*
X61225400Y43908500D01*
X59874600Y43908500D01*
X59871354Y43908163D01*
X59871350Y43908163D01*
X59775692Y43898238D01*
X59775688Y43898237D01*
X59768834Y43897526D01*
X59762298Y43895345D01*
X59762296Y43895345D01*
X59712903Y43878866D01*
X59601054Y43841550D01*
X59450652Y43748478D01*
X59445479Y43743296D01*
X59439138Y43736944D01*
X59325695Y43623303D01*
X59321855Y43617073D01*
X59321854Y43617072D01*
X59245488Y43493183D01*
X59232885Y43472738D01*
X59177203Y43304861D01*
X59166500Y43200400D01*
X59166500Y42399600D01*
X59177474Y42293834D01*
X59233450Y42126054D01*
X59326522Y41975652D01*
X59451697Y41850695D01*
X59457927Y41846855D01*
X59457928Y41846854D01*
X59467015Y41841253D01*
X59489153Y41827607D01*
X59503236Y41818926D01*
X59550729Y41766154D01*
X59562153Y41696082D01*
X59533879Y41630958D01*
X59514955Y41612582D01*
X59507080Y41606396D01*
X59503150Y41601867D01*
X59503145Y41601862D01*
X59416783Y41502338D01*
X59368448Y41446637D01*
X59365448Y41441451D01*
X59365445Y41441447D01*
X59309509Y41344758D01*
X59262527Y41263546D01*
X59193139Y41063729D01*
X59192278Y41057794D01*
X59192278Y41057792D01*
X59172774Y40923272D01*
X59162787Y40854396D01*
X59172567Y40643101D01*
X59173971Y40637276D01*
X59173971Y40637275D01*
X59213157Y40474679D01*
X59222125Y40437466D01*
X59224607Y40432008D01*
X59224608Y40432004D01*
X59268053Y40336454D01*
X59309674Y40244913D01*
X59379485Y40146498D01*
X59428585Y40077280D01*
X59432054Y40072389D01*
X59584850Y39926119D01*
X59589888Y39922866D01*
X59617163Y39905254D01*
X59663540Y39851499D01*
X59673493Y39781203D01*
X59643861Y39716686D01*
X59626649Y39700319D01*
X59507080Y39606396D01*
X59503150Y39601867D01*
X59503145Y39601862D01*
X59425418Y39512289D01*
X59368448Y39446637D01*
X59365448Y39441451D01*
X59365445Y39441447D01*
X59288580Y39308580D01*
X59262527Y39263546D01*
X59193139Y39063729D01*
X59192278Y39057794D01*
X59192278Y39057792D01*
X59164043Y38863056D01*
X59162787Y38854396D01*
X57531243Y38854396D01*
X57539040Y38863056D01*
X57626146Y39013928D01*
X57631223Y39022721D01*
X57631224Y39022722D01*
X57634527Y39028444D01*
X57693542Y39210072D01*
X57694861Y39222616D01*
X57712814Y39393435D01*
X57713504Y39400000D01*
X57700092Y39527611D01*
X57694232Y39583365D01*
X57694232Y39583367D01*
X57693542Y39589928D01*
X57634527Y39771556D01*
X57539040Y39936944D01*
X57520675Y39957341D01*
X57415675Y40073955D01*
X57415674Y40073956D01*
X57411253Y40078866D01*
X57256752Y40191118D01*
X57250724Y40193802D01*
X57250722Y40193803D01*
X57088319Y40266109D01*
X57088318Y40266109D01*
X57082288Y40268794D01*
X56988229Y40288787D01*
X56901944Y40307128D01*
X56901939Y40307128D01*
X56895487Y40308500D01*
X56704513Y40308500D01*
X56698061Y40307128D01*
X56698056Y40307128D01*
X56611771Y40288787D01*
X56517712Y40268794D01*
X56511682Y40266109D01*
X56511681Y40266109D01*
X56349278Y40193803D01*
X56349276Y40193802D01*
X56343248Y40191118D01*
X56188747Y40078866D01*
X56184326Y40073956D01*
X56184325Y40073955D01*
X56079326Y39957341D01*
X56060960Y39936944D01*
X55965473Y39771556D01*
X55906458Y39589928D01*
X55905768Y39583367D01*
X55905768Y39583365D01*
X55899908Y39527611D01*
X55886496Y39400000D01*
X55887186Y39393435D01*
X55905140Y39222616D01*
X55906458Y39210072D01*
X55965473Y39028444D01*
X55968776Y39022722D01*
X55968777Y39022721D01*
X55973854Y39013928D01*
X56060960Y38863056D01*
X56134137Y38781785D01*
X56164853Y38717779D01*
X56166500Y38697476D01*
X56166500Y37911864D01*
X56146498Y37843743D01*
X56092842Y37797250D01*
X56022568Y37787146D01*
X55957988Y37816640D01*
X55917981Y37882450D01*
X55899033Y37961373D01*
X55895984Y37970758D01*
X55801408Y38199085D01*
X55796927Y38207879D01*
X55670660Y38413928D01*
X55662599Y38419190D01*
X55652393Y38413183D01*
X54712022Y37472812D01*
X54704408Y37458868D01*
X54704539Y37457035D01*
X54708790Y37450420D01*
X55650934Y36508276D01*
X55664471Y36500884D01*
X55669740Y36504570D01*
X55796927Y36712121D01*
X55801408Y36720915D01*
X55895984Y36949242D01*
X55899033Y36958627D01*
X55917981Y37037550D01*
X55953333Y37099119D01*
X56016360Y37131802D01*
X56087051Y37125221D01*
X56142962Y37081467D01*
X56166500Y37008136D01*
X56166500Y36514595D01*
X56146498Y36446474D01*
X56129595Y36425500D01*
X55649500Y35945405D01*
X55587188Y35911379D01*
X55560405Y35908500D01*
X55504513Y35908500D01*
X55498061Y35907128D01*
X55498056Y35907128D01*
X55347585Y35875144D01*
X55276794Y35880546D01*
X55220161Y35923363D01*
X55195668Y35990001D01*
X55211089Y36059302D01*
X55255554Y36105824D01*
X55293928Y36129339D01*
X55299190Y36137401D01*
X55293183Y36147607D01*
X54352812Y37087978D01*
X54338868Y37095592D01*
X54337035Y37095461D01*
X54330420Y37091210D01*
X53388276Y36149066D01*
X53380884Y36135529D01*
X50217968Y36135529D01*
X50219190Y36137401D01*
X50213183Y36147607D01*
X49272812Y37087978D01*
X49258868Y37095592D01*
X49257035Y37095461D01*
X49250420Y37091210D01*
X48308276Y36149066D01*
X48300884Y36135529D01*
X47233500Y36135529D01*
X47233500Y37455070D01*
X47622338Y37455070D01*
X47641729Y37208687D01*
X47643272Y37198940D01*
X47700967Y36958627D01*
X47704016Y36949242D01*
X47798592Y36720915D01*
X47803073Y36712121D01*
X47929340Y36506072D01*
X47937401Y36500810D01*
X47947607Y36506817D01*
X48887978Y37447188D01*
X48894356Y37458868D01*
X49624408Y37458868D01*
X49624539Y37457035D01*
X49628790Y37450420D01*
X50570934Y36508276D01*
X50584471Y36500884D01*
X50589740Y36504570D01*
X50716927Y36712121D01*
X50721408Y36720915D01*
X50815984Y36949242D01*
X50819033Y36958627D01*
X50876728Y37198940D01*
X50878271Y37208687D01*
X50897662Y37455070D01*
X52702338Y37455070D01*
X52721729Y37208687D01*
X52723272Y37198940D01*
X52780967Y36958627D01*
X52784016Y36949242D01*
X52878592Y36720915D01*
X52883073Y36712121D01*
X53009340Y36506072D01*
X53017401Y36500810D01*
X53027607Y36506817D01*
X53967978Y37447188D01*
X53975592Y37461132D01*
X53975461Y37462965D01*
X53971210Y37469580D01*
X53029066Y38411724D01*
X53015529Y38419116D01*
X53010260Y38415430D01*
X52883073Y38207879D01*
X52878592Y38199085D01*
X52784016Y37970758D01*
X52780967Y37961373D01*
X52723272Y37721060D01*
X52721729Y37711313D01*
X52702338Y37464930D01*
X52702338Y37455070D01*
X50897662Y37455070D01*
X50897662Y37464930D01*
X50878271Y37711313D01*
X50876728Y37721060D01*
X50819033Y37961373D01*
X50815984Y37970758D01*
X50721408Y38199085D01*
X50716927Y38207879D01*
X50590660Y38413928D01*
X50582599Y38419190D01*
X50572393Y38413183D01*
X49632022Y37472812D01*
X49624408Y37458868D01*
X48894356Y37458868D01*
X48895592Y37461132D01*
X48895461Y37462965D01*
X48891210Y37469580D01*
X47949066Y38411724D01*
X47935529Y38419116D01*
X47930260Y38415430D01*
X47803073Y38207879D01*
X47798592Y38199085D01*
X47704016Y37970758D01*
X47700967Y37961373D01*
X47643272Y37721060D01*
X47641729Y37711313D01*
X47622338Y37464930D01*
X47622338Y37455070D01*
X47233500Y37455070D01*
X47233500Y38782599D01*
X48300810Y38782599D01*
X48306817Y38772393D01*
X49247188Y37832022D01*
X49261132Y37824408D01*
X49262965Y37824539D01*
X49269580Y37828790D01*
X50211724Y38770934D01*
X50219116Y38784471D01*
X50215430Y38789740D01*
X50007879Y38916927D01*
X49999085Y38921408D01*
X49770758Y39015984D01*
X49761373Y39019033D01*
X49521060Y39076728D01*
X49511313Y39078271D01*
X49264930Y39097662D01*
X49255070Y39097662D01*
X49008687Y39078271D01*
X48998940Y39076728D01*
X48758627Y39019033D01*
X48749242Y39015984D01*
X48520915Y38921408D01*
X48512121Y38916927D01*
X48306072Y38790660D01*
X48300810Y38782599D01*
X47233500Y38782599D01*
X47233500Y39921233D01*
X47234027Y39932416D01*
X47235702Y39939909D01*
X47233813Y40000000D01*
X50261758Y40000000D01*
X50280696Y39759366D01*
X50281850Y39754559D01*
X50281851Y39754553D01*
X50295510Y39697662D01*
X50337045Y39524657D01*
X50338938Y39520086D01*
X50338939Y39520084D01*
X50426549Y39308575D01*
X50429416Y39301653D01*
X50555536Y39095844D01*
X50712299Y38912299D01*
X50716055Y38909091D01*
X50722423Y38903652D01*
X50895844Y38755536D01*
X51101653Y38629416D01*
X51106223Y38627523D01*
X51106227Y38627521D01*
X51312192Y38542208D01*
X51324657Y38537045D01*
X51383758Y38522856D01*
X51554553Y38481851D01*
X51554559Y38481850D01*
X51559366Y38480696D01*
X51800000Y38461758D01*
X52040634Y38480696D01*
X52045441Y38481850D01*
X52045447Y38481851D01*
X52216242Y38522856D01*
X52275343Y38537045D01*
X52287808Y38542208D01*
X52493773Y38627521D01*
X52493777Y38627523D01*
X52498347Y38629416D01*
X52704156Y38755536D01*
X52735843Y38782599D01*
X53380810Y38782599D01*
X53386817Y38772393D01*
X54327188Y37832022D01*
X54341132Y37824408D01*
X54342965Y37824539D01*
X54349580Y37828790D01*
X55291724Y38770934D01*
X55299116Y38784471D01*
X55295430Y38789740D01*
X55087879Y38916927D01*
X55079085Y38921408D01*
X54850758Y39015984D01*
X54841373Y39019033D01*
X54601060Y39076728D01*
X54591313Y39078271D01*
X54344930Y39097662D01*
X54335070Y39097662D01*
X54088687Y39078271D01*
X54078940Y39076728D01*
X53838627Y39019033D01*
X53829242Y39015984D01*
X53600915Y38921408D01*
X53592121Y38916927D01*
X53386072Y38790660D01*
X53380810Y38782599D01*
X52735843Y38782599D01*
X52877577Y38903652D01*
X52883945Y38909091D01*
X52887701Y38912299D01*
X53044464Y39095844D01*
X53170584Y39301653D01*
X53173452Y39308575D01*
X53261061Y39520084D01*
X53261062Y39520086D01*
X53262955Y39524657D01*
X53304490Y39697662D01*
X53318149Y39754553D01*
X53318150Y39754559D01*
X53319304Y39759366D01*
X53338242Y40000000D01*
X53319304Y40240634D01*
X53318150Y40245441D01*
X53318149Y40245447D01*
X53279679Y40405683D01*
X53262955Y40475343D01*
X53252279Y40501117D01*
X53172479Y40693773D01*
X53172477Y40693777D01*
X53170584Y40698347D01*
X53044464Y40904156D01*
X52887701Y41087701D01*
X52738034Y41215529D01*
X53380884Y41215529D01*
X53384570Y41210260D01*
X53592121Y41083073D01*
X53600915Y41078592D01*
X53829242Y40984016D01*
X53838627Y40980967D01*
X54078940Y40923272D01*
X54088687Y40921729D01*
X54335070Y40902338D01*
X54344930Y40902338D01*
X54591313Y40921729D01*
X54601060Y40923272D01*
X54841373Y40980967D01*
X54850758Y40984016D01*
X55079085Y41078592D01*
X55087879Y41083073D01*
X55293928Y41209340D01*
X55299190Y41217401D01*
X55293183Y41227607D01*
X54352812Y42167978D01*
X54338868Y42175592D01*
X54337035Y42175461D01*
X54330420Y42171210D01*
X53388276Y41229066D01*
X53380884Y41215529D01*
X52738034Y41215529D01*
X52704156Y41244464D01*
X52506485Y41365597D01*
X52502567Y41367998D01*
X52498347Y41370584D01*
X52493777Y41372477D01*
X52493773Y41372479D01*
X52279916Y41461061D01*
X52279914Y41461062D01*
X52275343Y41462955D01*
X52192961Y41482733D01*
X52045447Y41518149D01*
X52045441Y41518150D01*
X52040634Y41519304D01*
X51800000Y41538242D01*
X51559366Y41519304D01*
X51554559Y41518150D01*
X51554553Y41518149D01*
X51407039Y41482733D01*
X51324657Y41462955D01*
X51320086Y41461062D01*
X51320084Y41461061D01*
X51106227Y41372479D01*
X51106223Y41372477D01*
X51101653Y41370584D01*
X51097433Y41367998D01*
X51093515Y41365597D01*
X50895844Y41244464D01*
X50712299Y41087701D01*
X50555536Y40904156D01*
X50429416Y40698347D01*
X50427523Y40693777D01*
X50427521Y40693773D01*
X50347721Y40501117D01*
X50337045Y40475343D01*
X50320321Y40405683D01*
X50281851Y40245447D01*
X50281850Y40245441D01*
X50280696Y40240634D01*
X50261758Y40000000D01*
X47233813Y40000000D01*
X47233562Y40008000D01*
X47233500Y40011957D01*
X47233500Y40039856D01*
X47232996Y40043847D01*
X47232063Y40055689D01*
X47231669Y40068247D01*
X47230674Y40099889D01*
X47228462Y40107503D01*
X47228461Y40107508D01*
X47225023Y40119341D01*
X47221012Y40138705D01*
X47219467Y40150936D01*
X47218474Y40158797D01*
X47215557Y40166164D01*
X47215556Y40166169D01*
X47202198Y40199908D01*
X47198354Y40211135D01*
X47196232Y40218439D01*
X47186018Y40253593D01*
X47175707Y40271028D01*
X47167012Y40288776D01*
X47159552Y40307617D01*
X47133564Y40343387D01*
X47127048Y40353307D01*
X47108580Y40384535D01*
X47108578Y40384538D01*
X47104542Y40391362D01*
X47090221Y40405683D01*
X47077380Y40420717D01*
X47065472Y40437107D01*
X47059367Y40442158D01*
X47059362Y40442163D01*
X47031396Y40465299D01*
X47022618Y40473287D01*
X46303652Y41192253D01*
X46296112Y41200539D01*
X46292000Y41207018D01*
X46282937Y41215529D01*
X48300884Y41215529D01*
X48304570Y41210260D01*
X48512121Y41083073D01*
X48520915Y41078592D01*
X48749242Y40984016D01*
X48758627Y40980967D01*
X48998940Y40923272D01*
X49008687Y40921729D01*
X49255070Y40902338D01*
X49264930Y40902338D01*
X49511313Y40921729D01*
X49521060Y40923272D01*
X49761373Y40980967D01*
X49770758Y40984016D01*
X49999085Y41078592D01*
X50007879Y41083073D01*
X50213928Y41209340D01*
X50219190Y41217401D01*
X50213183Y41227607D01*
X49272812Y42167978D01*
X49258868Y42175592D01*
X49257035Y42175461D01*
X49250420Y42171210D01*
X48308276Y41229066D01*
X48300884Y41215529D01*
X46282937Y41215529D01*
X46242348Y41253644D01*
X46239507Y41256398D01*
X46219770Y41276135D01*
X46216573Y41278615D01*
X46207551Y41286320D01*
X46203397Y41290221D01*
X46175321Y41316586D01*
X46168375Y41320405D01*
X46168372Y41320407D01*
X46157566Y41326348D01*
X46141047Y41337199D01*
X46140583Y41337559D01*
X46125041Y41349614D01*
X46117772Y41352759D01*
X46117768Y41352762D01*
X46084463Y41367174D01*
X46073813Y41372391D01*
X46035060Y41393695D01*
X46015437Y41398733D01*
X45996734Y41405137D01*
X45994364Y41406163D01*
X45984208Y41410557D01*
X45984207Y41410558D01*
X45978145Y41413181D01*
X45978568Y41414159D01*
X45924867Y41448453D01*
X45917085Y41458338D01*
X45915154Y41461061D01*
X45873563Y41519692D01*
X45871412Y41522725D01*
X45871411Y41522726D01*
X45867946Y41527611D01*
X45863619Y41531753D01*
X45863614Y41531759D01*
X45772683Y41618806D01*
X45737306Y41680361D01*
X45740825Y41751270D01*
X45782121Y41809021D01*
X45793504Y41816965D01*
X45849348Y41851522D01*
X45974305Y41976697D01*
X45981123Y41987758D01*
X46063275Y42121032D01*
X46063276Y42121034D01*
X46067115Y42127262D01*
X46122797Y42295139D01*
X46133500Y42399600D01*
X46133500Y42535070D01*
X47622338Y42535070D01*
X47641729Y42288687D01*
X47643272Y42278940D01*
X47700967Y42038627D01*
X47704016Y42029242D01*
X47798592Y41800915D01*
X47803073Y41792121D01*
X47929340Y41586072D01*
X47937401Y41580810D01*
X47947607Y41586817D01*
X48887978Y42527188D01*
X48894356Y42538868D01*
X49624408Y42538868D01*
X49624539Y42537035D01*
X49628790Y42530420D01*
X50570934Y41588276D01*
X50584471Y41580884D01*
X50589740Y41584570D01*
X50716927Y41792121D01*
X50721408Y41800915D01*
X50815984Y42029242D01*
X50819033Y42038627D01*
X50876728Y42278940D01*
X50878271Y42288687D01*
X50897662Y42535070D01*
X52702338Y42535070D01*
X52721729Y42288687D01*
X52723272Y42278940D01*
X52780967Y42038627D01*
X52784016Y42029242D01*
X52878592Y41800915D01*
X52883073Y41792121D01*
X53009340Y41586072D01*
X53017401Y41580810D01*
X53027607Y41586817D01*
X53967978Y42527188D01*
X53974356Y42538868D01*
X54704408Y42538868D01*
X54704539Y42537035D01*
X54708790Y42530420D01*
X55650934Y41588276D01*
X55664471Y41580884D01*
X55669740Y41584570D01*
X55796927Y41792121D01*
X55801408Y41800915D01*
X55895984Y42029242D01*
X55899033Y42038627D01*
X55956728Y42278940D01*
X55958271Y42288687D01*
X55977662Y42535070D01*
X55977662Y42544930D01*
X55958271Y42791313D01*
X55956728Y42801060D01*
X55899033Y43041373D01*
X55895984Y43050758D01*
X55801408Y43279085D01*
X55796927Y43287879D01*
X55670660Y43493928D01*
X55662599Y43499190D01*
X55652393Y43493183D01*
X54712022Y42552812D01*
X54704408Y42538868D01*
X53974356Y42538868D01*
X53975592Y42541132D01*
X53975461Y42542965D01*
X53971210Y42549580D01*
X53029066Y43491724D01*
X53015529Y43499116D01*
X53010260Y43495430D01*
X52883073Y43287879D01*
X52878592Y43279085D01*
X52784016Y43050758D01*
X52780967Y43041373D01*
X52723272Y42801060D01*
X52721729Y42791313D01*
X52702338Y42544930D01*
X52702338Y42535070D01*
X50897662Y42535070D01*
X50897662Y42544930D01*
X50878271Y42791313D01*
X50876728Y42801060D01*
X50819033Y43041373D01*
X50815984Y43050758D01*
X50721408Y43279085D01*
X50716927Y43287879D01*
X50590660Y43493928D01*
X50582599Y43499190D01*
X50572393Y43493183D01*
X49632022Y42552812D01*
X49624408Y42538868D01*
X48894356Y42538868D01*
X48895592Y42541132D01*
X48895461Y42542965D01*
X48891210Y42549580D01*
X47949066Y43491724D01*
X47935529Y43499116D01*
X47930260Y43495430D01*
X47803073Y43287879D01*
X47798592Y43279085D01*
X47704016Y43050758D01*
X47700967Y43041373D01*
X47643272Y42801060D01*
X47641729Y42791313D01*
X47622338Y42544930D01*
X47622338Y42535070D01*
X46133500Y42535070D01*
X46133500Y43200400D01*
X46133163Y43203650D01*
X46123238Y43299308D01*
X46123237Y43299312D01*
X46122526Y43306166D01*
X46066550Y43473946D01*
X45973478Y43624348D01*
X45848303Y43749305D01*
X45842072Y43753146D01*
X45703968Y43838275D01*
X45703966Y43838276D01*
X45697738Y43842115D01*
X45635981Y43862599D01*
X48300810Y43862599D01*
X48306817Y43852393D01*
X49247188Y42912022D01*
X49261132Y42904408D01*
X49262965Y42904539D01*
X49269580Y42908790D01*
X50211724Y43850934D01*
X50218094Y43862599D01*
X53380810Y43862599D01*
X53386817Y43852393D01*
X54327188Y42912022D01*
X54341132Y42904408D01*
X54342965Y42904539D01*
X54349580Y42908790D01*
X55291724Y43850934D01*
X55299116Y43864471D01*
X55295430Y43869740D01*
X55087879Y43996927D01*
X55079085Y44001408D01*
X54850758Y44095984D01*
X54841373Y44099033D01*
X54601060Y44156728D01*
X54591313Y44158271D01*
X54344930Y44177662D01*
X54335070Y44177662D01*
X54088687Y44158271D01*
X54078940Y44156728D01*
X53838627Y44099033D01*
X53829242Y44095984D01*
X53600915Y44001408D01*
X53592121Y43996927D01*
X53386072Y43870660D01*
X53380810Y43862599D01*
X50218094Y43862599D01*
X50219116Y43864471D01*
X50215430Y43869740D01*
X50007879Y43996927D01*
X49999085Y44001408D01*
X49770758Y44095984D01*
X49761373Y44099033D01*
X49521060Y44156728D01*
X49511313Y44158271D01*
X49264930Y44177662D01*
X49255070Y44177662D01*
X49008687Y44158271D01*
X48998940Y44156728D01*
X48758627Y44099033D01*
X48749242Y44095984D01*
X48520915Y44001408D01*
X48512121Y43996927D01*
X48306072Y43870660D01*
X48300810Y43862599D01*
X45635981Y43862599D01*
X45586937Y43878866D01*
X45536389Y43895632D01*
X45536387Y43895632D01*
X45529861Y43897797D01*
X45523025Y43898497D01*
X45523022Y43898498D01*
X45479969Y43902909D01*
X45425400Y43908500D01*
X44074600Y43908500D01*
X44071354Y43908163D01*
X44071350Y43908163D01*
X43975692Y43898238D01*
X43975688Y43898237D01*
X43968834Y43897526D01*
X43962298Y43895345D01*
X43962296Y43895345D01*
X43912903Y43878866D01*
X43801054Y43841550D01*
X43650652Y43748478D01*
X43645479Y43743296D01*
X43639138Y43736944D01*
X43525695Y43623303D01*
X43521855Y43617073D01*
X43521854Y43617072D01*
X43445488Y43493183D01*
X43432885Y43472738D01*
X43377203Y43304861D01*
X43366500Y43200400D01*
X43366500Y42399600D01*
X43377474Y42293834D01*
X43433450Y42126054D01*
X43526522Y41975652D01*
X43651697Y41850695D01*
X43657927Y41846855D01*
X43657928Y41846854D01*
X43667015Y41841253D01*
X43689153Y41827607D01*
X43703236Y41818926D01*
X43750729Y41766154D01*
X43762153Y41696082D01*
X43733879Y41630958D01*
X43714955Y41612582D01*
X43707080Y41606396D01*
X43703150Y41601867D01*
X43703145Y41601862D01*
X43616783Y41502338D01*
X43568448Y41446637D01*
X43565448Y41441451D01*
X43565445Y41441447D01*
X43509509Y41344758D01*
X43462527Y41263546D01*
X43393139Y41063729D01*
X43392278Y41057794D01*
X43392278Y41057792D01*
X43372774Y40923272D01*
X43362787Y40854396D01*
X43372567Y40643101D01*
X43373971Y40637276D01*
X43373971Y40637275D01*
X43413157Y40474679D01*
X43422125Y40437466D01*
X43424607Y40432008D01*
X43424608Y40432004D01*
X43468053Y40336454D01*
X43509674Y40244913D01*
X43579485Y40146498D01*
X43628585Y40077280D01*
X43632054Y40072389D01*
X43784850Y39926119D01*
X43789888Y39922866D01*
X43817163Y39905254D01*
X43863540Y39851499D01*
X43873493Y39781203D01*
X43843861Y39716686D01*
X43826649Y39700319D01*
X43707080Y39606396D01*
X43703150Y39601867D01*
X43703145Y39601862D01*
X43666763Y39559935D01*
X43568448Y39446637D01*
X43565446Y39441447D01*
X43565440Y39441438D01*
X43546670Y39408994D01*
X43498687Y39362048D01*
X43492383Y39359552D01*
X43485972Y39354894D01*
X43485968Y39354892D01*
X43456613Y39333564D01*
X43446693Y39327048D01*
X43415465Y39308580D01*
X43415462Y39308578D01*
X43408638Y39304542D01*
X43394317Y39290221D01*
X43379284Y39277381D01*
X43362893Y39265472D01*
X43343834Y39242434D01*
X43334702Y39231395D01*
X43326712Y39222616D01*
X40677874Y36573779D01*
X40615562Y36539753D01*
X40553210Y36541999D01*
X40539613Y36546000D01*
X39472115Y36546000D01*
X39456876Y36541525D01*
X39455671Y36540135D01*
X39454000Y36532452D01*
X39454000Y35710115D01*
X39458475Y35694876D01*
X39459865Y35693671D01*
X39467548Y35692000D01*
X39491906Y35692000D01*
X39560027Y35671998D01*
X39606520Y35618342D01*
X39616624Y35548068D01*
X39587130Y35483488D01*
X39581010Y35476915D01*
X37807747Y33703652D01*
X37799461Y33696112D01*
X37792982Y33692000D01*
X37787557Y33686223D01*
X37746357Y33642349D01*
X37743602Y33639507D01*
X37723865Y33619770D01*
X37721385Y33616573D01*
X37713682Y33607553D01*
X37683414Y33575321D01*
X37679595Y33568375D01*
X37679593Y33568372D01*
X37673652Y33557566D01*
X37662801Y33541047D01*
X37650386Y33525041D01*
X37647241Y33517772D01*
X37647238Y33517768D01*
X37632826Y33484463D01*
X37627609Y33473813D01*
X37606305Y33435060D01*
X37604334Y33427385D01*
X37604334Y33427384D01*
X37601267Y33415438D01*
X37594863Y33396734D01*
X37586819Y33378145D01*
X37585580Y33370322D01*
X37585577Y33370312D01*
X37579901Y33334476D01*
X37577495Y33322856D01*
X37572134Y33301975D01*
X37566500Y33280030D01*
X37566500Y33259776D01*
X37564949Y33240066D01*
X37561780Y33220057D01*
X37562526Y33212165D01*
X37565941Y33176039D01*
X37566500Y33164181D01*
X37566500Y27314594D01*
X37546498Y27246473D01*
X37529595Y27225499D01*
X37448595Y27144499D01*
X37386283Y27110473D01*
X37315468Y27115538D01*
X37258632Y27158085D01*
X37233821Y27224605D01*
X37233500Y27233594D01*
X37233500Y36532601D01*
X37849712Y36532601D01*
X37871194Y36443463D01*
X37875083Y36432168D01*
X37957629Y36250618D01*
X37963576Y36240276D01*
X38078968Y36077603D01*
X38086761Y36068575D01*
X38230831Y35930658D01*
X38240196Y35923262D01*
X38407741Y35815079D01*
X38418345Y35809583D01*
X38603312Y35735039D01*
X38614770Y35731645D01*
X38811928Y35693143D01*
X38820791Y35692066D01*
X38823500Y35692000D01*
X38927885Y35692000D01*
X38943124Y35696475D01*
X38944329Y35697865D01*
X38946000Y35705548D01*
X38946000Y36527885D01*
X38941525Y36543124D01*
X38940135Y36544329D01*
X38932452Y36546000D01*
X37864598Y36546000D01*
X37851067Y36542027D01*
X37849712Y36532601D01*
X37233500Y36532601D01*
X37233500Y37285406D01*
X37253502Y37353527D01*
X37270405Y37374501D01*
X37936760Y38040856D01*
X37999072Y38074882D01*
X38069887Y38069817D01*
X38112983Y38042781D01*
X38234850Y37926119D01*
X38239881Y37922870D01*
X38239888Y37922865D01*
X38267607Y37904967D01*
X38313984Y37851211D01*
X38323937Y37780915D01*
X38294304Y37716398D01*
X38277091Y37700030D01*
X38162143Y37609738D01*
X38153494Y37601501D01*
X38022788Y37450877D01*
X38015853Y37441153D01*
X37915990Y37268533D01*
X37911016Y37257669D01*
X37845593Y37069273D01*
X37845352Y37068284D01*
X37846820Y37057992D01*
X37860385Y37054000D01*
X40535402Y37054000D01*
X40548933Y37057973D01*
X40550288Y37067399D01*
X40528806Y37156537D01*
X40524917Y37167832D01*
X40442371Y37349382D01*
X40436424Y37359724D01*
X40321032Y37522397D01*
X40313239Y37531425D01*
X40169169Y37669342D01*
X40159800Y37676741D01*
X40132423Y37694418D01*
X40086045Y37748172D01*
X40076091Y37818468D01*
X40105722Y37882985D01*
X40122937Y37899356D01*
X40238202Y37989898D01*
X40242920Y37993604D01*
X40246852Y37998135D01*
X40246855Y37998138D01*
X40377621Y38148833D01*
X40381552Y38153363D01*
X40384552Y38158549D01*
X40384555Y38158553D01*
X40484467Y38331258D01*
X40487473Y38336454D01*
X40556861Y38536271D01*
X40557722Y38542208D01*
X40586352Y38739664D01*
X40586352Y38739667D01*
X40587213Y38745604D01*
X40577433Y38956899D01*
X40542321Y39102593D01*
X40529281Y39156701D01*
X40529280Y39156703D01*
X40527875Y39162534D01*
X40514274Y39192449D01*
X40464621Y39301653D01*
X40440326Y39355087D01*
X40317946Y39527611D01*
X40165150Y39673881D01*
X40158351Y39678271D01*
X40132837Y39694746D01*
X40086460Y39748501D01*
X40076507Y39818797D01*
X40106139Y39883314D01*
X40123353Y39899683D01*
X40130446Y39905254D01*
X40242920Y39993604D01*
X40246852Y39998135D01*
X40246855Y39998138D01*
X40377621Y40148833D01*
X40381552Y40153363D01*
X40384552Y40158549D01*
X40384555Y40158553D01*
X40484467Y40331258D01*
X40487473Y40336454D01*
X40556861Y40536271D01*
X40557722Y40542208D01*
X40586352Y40739664D01*
X40586352Y40739667D01*
X40587213Y40745604D01*
X40577433Y40956899D01*
X40527875Y41162534D01*
X40507650Y41207018D01*
X40465858Y41298933D01*
X40440326Y41355087D01*
X40323563Y41519692D01*
X40321412Y41522725D01*
X40321411Y41522726D01*
X40317946Y41527611D01*
X40313619Y41531753D01*
X40313614Y41531759D01*
X40222683Y41618806D01*
X40187306Y41680361D01*
X40190825Y41751270D01*
X40232121Y41809021D01*
X40243504Y41816965D01*
X40299348Y41851522D01*
X40424305Y41976697D01*
X40431123Y41987758D01*
X40513275Y42121032D01*
X40513276Y42121034D01*
X40517115Y42127262D01*
X40572797Y42295139D01*
X40583500Y42399600D01*
X40583500Y43200400D01*
X40583163Y43203650D01*
X40573238Y43299308D01*
X40573237Y43299312D01*
X40572526Y43306166D01*
X40516550Y43473946D01*
X40423478Y43624348D01*
X40298303Y43749305D01*
X40292072Y43753146D01*
X40153968Y43838275D01*
X40153966Y43838276D01*
X40147738Y43842115D01*
X40036937Y43878866D01*
X39986389Y43895632D01*
X39986387Y43895632D01*
X39979861Y43897797D01*
X39973025Y43898497D01*
X39973022Y43898498D01*
X39929969Y43902909D01*
X39875400Y43908500D01*
X38524600Y43908500D01*
X38521354Y43908163D01*
X38521350Y43908163D01*
X38425692Y43898238D01*
X38425688Y43898237D01*
X38418834Y43897526D01*
X38412298Y43895345D01*
X38412296Y43895345D01*
X38362903Y43878866D01*
X38251054Y43841550D01*
X38100652Y43748478D01*
X38095479Y43743296D01*
X38089138Y43736944D01*
X37975695Y43623303D01*
X37971855Y43617073D01*
X37971854Y43617072D01*
X37895488Y43493183D01*
X37882885Y43472738D01*
X37827203Y43304861D01*
X37816500Y43200400D01*
X37816500Y42399600D01*
X37827474Y42293834D01*
X37883450Y42126054D01*
X37976522Y41975652D01*
X38101697Y41850695D01*
X38107927Y41846855D01*
X38107928Y41846854D01*
X38117015Y41841253D01*
X38139153Y41827607D01*
X38153236Y41818926D01*
X38200729Y41766154D01*
X38212153Y41696082D01*
X38183879Y41630958D01*
X38164955Y41612582D01*
X38157080Y41606396D01*
X38044725Y41476918D01*
X37984973Y41438579D01*
X37949561Y41433500D01*
X37678768Y41433500D01*
X37667585Y41434027D01*
X37660092Y41435702D01*
X37652166Y41435453D01*
X37652165Y41435453D01*
X37592002Y41433562D01*
X37588044Y41433500D01*
X37560144Y41433500D01*
X37556154Y41432996D01*
X37544320Y41432064D01*
X37500111Y41430674D01*
X37492495Y41428461D01*
X37492493Y41428461D01*
X37480652Y41425021D01*
X37461293Y41421012D01*
X37459983Y41420846D01*
X37441203Y41418474D01*
X37433837Y41415558D01*
X37433831Y41415556D01*
X37400098Y41402200D01*
X37388868Y41398355D01*
X37372828Y41393695D01*
X37346407Y41386019D01*
X37339584Y41381984D01*
X37328966Y41375705D01*
X37311213Y41367008D01*
X37307650Y41365597D01*
X37292383Y41359552D01*
X37278729Y41349632D01*
X37256612Y41333563D01*
X37246695Y41327049D01*
X37208638Y41304542D01*
X37194317Y41290221D01*
X37179284Y41277381D01*
X37162893Y41265472D01*
X37154217Y41254984D01*
X37134702Y41231395D01*
X37126712Y41222616D01*
X34807747Y38903652D01*
X34799461Y38896112D01*
X34792982Y38892000D01*
X34787557Y38886223D01*
X34746357Y38842349D01*
X34743602Y38839507D01*
X34723865Y38819770D01*
X34721385Y38816573D01*
X34713682Y38807553D01*
X34683414Y38775321D01*
X34679595Y38768375D01*
X34679593Y38768372D01*
X34673652Y38757566D01*
X34662801Y38741047D01*
X34650386Y38725041D01*
X34647241Y38717772D01*
X34647238Y38717768D01*
X34632826Y38684463D01*
X34627609Y38673813D01*
X34606305Y38635060D01*
X34604334Y38627385D01*
X34604334Y38627384D01*
X34601267Y38615438D01*
X34594863Y38596734D01*
X34590627Y38586944D01*
X34586819Y38578145D01*
X34585580Y38570322D01*
X34585577Y38570312D01*
X34579901Y38534476D01*
X34577495Y38522856D01*
X34566500Y38480030D01*
X34566500Y38459776D01*
X34564949Y38440066D01*
X34561780Y38420057D01*
X34562526Y38412165D01*
X34565941Y38376039D01*
X34566500Y38364181D01*
X34566500Y34794063D01*
X34546498Y34725942D01*
X34492842Y34679449D01*
X34422568Y34669345D01*
X34357988Y34698839D01*
X34344689Y34712233D01*
X34213182Y34866208D01*
X34213177Y34866213D01*
X34209969Y34869969D01*
X34029416Y35024176D01*
X34025208Y35026755D01*
X34025202Y35026759D01*
X33831183Y35145654D01*
X33826963Y35148240D01*
X33822393Y35150133D01*
X33822389Y35150135D01*
X33612167Y35237211D01*
X33612165Y35237212D01*
X33607594Y35239105D01*
X33482381Y35269166D01*
X33381524Y35293380D01*
X33381518Y35293381D01*
X33376711Y35294535D01*
X33140000Y35313165D01*
X32903289Y35294535D01*
X32898482Y35293381D01*
X32898476Y35293380D01*
X32797619Y35269166D01*
X32672406Y35239105D01*
X32667835Y35237212D01*
X32667833Y35237211D01*
X32457611Y35150135D01*
X32457607Y35150133D01*
X32453037Y35148240D01*
X32448817Y35145654D01*
X32254798Y35026759D01*
X32254792Y35026755D01*
X32250584Y35024176D01*
X32070031Y34869969D01*
X31915824Y34689416D01*
X31913245Y34685208D01*
X31913241Y34685202D01*
X31878460Y34628444D01*
X31791760Y34486963D01*
X31789867Y34482393D01*
X31789865Y34482389D01*
X31725106Y34326045D01*
X31700895Y34267594D01*
X31699740Y34262782D01*
X31647866Y34046711D01*
X31645465Y34036711D01*
X31626835Y33800000D01*
X29572378Y33800000D01*
X29573165Y33810000D01*
X29554535Y34046711D01*
X29499105Y34277594D01*
X29422285Y34463056D01*
X29410135Y34492389D01*
X29410133Y34492393D01*
X29408240Y34496963D01*
X29327668Y34628444D01*
X29286759Y34695202D01*
X29286755Y34695208D01*
X29284176Y34699416D01*
X29129969Y34879969D01*
X28949416Y35034176D01*
X28945208Y35036755D01*
X28945202Y35036759D01*
X28751183Y35155654D01*
X28746963Y35158240D01*
X28742393Y35160133D01*
X28742389Y35160135D01*
X28532167Y35247211D01*
X28532165Y35247212D01*
X28527594Y35249105D01*
X28444034Y35269166D01*
X28301524Y35303380D01*
X28301518Y35303381D01*
X28296711Y35304535D01*
X28060000Y35323165D01*
X27823289Y35304535D01*
X27818482Y35303381D01*
X27818476Y35303380D01*
X27675966Y35269166D01*
X27592406Y35249105D01*
X27587835Y35247212D01*
X27587833Y35247211D01*
X27377611Y35160135D01*
X27377607Y35160133D01*
X27373037Y35158240D01*
X27368817Y35155654D01*
X27174798Y35036759D01*
X27174792Y35036755D01*
X27170584Y35034176D01*
X26990031Y34879969D01*
X26835824Y34699416D01*
X26833245Y34695208D01*
X26833241Y34695202D01*
X26792332Y34628444D01*
X26711760Y34496963D01*
X26709867Y34492393D01*
X26709865Y34492389D01*
X26697715Y34463056D01*
X26620895Y34277594D01*
X26565465Y34046711D01*
X26546835Y33810000D01*
X25541000Y33810000D01*
X25541000Y34392906D01*
X25561002Y34461027D01*
X25577905Y34482001D01*
X30192253Y39096348D01*
X30200539Y39103888D01*
X30207018Y39108000D01*
X30253644Y39157652D01*
X30256398Y39160493D01*
X30276135Y39180230D01*
X30278615Y39183427D01*
X30286320Y39192449D01*
X30311159Y39218900D01*
X30316586Y39224679D01*
X30320405Y39231625D01*
X30320407Y39231628D01*
X30326348Y39242434D01*
X30337199Y39258953D01*
X30337559Y39259417D01*
X30349614Y39274959D01*
X30352759Y39282228D01*
X30352762Y39282232D01*
X30367174Y39315537D01*
X30372391Y39326187D01*
X30393695Y39364940D01*
X30398733Y39384563D01*
X30405137Y39403266D01*
X30410033Y39414580D01*
X30410033Y39414581D01*
X30413181Y39421855D01*
X30414420Y39429678D01*
X30414423Y39429688D01*
X30420099Y39465524D01*
X30422505Y39477144D01*
X30431528Y39512289D01*
X30431528Y39512290D01*
X30433500Y39519970D01*
X30433500Y39540224D01*
X30435051Y39559935D01*
X30436980Y39572114D01*
X30438220Y39579943D01*
X30434059Y39623962D01*
X30433500Y39635819D01*
X30433500Y41297476D01*
X30453502Y41365597D01*
X30465858Y41381779D01*
X30539040Y41463056D01*
X30609196Y41584570D01*
X30631223Y41622721D01*
X30631224Y41622722D01*
X30634527Y41628444D01*
X30693542Y41810072D01*
X30694313Y41817401D01*
X30712814Y41993435D01*
X30713504Y42000000D01*
X30700255Y42126054D01*
X30694232Y42183365D01*
X30694232Y42183367D01*
X30693542Y42189928D01*
X30634527Y42371556D01*
X30616479Y42402817D01*
X30561827Y42497476D01*
X30539040Y42536944D01*
X30531850Y42544930D01*
X30415675Y42673955D01*
X30415674Y42673956D01*
X30411253Y42678866D01*
X30256752Y42791118D01*
X30250724Y42793802D01*
X30250722Y42793803D01*
X30088319Y42866109D01*
X30088318Y42866109D01*
X30082288Y42868794D01*
X29988699Y42888687D01*
X29901944Y42907128D01*
X29901939Y42907128D01*
X29895487Y42908500D01*
X29704513Y42908500D01*
X29698061Y42907128D01*
X29698056Y42907128D01*
X29611301Y42888687D01*
X29517712Y42868794D01*
X29511682Y42866109D01*
X29511681Y42866109D01*
X29349278Y42793803D01*
X29349276Y42793802D01*
X29343248Y42791118D01*
X29188747Y42678866D01*
X29184326Y42673956D01*
X29184325Y42673955D01*
X29068151Y42544930D01*
X29060960Y42536944D01*
X29038173Y42497476D01*
X28983522Y42402817D01*
X28965473Y42371556D01*
X28906458Y42189928D01*
X28905768Y42183367D01*
X28905768Y42183365D01*
X28899745Y42126054D01*
X28886496Y42000000D01*
X28887186Y41993435D01*
X28905688Y41817401D01*
X28906458Y41810072D01*
X28965473Y41628444D01*
X28968776Y41622722D01*
X28968777Y41622721D01*
X28990804Y41584570D01*
X29060960Y41463056D01*
X29134137Y41381785D01*
X29164853Y41317779D01*
X29166500Y41297476D01*
X29166500Y39914594D01*
X29146498Y39846473D01*
X29129595Y39825499D01*
X26817151Y37513056D01*
X24515247Y35211152D01*
X24506961Y35203612D01*
X24500482Y35199500D01*
X24495057Y35193723D01*
X24453857Y35149849D01*
X24451102Y35147007D01*
X24431365Y35127270D01*
X24428885Y35124073D01*
X24421182Y35115053D01*
X24390914Y35082821D01*
X24387095Y35075875D01*
X24387093Y35075872D01*
X24381152Y35065066D01*
X24370301Y35048547D01*
X24357886Y35032541D01*
X24354741Y35025272D01*
X24354738Y35025268D01*
X24340326Y34991963D01*
X24335109Y34981313D01*
X24313805Y34942560D01*
X24311834Y34934885D01*
X24311834Y34934884D01*
X24308767Y34922938D01*
X24302363Y34904234D01*
X24294319Y34885645D01*
X24293080Y34877822D01*
X24293077Y34877812D01*
X24287401Y34841976D01*
X24284995Y34830356D01*
X24278176Y34803794D01*
X24274000Y34787530D01*
X24274000Y34767276D01*
X24272449Y34747566D01*
X24269280Y34727557D01*
X24270026Y34719665D01*
X24273441Y34683539D01*
X24274000Y34671681D01*
X24274000Y30210024D01*
X24253998Y30141903D01*
X24241642Y30125721D01*
X24168460Y30044444D01*
X24072973Y29879056D01*
X24013958Y29697428D01*
X24013268Y29690867D01*
X24013268Y29690865D01*
X24002270Y29586225D01*
X23993996Y29507500D01*
X508500Y29507500D01*
X508500Y30924600D01*
X2891500Y30924600D01*
X2902474Y30818834D01*
X2904655Y30812298D01*
X2904655Y30812296D01*
X2937455Y30713984D01*
X2958450Y30651054D01*
X3051522Y30500652D01*
X3176697Y30375695D01*
X3182927Y30371855D01*
X3182928Y30371854D01*
X3320090Y30287306D01*
X3327262Y30282885D01*
X3363942Y30270719D01*
X3488611Y30229368D01*
X3488613Y30229368D01*
X3495139Y30227203D01*
X3501975Y30226503D01*
X3501978Y30226502D01*
X3540386Y30222567D01*
X3599600Y30216500D01*
X4400400Y30216500D01*
X4403646Y30216837D01*
X4403650Y30216837D01*
X4499308Y30226762D01*
X4499312Y30226763D01*
X4506166Y30227474D01*
X4512702Y30229655D01*
X4512704Y30229655D01*
X4648867Y30275083D01*
X4673946Y30283450D01*
X4824348Y30376522D01*
X4949305Y30501697D01*
X4981075Y30553236D01*
X5033846Y30600729D01*
X5103918Y30612153D01*
X5169042Y30583879D01*
X5187418Y30564955D01*
X5193604Y30557080D01*
X5198135Y30553148D01*
X5198138Y30553145D01*
X5283620Y30478968D01*
X5353363Y30418448D01*
X5358549Y30415448D01*
X5358553Y30415445D01*
X5458492Y30357629D01*
X5536454Y30312527D01*
X5736271Y30243139D01*
X5742206Y30242278D01*
X5742208Y30242278D01*
X5939664Y30213648D01*
X5939667Y30213648D01*
X5945604Y30212787D01*
X6156899Y30222567D01*
X6288077Y30254181D01*
X6356701Y30270719D01*
X6356703Y30270720D01*
X6362534Y30272125D01*
X6367992Y30274607D01*
X6367996Y30274608D01*
X6483041Y30326916D01*
X6555087Y30359674D01*
X6727611Y30482054D01*
X6873881Y30634850D01*
X6877130Y30639881D01*
X6877135Y30639888D01*
X6895033Y30667607D01*
X6948789Y30713984D01*
X7019085Y30723937D01*
X7083602Y30694304D01*
X7099970Y30677091D01*
X7190262Y30562143D01*
X7198499Y30553494D01*
X7349123Y30422788D01*
X7358847Y30415853D01*
X7531467Y30315990D01*
X7542331Y30311016D01*
X7730727Y30245593D01*
X7731716Y30245352D01*
X7742008Y30246820D01*
X7746000Y30260385D01*
X7746000Y30264598D01*
X8254000Y30264598D01*
X8257973Y30251067D01*
X8267399Y30249712D01*
X8356537Y30271194D01*
X8367832Y30275083D01*
X8549382Y30357629D01*
X8559724Y30363576D01*
X8722397Y30478968D01*
X8731425Y30486761D01*
X8869342Y30630831D01*
X8876738Y30640196D01*
X8984921Y30807741D01*
X8990417Y30818345D01*
X9064961Y31003312D01*
X9068355Y31014770D01*
X9106857Y31211928D01*
X9107934Y31220791D01*
X9108000Y31223500D01*
X9108000Y31327885D01*
X9103525Y31343124D01*
X9102135Y31344329D01*
X9094452Y31346000D01*
X8272115Y31346000D01*
X8256876Y31341525D01*
X8255671Y31340135D01*
X8254000Y31332452D01*
X8254000Y30264598D01*
X7746000Y30264598D01*
X7746000Y31872115D01*
X8254000Y31872115D01*
X8258475Y31856876D01*
X8259865Y31855671D01*
X8267548Y31854000D01*
X9089885Y31854000D01*
X9105124Y31858475D01*
X9106329Y31859865D01*
X9108000Y31867548D01*
X9108000Y31924832D01*
X9107715Y31930808D01*
X9093529Y32079494D01*
X9091270Y32091228D01*
X9035128Y32282599D01*
X9030698Y32293675D01*
X8939381Y32470978D01*
X8932931Y32481024D01*
X8809738Y32637857D01*
X8801501Y32646506D01*
X8650877Y32777212D01*
X8641153Y32784147D01*
X8468533Y32884010D01*
X8457669Y32888984D01*
X8269273Y32954407D01*
X8268284Y32954648D01*
X8257992Y32953180D01*
X8254000Y32939615D01*
X8254000Y31872115D01*
X7746000Y31872115D01*
X7746000Y32935402D01*
X7742027Y32948933D01*
X7732601Y32950288D01*
X7643463Y32928806D01*
X7632168Y32924917D01*
X7450618Y32842371D01*
X7440276Y32836424D01*
X7277603Y32721032D01*
X7268575Y32713239D01*
X7130658Y32569169D01*
X7123259Y32559800D01*
X7105582Y32532423D01*
X7051828Y32486045D01*
X6981532Y32476091D01*
X6917015Y32505722D01*
X6900644Y32522937D01*
X6890648Y32535663D01*
X6806396Y32642920D01*
X6801865Y32646852D01*
X6801862Y32646855D01*
X6661753Y32768435D01*
X6646637Y32781552D01*
X6641451Y32784552D01*
X6641447Y32784555D01*
X6468742Y32884467D01*
X6463546Y32887473D01*
X6263729Y32956861D01*
X6257794Y32957722D01*
X6257792Y32957722D01*
X6060336Y32986352D01*
X6060333Y32986352D01*
X6054396Y32987213D01*
X5843101Y32977433D01*
X5730466Y32950288D01*
X5643299Y32929281D01*
X5643297Y32929280D01*
X5637466Y32927875D01*
X5632008Y32925393D01*
X5632004Y32925392D01*
X5540990Y32884010D01*
X5444913Y32840326D01*
X5272389Y32717946D01*
X5268247Y32713619D01*
X5268241Y32713614D01*
X5181194Y32622683D01*
X5119639Y32587306D01*
X5048730Y32590825D01*
X4990979Y32632121D01*
X4983032Y32643509D01*
X4948478Y32699348D01*
X4823303Y32824305D01*
X4817072Y32828146D01*
X4678968Y32913275D01*
X4678966Y32913276D01*
X4672738Y32917115D01*
X4562959Y32953527D01*
X4511389Y32970632D01*
X4511387Y32970632D01*
X4504861Y32972797D01*
X4498025Y32973497D01*
X4498022Y32973498D01*
X4454969Y32977909D01*
X4400400Y32983500D01*
X3599600Y32983500D01*
X3596354Y32983163D01*
X3596350Y32983163D01*
X3500692Y32973238D01*
X3500688Y32973237D01*
X3493834Y32972526D01*
X3487298Y32970345D01*
X3487296Y32970345D01*
X3423117Y32948933D01*
X3326054Y32916550D01*
X3175652Y32823478D01*
X3050695Y32698303D01*
X3046855Y32692073D01*
X3046854Y32692072D01*
X2968693Y32565271D01*
X2957885Y32547738D01*
X2902203Y32379861D01*
X2901503Y32373025D01*
X2901502Y32373022D01*
X2899388Y32352384D01*
X2891500Y32275400D01*
X2891500Y30924600D01*
X508500Y30924600D01*
X508500Y36735529D01*
X2500884Y36735529D01*
X2504570Y36730260D01*
X2712121Y36603073D01*
X2720915Y36598592D01*
X2949242Y36504016D01*
X2958627Y36500967D01*
X3198940Y36443272D01*
X3208687Y36441729D01*
X3455070Y36422338D01*
X3464930Y36422338D01*
X3711313Y36441729D01*
X3721060Y36443272D01*
X3961373Y36500967D01*
X3970758Y36504016D01*
X4199085Y36598592D01*
X4207879Y36603073D01*
X4413928Y36729340D01*
X4417968Y36735529D01*
X7580884Y36735529D01*
X7584570Y36730260D01*
X7792121Y36603073D01*
X7800915Y36598592D01*
X8029242Y36504016D01*
X8038627Y36500967D01*
X8278940Y36443272D01*
X8288687Y36441729D01*
X8535070Y36422338D01*
X8544930Y36422338D01*
X8791313Y36441729D01*
X8801060Y36443272D01*
X9041373Y36500967D01*
X9050758Y36504016D01*
X9279085Y36598592D01*
X9287879Y36603073D01*
X9493928Y36729340D01*
X9499190Y36737401D01*
X9493183Y36747607D01*
X8552812Y37687978D01*
X8538868Y37695592D01*
X8537035Y37695461D01*
X8530420Y37691210D01*
X7588276Y36749066D01*
X7580884Y36735529D01*
X4417968Y36735529D01*
X4419190Y36737401D01*
X4413183Y36747607D01*
X3472812Y37687978D01*
X3458868Y37695592D01*
X3457035Y37695461D01*
X3450420Y37691210D01*
X2508276Y36749066D01*
X2500884Y36735529D01*
X508500Y36735529D01*
X508500Y38055070D01*
X1822338Y38055070D01*
X1841729Y37808687D01*
X1843272Y37798940D01*
X1900967Y37558627D01*
X1904016Y37549242D01*
X1998592Y37320915D01*
X2003073Y37312121D01*
X2129340Y37106072D01*
X2137401Y37100810D01*
X2147607Y37106817D01*
X3087978Y38047188D01*
X3094356Y38058868D01*
X3824408Y38058868D01*
X3824539Y38057035D01*
X3828790Y38050420D01*
X4770934Y37108276D01*
X4784471Y37100884D01*
X4789740Y37104570D01*
X4916927Y37312121D01*
X4921408Y37320915D01*
X5015984Y37549242D01*
X5019033Y37558627D01*
X5076728Y37798940D01*
X5078271Y37808687D01*
X5097662Y38055070D01*
X6902338Y38055070D01*
X6921729Y37808687D01*
X6923272Y37798940D01*
X6980967Y37558627D01*
X6984016Y37549242D01*
X7078592Y37320915D01*
X7083073Y37312121D01*
X7209340Y37106072D01*
X7217401Y37100810D01*
X7227607Y37106817D01*
X8167978Y38047188D01*
X8174356Y38058868D01*
X8904408Y38058868D01*
X8904539Y38057035D01*
X8908790Y38050420D01*
X9850934Y37108276D01*
X9864471Y37100884D01*
X9869740Y37104570D01*
X9996927Y37312121D01*
X10001408Y37320915D01*
X10095984Y37549242D01*
X10099033Y37558627D01*
X10156728Y37798940D01*
X10158271Y37808687D01*
X10177662Y38055070D01*
X10177662Y38064930D01*
X10158271Y38311313D01*
X10156728Y38321060D01*
X10143778Y38375000D01*
X17511496Y38375000D01*
X17512186Y38368435D01*
X17525169Y38244913D01*
X17531458Y38185072D01*
X17590473Y38003444D01*
X17593776Y37997722D01*
X17593777Y37997721D01*
X17614763Y37961373D01*
X17685960Y37838056D01*
X17690378Y37833149D01*
X17690379Y37833148D01*
X17795501Y37716398D01*
X17813747Y37696134D01*
X17840439Y37676741D01*
X17951286Y37596206D01*
X17968248Y37583882D01*
X17974276Y37581198D01*
X17974278Y37581197D01*
X18136681Y37508891D01*
X18142712Y37506206D01*
X18236113Y37486353D01*
X18323056Y37467872D01*
X18323061Y37467872D01*
X18329513Y37466500D01*
X18467853Y37466500D01*
X18511562Y37458162D01*
X18514940Y37456305D01*
X18522613Y37454335D01*
X18522618Y37454333D01*
X18534558Y37451268D01*
X18553266Y37444863D01*
X18571855Y37436819D01*
X18579680Y37435580D01*
X18579682Y37435579D01*
X18615519Y37429903D01*
X18627140Y37427496D01*
X18662289Y37418472D01*
X18669970Y37416500D01*
X18690231Y37416500D01*
X18709940Y37414949D01*
X18729943Y37411781D01*
X18737835Y37412527D01*
X18743062Y37413021D01*
X18773954Y37415941D01*
X18785811Y37416500D01*
X20541800Y37416500D01*
X20609921Y37396498D01*
X20629147Y37380157D01*
X20629420Y37380460D01*
X20634332Y37376037D01*
X20638747Y37371134D01*
X20654451Y37359724D01*
X20779965Y37268533D01*
X20793248Y37258882D01*
X20799276Y37256198D01*
X20799278Y37256197D01*
X20944901Y37191362D01*
X20967712Y37181206D01*
X21061113Y37161353D01*
X21148056Y37142872D01*
X21148061Y37142872D01*
X21154513Y37141500D01*
X21345487Y37141500D01*
X21351939Y37142872D01*
X21351944Y37142872D01*
X21438887Y37161353D01*
X21532288Y37181206D01*
X21555099Y37191362D01*
X21700722Y37256197D01*
X21700724Y37256198D01*
X21706752Y37258882D01*
X21720036Y37268533D01*
X21815092Y37337596D01*
X21861253Y37371134D01*
X21897852Y37411781D01*
X21984621Y37508148D01*
X21984622Y37508149D01*
X21989040Y37513056D01*
X22084527Y37678444D01*
X22143542Y37860072D01*
X22145874Y37882255D01*
X22162814Y38043435D01*
X22163504Y38050000D01*
X22150419Y38174501D01*
X22144232Y38233365D01*
X22144232Y38233367D01*
X22143542Y38239928D01*
X22084527Y38421556D01*
X22080873Y38427886D01*
X22001751Y38564928D01*
X21989040Y38586944D01*
X21972032Y38605834D01*
X21865675Y38723955D01*
X21865674Y38723956D01*
X21861253Y38728866D01*
X21752501Y38807879D01*
X21712094Y38837237D01*
X21712093Y38837238D01*
X21706752Y38841118D01*
X21700724Y38843802D01*
X21700722Y38843803D01*
X21538319Y38916109D01*
X21538318Y38916109D01*
X21532288Y38918794D01*
X21438887Y38938647D01*
X21351944Y38957128D01*
X21351939Y38957128D01*
X21345487Y38958500D01*
X21154513Y38958500D01*
X21148061Y38957128D01*
X21148056Y38957128D01*
X21061113Y38938647D01*
X20967712Y38918794D01*
X20961682Y38916109D01*
X20961681Y38916109D01*
X20799278Y38843803D01*
X20799276Y38843802D01*
X20793248Y38841118D01*
X20787907Y38837238D01*
X20787906Y38837237D01*
X20678249Y38757566D01*
X20638747Y38728866D01*
X20634332Y38723963D01*
X20629420Y38719540D01*
X20628295Y38720789D01*
X20574986Y38687949D01*
X20541800Y38683500D01*
X19368671Y38683500D01*
X19300550Y38703502D01*
X19262226Y38748114D01*
X19259527Y38746556D01*
X19258627Y38748114D01*
X19164040Y38911944D01*
X19123563Y38956899D01*
X19040675Y39048955D01*
X19040674Y39048956D01*
X19036253Y39053866D01*
X18904188Y39149817D01*
X18887094Y39162237D01*
X18887093Y39162238D01*
X18881752Y39166118D01*
X18875724Y39168802D01*
X18875722Y39168803D01*
X18713319Y39241109D01*
X18713318Y39241109D01*
X18707288Y39243794D01*
X18605302Y39265472D01*
X18526944Y39282128D01*
X18526939Y39282128D01*
X18520487Y39283500D01*
X18329513Y39283500D01*
X18323061Y39282128D01*
X18323056Y39282128D01*
X18244698Y39265472D01*
X18142712Y39243794D01*
X18136682Y39241109D01*
X18136681Y39241109D01*
X17974278Y39168803D01*
X17974276Y39168802D01*
X17968248Y39166118D01*
X17962907Y39162238D01*
X17962906Y39162237D01*
X17945812Y39149817D01*
X17813747Y39053866D01*
X17809326Y39048956D01*
X17809325Y39048955D01*
X17726438Y38956899D01*
X17685960Y38911944D01*
X17656164Y38860336D01*
X17595658Y38755536D01*
X17590473Y38746556D01*
X17531458Y38564928D01*
X17530768Y38558367D01*
X17530768Y38558365D01*
X17516133Y38419116D01*
X17511496Y38375000D01*
X10143778Y38375000D01*
X10099033Y38561373D01*
X10095984Y38570758D01*
X10001408Y38799085D01*
X9996927Y38807879D01*
X9870660Y39013928D01*
X9862599Y39019190D01*
X9852393Y39013183D01*
X8912022Y38072812D01*
X8904408Y38058868D01*
X8174356Y38058868D01*
X8175592Y38061132D01*
X8175461Y38062965D01*
X8171210Y38069580D01*
X7229066Y39011724D01*
X7215529Y39019116D01*
X7210260Y39015430D01*
X7083073Y38807879D01*
X7078592Y38799085D01*
X6984016Y38570758D01*
X6980967Y38561373D01*
X6923272Y38321060D01*
X6921729Y38311313D01*
X6902338Y38064930D01*
X6902338Y38055070D01*
X5097662Y38055070D01*
X5097662Y38064930D01*
X5078271Y38311313D01*
X5076728Y38321060D01*
X5019033Y38561373D01*
X5015984Y38570758D01*
X4921408Y38799085D01*
X4916927Y38807879D01*
X4790660Y39013928D01*
X4782599Y39019190D01*
X4772393Y39013183D01*
X3832022Y38072812D01*
X3824408Y38058868D01*
X3094356Y38058868D01*
X3095592Y38061132D01*
X3095461Y38062965D01*
X3091210Y38069580D01*
X2149066Y39011724D01*
X2135529Y39019116D01*
X2130260Y39015430D01*
X2003073Y38807879D01*
X1998592Y38799085D01*
X1904016Y38570758D01*
X1900967Y38561373D01*
X1843272Y38321060D01*
X1841729Y38311313D01*
X1822338Y38064930D01*
X1822338Y38055070D01*
X508500Y38055070D01*
X508500Y39382599D01*
X2500810Y39382599D01*
X2506817Y39372393D01*
X3447188Y38432022D01*
X3461132Y38424408D01*
X3462965Y38424539D01*
X3469580Y38428790D01*
X4411724Y39370934D01*
X4419116Y39384471D01*
X4415430Y39389740D01*
X4207879Y39516927D01*
X4199085Y39521408D01*
X3970758Y39615984D01*
X3961373Y39619033D01*
X3721060Y39676728D01*
X3711313Y39678271D01*
X3464930Y39697662D01*
X3455070Y39697662D01*
X3208687Y39678271D01*
X3198940Y39676728D01*
X2958627Y39619033D01*
X2949242Y39615984D01*
X2720915Y39521408D01*
X2712121Y39516927D01*
X2506072Y39390660D01*
X2500810Y39382599D01*
X508500Y39382599D01*
X508500Y40600000D01*
X4461758Y40600000D01*
X4480696Y40359366D01*
X4481850Y40354559D01*
X4481851Y40354553D01*
X4503085Y40266109D01*
X4537045Y40124657D01*
X4538938Y40120086D01*
X4538939Y40120084D01*
X4624056Y39914594D01*
X4629416Y39901653D01*
X4755536Y39695844D01*
X4912299Y39512299D01*
X5095844Y39355536D01*
X5301653Y39229416D01*
X5306223Y39227523D01*
X5306227Y39227521D01*
X5520084Y39138939D01*
X5524657Y39137045D01*
X5607039Y39117267D01*
X5754553Y39081851D01*
X5754559Y39081850D01*
X5759366Y39080696D01*
X6000000Y39061758D01*
X6240634Y39080696D01*
X6245441Y39081850D01*
X6245447Y39081851D01*
X6392961Y39117267D01*
X6475343Y39137045D01*
X6479916Y39138939D01*
X6693773Y39227521D01*
X6693777Y39227523D01*
X6698347Y39229416D01*
X6904156Y39355536D01*
X6935843Y39382599D01*
X7580810Y39382599D01*
X7586817Y39372393D01*
X8527188Y38432022D01*
X8541132Y38424408D01*
X8542965Y38424539D01*
X8549580Y38428790D01*
X9491724Y39370934D01*
X9499116Y39384471D01*
X9495430Y39389740D01*
X9287879Y39516927D01*
X9279085Y39521408D01*
X9050758Y39615984D01*
X9041373Y39619033D01*
X8801060Y39676728D01*
X8791313Y39678271D01*
X8544930Y39697662D01*
X8535070Y39697662D01*
X8288687Y39678271D01*
X8278940Y39676728D01*
X8038627Y39619033D01*
X8029242Y39615984D01*
X7800915Y39521408D01*
X7792121Y39516927D01*
X7586072Y39390660D01*
X7580810Y39382599D01*
X6935843Y39382599D01*
X7087701Y39512299D01*
X7244464Y39695844D01*
X7370584Y39901653D01*
X7375945Y39914594D01*
X7461061Y40120084D01*
X7461062Y40120086D01*
X7462955Y40124657D01*
X7496915Y40266109D01*
X7518149Y40354553D01*
X7518150Y40354559D01*
X7519304Y40359366D01*
X7538242Y40600000D01*
X7519304Y40840634D01*
X7518150Y40845441D01*
X7518149Y40845447D01*
X7468865Y41050725D01*
X7462955Y41075343D01*
X7457836Y41087701D01*
X7372479Y41293773D01*
X7372477Y41293777D01*
X7370584Y41298347D01*
X7244464Y41504156D01*
X7087701Y41687701D01*
X6938034Y41815529D01*
X7580884Y41815529D01*
X7584570Y41810260D01*
X7792121Y41683073D01*
X7800915Y41678592D01*
X8029242Y41584016D01*
X8038627Y41580967D01*
X8278940Y41523272D01*
X8288687Y41521729D01*
X8535070Y41502338D01*
X8544930Y41502338D01*
X8791313Y41521729D01*
X8801060Y41523272D01*
X9041373Y41580967D01*
X9050758Y41584016D01*
X9279085Y41678592D01*
X9287879Y41683073D01*
X9493928Y41809340D01*
X9499190Y41817401D01*
X9493183Y41827607D01*
X8552812Y42767978D01*
X8538868Y42775592D01*
X8537035Y42775461D01*
X8530420Y42771210D01*
X7588276Y41829066D01*
X7580884Y41815529D01*
X6938034Y41815529D01*
X6904156Y41844464D01*
X6698347Y41970584D01*
X6693777Y41972477D01*
X6693773Y41972479D01*
X6479916Y42061061D01*
X6479914Y42061062D01*
X6475343Y42062955D01*
X6392961Y42082733D01*
X6245447Y42118149D01*
X6245441Y42118150D01*
X6240634Y42119304D01*
X6000000Y42138242D01*
X5759366Y42119304D01*
X5754559Y42118150D01*
X5754553Y42118149D01*
X5607039Y42082733D01*
X5524657Y42062955D01*
X5520086Y42061062D01*
X5520084Y42061061D01*
X5306227Y41972479D01*
X5306223Y41972477D01*
X5301653Y41970584D01*
X5095844Y41844464D01*
X4912299Y41687701D01*
X4755536Y41504156D01*
X4629416Y41298347D01*
X4627523Y41293777D01*
X4627521Y41293773D01*
X4542164Y41087701D01*
X4537045Y41075343D01*
X4531135Y41050725D01*
X4481851Y40845447D01*
X4481850Y40845441D01*
X4480696Y40840634D01*
X4461758Y40600000D01*
X508500Y40600000D01*
X508500Y41815529D01*
X2500884Y41815529D01*
X2504570Y41810260D01*
X2712121Y41683073D01*
X2720915Y41678592D01*
X2949242Y41584016D01*
X2958627Y41580967D01*
X3198940Y41523272D01*
X3208687Y41521729D01*
X3455070Y41502338D01*
X3464930Y41502338D01*
X3711313Y41521729D01*
X3721060Y41523272D01*
X3961373Y41580967D01*
X3970758Y41584016D01*
X4199085Y41678592D01*
X4207879Y41683073D01*
X4413928Y41809340D01*
X4419190Y41817401D01*
X4413183Y41827607D01*
X3472812Y42767978D01*
X3458868Y42775592D01*
X3457035Y42775461D01*
X3450420Y42771210D01*
X2508276Y41829066D01*
X2500884Y41815529D01*
X508500Y41815529D01*
X508500Y43135070D01*
X1822338Y43135070D01*
X1841729Y42888687D01*
X1843272Y42878940D01*
X1900967Y42638627D01*
X1904016Y42629242D01*
X1998592Y42400915D01*
X2003073Y42392121D01*
X2129340Y42186072D01*
X2137401Y42180810D01*
X2147607Y42186817D01*
X3087978Y43127188D01*
X3094356Y43138868D01*
X3824408Y43138868D01*
X3824539Y43137035D01*
X3828790Y43130420D01*
X4770934Y42188276D01*
X4784471Y42180884D01*
X4789740Y42184570D01*
X4916927Y42392121D01*
X4921408Y42400915D01*
X5015984Y42629242D01*
X5019033Y42638627D01*
X5076728Y42878940D01*
X5078271Y42888687D01*
X5097662Y43135070D01*
X6902338Y43135070D01*
X6921729Y42888687D01*
X6923272Y42878940D01*
X6980967Y42638627D01*
X6984016Y42629242D01*
X7078592Y42400915D01*
X7083073Y42392121D01*
X7209340Y42186072D01*
X7217401Y42180810D01*
X7227607Y42186817D01*
X8167978Y43127188D01*
X8174356Y43138868D01*
X8904408Y43138868D01*
X8904539Y43137035D01*
X8908790Y43130420D01*
X9850934Y42188276D01*
X9864471Y42180884D01*
X9869740Y42184570D01*
X9996927Y42392121D01*
X10001408Y42400915D01*
X10095984Y42629242D01*
X10099033Y42638627D01*
X10156728Y42878940D01*
X10158271Y42888687D01*
X10177662Y43135070D01*
X10177662Y43144930D01*
X10158271Y43391313D01*
X10156728Y43401060D01*
X10099033Y43641373D01*
X10095984Y43650758D01*
X10001408Y43879085D01*
X9996927Y43887879D01*
X9870660Y44093928D01*
X9862599Y44099190D01*
X9852393Y44093183D01*
X8912022Y43152812D01*
X8904408Y43138868D01*
X8174356Y43138868D01*
X8175592Y43141132D01*
X8175461Y43142965D01*
X8171210Y43149580D01*
X7229066Y44091724D01*
X7215529Y44099116D01*
X7210260Y44095430D01*
X7083073Y43887879D01*
X7078592Y43879085D01*
X6984016Y43650758D01*
X6980967Y43641373D01*
X6923272Y43401060D01*
X6921729Y43391313D01*
X6902338Y43144930D01*
X6902338Y43135070D01*
X5097662Y43135070D01*
X5097662Y43144930D01*
X5078271Y43391313D01*
X5076728Y43401060D01*
X5019033Y43641373D01*
X5015984Y43650758D01*
X4921408Y43879085D01*
X4916927Y43887879D01*
X4790660Y44093928D01*
X4782599Y44099190D01*
X4772393Y44093183D01*
X3832022Y43152812D01*
X3824408Y43138868D01*
X3094356Y43138868D01*
X3095592Y43141132D01*
X3095461Y43142965D01*
X3091210Y43149580D01*
X2149066Y44091724D01*
X2135529Y44099116D01*
X2130260Y44095430D01*
X2003073Y43887879D01*
X1998592Y43879085D01*
X1904016Y43650758D01*
X1900967Y43641373D01*
X1843272Y43401060D01*
X1841729Y43391313D01*
X1822338Y43144930D01*
X1822338Y43135070D01*
X508500Y43135070D01*
X508500Y44462599D01*
X2500810Y44462599D01*
X2506817Y44452393D01*
X3447188Y43512022D01*
X3461132Y43504408D01*
X3462965Y43504539D01*
X3469580Y43508790D01*
X4411724Y44450934D01*
X4418094Y44462599D01*
X7580810Y44462599D01*
X7586817Y44452393D01*
X8527188Y43512022D01*
X8541132Y43504408D01*
X8542965Y43504539D01*
X8549580Y43508790D01*
X9491724Y44450934D01*
X9499116Y44464471D01*
X9495430Y44469740D01*
X9287879Y44596927D01*
X9279085Y44601408D01*
X9050758Y44695984D01*
X9041373Y44699033D01*
X8801060Y44756728D01*
X8791313Y44758271D01*
X8544930Y44777662D01*
X8535070Y44777662D01*
X8288687Y44758271D01*
X8278940Y44756728D01*
X8038627Y44699033D01*
X8029242Y44695984D01*
X7800915Y44601408D01*
X7792121Y44596927D01*
X7586072Y44470660D01*
X7580810Y44462599D01*
X4418094Y44462599D01*
X4419116Y44464471D01*
X4415430Y44469740D01*
X4207879Y44596927D01*
X4199085Y44601408D01*
X3970758Y44695984D01*
X3961373Y44699033D01*
X3721060Y44756728D01*
X3711313Y44758271D01*
X3464930Y44777662D01*
X3455070Y44777662D01*
X3208687Y44758271D01*
X3198940Y44756728D01*
X2958627Y44699033D01*
X2949242Y44695984D01*
X2720915Y44601408D01*
X2712121Y44596927D01*
X2506072Y44470660D01*
X2500810Y44462599D01*
X508500Y44462599D01*
X508500Y46965500D01*
X528502Y47033621D01*
X582158Y47080114D01*
X634500Y47091500D01*
X81165500Y47091500D01*
X81233621Y47071498D01*
G37*
%TD.AperFunction*%
%TA.AperFunction,Conductor*%
G36*
X43369471Y37369399D02*
G01*
X43426306Y37326852D01*
X43451117Y37260332D01*
X43444465Y37210009D01*
X43395595Y37069279D01*
X43395352Y37068284D01*
X43396820Y37057992D01*
X43410385Y37054000D01*
X44878000Y37054000D01*
X44946121Y37033998D01*
X44992614Y36980342D01*
X45004000Y36928000D01*
X45004000Y35710115D01*
X45008475Y35694876D01*
X45009865Y35693671D01*
X45017548Y35692000D01*
X45074832Y35692000D01*
X45080808Y35692285D01*
X45229494Y35706471D01*
X45241228Y35708730D01*
X45432599Y35764872D01*
X45443675Y35769302D01*
X45620978Y35860619D01*
X45631024Y35867069D01*
X45762667Y35970476D01*
X45828592Y35996826D01*
X45898299Y35983351D01*
X45949654Y35934330D01*
X45966500Y35871390D01*
X45966500Y32870315D01*
X45946498Y32802194D01*
X45929595Y32781220D01*
X44772595Y31624220D01*
X44710283Y31590194D01*
X44639468Y31595259D01*
X44582632Y31637806D01*
X44557821Y31704326D01*
X44557500Y31713315D01*
X44557500Y32337542D01*
X44557278Y32340278D01*
X44548210Y32451760D01*
X44545978Y32479200D01*
X44528071Y32548946D01*
X44491505Y32691361D01*
X44491505Y32691362D01*
X44490110Y32696794D01*
X44396591Y32901055D01*
X44387040Y32914798D01*
X44356252Y32959095D01*
X44268380Y33085527D01*
X44109527Y33244380D01*
X43925055Y33372591D01*
X43720794Y33466110D01*
X43715361Y33467505D01*
X43508396Y33520644D01*
X43508395Y33520644D01*
X43503200Y33521978D01*
X43449295Y33526362D01*
X43364092Y33533293D01*
X43364082Y33533293D01*
X43361542Y33533500D01*
X41736458Y33533500D01*
X41733918Y33533293D01*
X41733908Y33533293D01*
X41648705Y33526362D01*
X41594800Y33521978D01*
X41589605Y33520644D01*
X41589604Y33520644D01*
X41382639Y33467505D01*
X41377206Y33466110D01*
X41172945Y33372591D01*
X40988473Y33244380D01*
X40829620Y33085527D01*
X40741748Y32959095D01*
X40710961Y32914798D01*
X40701409Y32901055D01*
X40607890Y32696794D01*
X40606495Y32691362D01*
X40606495Y32691361D01*
X40569930Y32548946D01*
X40552022Y32479200D01*
X40549790Y32451760D01*
X40540723Y32340278D01*
X40540500Y32337542D01*
X40540500Y30712458D01*
X40540707Y30709918D01*
X40540707Y30709908D01*
X40546403Y30639888D01*
X40552022Y30570800D01*
X40553356Y30565605D01*
X40553356Y30565604D01*
X40602116Y30375695D01*
X40607890Y30353206D01*
X40701409Y30148945D01*
X40704609Y30144341D01*
X40704610Y30144339D01*
X40738454Y30095644D01*
X40829620Y29964473D01*
X40988473Y29805620D01*
X41172945Y29677409D01*
X41377206Y29583890D01*
X41594800Y29528022D01*
X41648705Y29523638D01*
X41733908Y29516707D01*
X41733918Y29516707D01*
X41736458Y29516500D01*
X42360685Y29516500D01*
X42428806Y29496498D01*
X42475299Y29442842D01*
X42485403Y29372568D01*
X42455909Y29307988D01*
X42449780Y29301405D01*
X37296608Y24148233D01*
X37234296Y24114207D01*
X37163481Y24119272D01*
X37133452Y24135392D01*
X37062094Y24187237D01*
X37062093Y24187238D01*
X37056752Y24191118D01*
X37050724Y24193802D01*
X37050722Y24193803D01*
X36888319Y24266109D01*
X36888318Y24266109D01*
X36882288Y24268794D01*
X36794114Y24287536D01*
X36731641Y24321264D01*
X36697319Y24383414D01*
X36695001Y24423953D01*
X36701966Y24490218D01*
X36710907Y24575294D01*
X36737920Y24640950D01*
X36747122Y24651218D01*
X38592247Y26496343D01*
X38600537Y26503887D01*
X38607018Y26508000D01*
X38627057Y26529339D01*
X38653658Y26557667D01*
X38656413Y26560509D01*
X38676135Y26580231D01*
X38678612Y26583424D01*
X38686317Y26592445D01*
X38687701Y26593919D01*
X38716586Y26624679D01*
X38720670Y26632108D01*
X38726346Y26642432D01*
X38737202Y26658959D01*
X38744757Y26668698D01*
X38744758Y26668700D01*
X38749614Y26674960D01*
X38767174Y26715540D01*
X38772391Y26726188D01*
X38789875Y26757991D01*
X38789876Y26757993D01*
X38793695Y26764940D01*
X38798733Y26784563D01*
X38805137Y26803266D01*
X38810033Y26814580D01*
X38810033Y26814581D01*
X38813181Y26821855D01*
X38814420Y26829678D01*
X38814423Y26829688D01*
X38820099Y26865524D01*
X38822505Y26877144D01*
X38831528Y26912289D01*
X38831528Y26912290D01*
X38833500Y26919970D01*
X38833500Y26940224D01*
X38835051Y26959935D01*
X38836980Y26972114D01*
X38838220Y26979943D01*
X38834059Y27023962D01*
X38833500Y27035819D01*
X38833500Y32885406D01*
X38853502Y32953527D01*
X38870405Y32974501D01*
X42428506Y36532601D01*
X43399712Y36532601D01*
X43421194Y36443463D01*
X43425083Y36432168D01*
X43507629Y36250618D01*
X43513576Y36240276D01*
X43628968Y36077603D01*
X43636761Y36068575D01*
X43780831Y35930658D01*
X43790196Y35923262D01*
X43957741Y35815079D01*
X43968345Y35809583D01*
X44153312Y35735039D01*
X44164770Y35731645D01*
X44361928Y35693143D01*
X44370791Y35692066D01*
X44373500Y35692000D01*
X44477885Y35692000D01*
X44493124Y35696475D01*
X44494329Y35697865D01*
X44496000Y35705548D01*
X44496000Y36527885D01*
X44491525Y36543124D01*
X44490135Y36544329D01*
X44482452Y36546000D01*
X43414598Y36546000D01*
X43401067Y36542027D01*
X43399712Y36532601D01*
X42428506Y36532601D01*
X43236343Y37340438D01*
X43298655Y37374464D01*
X43369471Y37369399D01*
G37*
%TD.AperFunction*%
%TD*%
M02*
