%TF.GenerationSoftware,KiCad,Pcbnew,(6.0.7)*%
%TF.CreationDate,2023-09-13T17:05:06+02:00*%
%TF.ProjectId,freqcount1.1,66726571-636f-4756-9e74-312e312e6b69,rev?*%
%TF.SameCoordinates,PX2562500PY632ea00*%
%TF.FileFunction,Plated,1,2,PTH,Drill*%
%TF.FilePolarity,Positive*%
%FSLAX46Y46*%
G04 Gerber Fmt 4.6, Leading zero omitted, Abs format (unit mm)*
G04 Created by KiCad (PCBNEW (6.0.7)) date 2023-09-13 17:05:06*
%MOMM*%
%LPD*%
G01*
G04 APERTURE LIST*
%TA.AperFunction,ViaDrill*%
%ADD10C,0.300000*%
%TD*%
%TA.AperFunction,ViaDrill*%
%ADD11C,0.400000*%
%TD*%
%TA.AperFunction,ComponentDrill*%
%ADD12C,0.750000*%
%TD*%
%TA.AperFunction,ComponentDrill*%
%ADD13C,0.800000*%
%TD*%
%TA.AperFunction,ComponentDrill*%
%ADD14C,1.000000*%
%TD*%
%TA.AperFunction,ComponentDrill*%
%ADD15C,1.500000*%
%TD*%
%TA.AperFunction,ComponentDrill*%
%ADD16C,1.700000*%
%TD*%
G04 APERTURE END LIST*
D10*
X47282557Y8275001D03*
X64816798Y44025001D03*
X69183202Y43374999D03*
X69183202Y35374999D03*
X72816798Y36025001D03*
X73200000Y44200000D03*
X77000000Y35400000D03*
X78616798Y43374999D03*
D11*
X12200000Y44600000D03*
X16800000Y42800000D03*
X18425000Y38375000D03*
X21250000Y38050000D03*
X22000000Y41600000D03*
X23000000Y37200000D03*
X24907500Y29507500D03*
X27200000Y44600000D03*
X29800000Y42000000D03*
X33800000Y25800000D03*
X34800000Y25200000D03*
X35800000Y24600000D03*
X36600000Y23400000D03*
X37400000Y5600000D03*
X39200000Y8800000D03*
X39600000Y6800000D03*
X40200000Y13800000D03*
X40200000Y11200000D03*
X41000000Y11800000D03*
X41000000Y10200000D03*
X41200000Y13400000D03*
X43200000Y4400000D03*
X45200000Y6600000D03*
X46000000Y7400000D03*
X47200000Y17400000D03*
X50000000Y13200000D03*
X50487701Y11687701D03*
X52200000Y12200000D03*
X53600000Y12200000D03*
X54400000Y17200000D03*
X55600000Y35000000D03*
X56800000Y39400000D03*
X57600000Y18400000D03*
X58600000Y13600000D03*
X58800000Y6200000D03*
X59200000Y9000000D03*
X62400000Y10200000D03*
X62600000Y43200000D03*
X62600000Y11200000D03*
X63400000Y13800000D03*
X63600000Y11800000D03*
X63800000Y31600000D03*
X64600000Y6400000D03*
X64800000Y39800000D03*
X65375000Y32775000D03*
X67200000Y6000000D03*
X67400000Y20000000D03*
X69000000Y4800000D03*
X69600000Y27800000D03*
X70000000Y17600000D03*
X71600000Y31600000D03*
X72200000Y37400000D03*
X72200000Y29400000D03*
X72400000Y39600000D03*
X72400000Y6400000D03*
X74000000Y11600000D03*
X75000000Y13800000D03*
X75212299Y11412299D03*
X75800000Y9000000D03*
X76000000Y12200000D03*
X76600000Y36400000D03*
X76600000Y32200000D03*
X76800000Y17600000D03*
X77019799Y16019799D03*
X78000000Y24000000D03*
D12*
%TO.C,J2*%
X4000000Y31600000D03*
X6000000Y31600000D03*
X8000000Y31600000D03*
%TO.C,J6*%
X39200000Y42800000D03*
X39200000Y40800000D03*
X39200000Y38800000D03*
X39200000Y36800000D03*
%TO.C,J3*%
X44750000Y42800000D03*
X44750000Y40800000D03*
X44750000Y38800000D03*
X44750000Y36800000D03*
%TO.C,J1*%
X60550000Y42800000D03*
X60550000Y40800000D03*
X60550000Y38800000D03*
X60550000Y36800000D03*
D13*
%TO.C,QA1*%
X42549000Y31525000D03*
X42549000Y23905000D03*
X57789000Y31525000D03*
X57789000Y23905000D03*
D14*
%TO.C,U11*%
X8710000Y25275000D03*
X8710000Y2415000D03*
X11250000Y25275000D03*
X11250000Y2415000D03*
X13790000Y25275000D03*
X13790000Y2415000D03*
X16330000Y25275000D03*
X16330000Y2415000D03*
X18870000Y25275000D03*
X18870000Y2415000D03*
X21410000Y25275000D03*
X21410000Y2415000D03*
X23950000Y25275000D03*
X23950000Y2415000D03*
X26490000Y25275000D03*
X26490000Y2415000D03*
%TO.C,F1*%
X28060000Y33810000D03*
X33140000Y33800000D03*
%TO.C,JP1*%
X64525000Y27800000D03*
X67065000Y27800000D03*
D15*
%TO.C,J4*%
X6000000Y40600000D03*
%TO.C,J5*%
X51800000Y40000000D03*
D16*
%TO.C,J4*%
X3460000Y43140000D03*
X3460000Y38060000D03*
X8540000Y43140000D03*
X8540000Y38060000D03*
%TO.C,J5*%
X49260000Y42540000D03*
X49260000Y37460000D03*
X54340000Y42540000D03*
X54340000Y37460000D03*
M02*
