%TF.GenerationSoftware,KiCad,Pcbnew,(6.0.7)*%
%TF.CreationDate,2023-09-13T17:05:02+02:00*%
%TF.ProjectId,freqcount1.1,66726571-636f-4756-9e74-312e312e6b69,rev?*%
%TF.SameCoordinates,PX2562500PY632ea00*%
%TF.FileFunction,Soldermask,Bot*%
%TF.FilePolarity,Negative*%
%FSLAX46Y46*%
G04 Gerber Fmt 4.6, Leading zero omitted, Abs format (unit mm)*
G04 Created by KiCad (PCBNEW (6.0.7)) date 2023-09-13 17:05:02*
%MOMM*%
%LPD*%
G01*
G04 APERTURE LIST*
G04 Aperture macros list*
%AMRoundRect*
0 Rectangle with rounded corners*
0 $1 Rounding radius*
0 $2 $3 $4 $5 $6 $7 $8 $9 X,Y pos of 4 corners*
0 Add a 4 corners polygon primitive as box body*
4,1,4,$2,$3,$4,$5,$6,$7,$8,$9,$2,$3,0*
0 Add four circle primitives for the rounded corners*
1,1,$1+$1,$2,$3*
1,1,$1+$1,$4,$5*
1,1,$1+$1,$6,$7*
1,1,$1+$1,$8,$9*
0 Add four rect primitives between the rounded corners*
20,1,$1+$1,$2,$3,$4,$5,0*
20,1,$1+$1,$4,$5,$6,$7,0*
20,1,$1+$1,$6,$7,$8,$9,0*
20,1,$1+$1,$8,$9,$2,$3,0*%
G04 Aperture macros list end*
%ADD10R,2.000000X2.000000*%
%ADD11O,1.600000X2.000000*%
%ADD12R,1.700000X1.700000*%
%ADD13O,1.700000X1.700000*%
%ADD14RoundRect,0.250000X-0.350000X-0.625000X0.350000X-0.625000X0.350000X0.625000X-0.350000X0.625000X0*%
%ADD15O,1.200000X1.750000*%
%ADD16RoundRect,0.250000X-0.625000X0.350000X-0.625000X-0.350000X0.625000X-0.350000X0.625000X0.350000X0*%
%ADD17O,1.750000X1.200000*%
%ADD18C,2.050000*%
%ADD19C,2.250000*%
%ADD20RoundRect,0.750000X-0.750000X-0.750000X0.750000X-0.750000X0.750000X0.750000X-0.750000X0.750000X0*%
%ADD21C,2.000000*%
G04 APERTURE END LIST*
D10*
%TO.C,U11*%
X26490000Y25275000D03*
D11*
X23950000Y25275000D03*
X21410000Y25275000D03*
X18870000Y25275000D03*
X16330000Y25275000D03*
X13790000Y25275000D03*
X11250000Y25275000D03*
X8710000Y25275000D03*
X8710000Y2415000D03*
X11250000Y2415000D03*
X13790000Y2415000D03*
X16330000Y2415000D03*
X18870000Y2415000D03*
X21410000Y2415000D03*
X23950000Y2415000D03*
X26490000Y2415000D03*
%TD*%
D12*
%TO.C,JP1*%
X64525000Y27800000D03*
D13*
X67065000Y27800000D03*
%TD*%
D14*
%TO.C,J2*%
X4000000Y31600000D03*
D15*
X6000000Y31600000D03*
X8000000Y31600000D03*
%TD*%
D16*
%TO.C,J6*%
X39200000Y42800000D03*
D17*
X39200000Y40800000D03*
X39200000Y38800000D03*
X39200000Y36800000D03*
%TD*%
D18*
%TO.C,J4*%
X6000000Y40600000D03*
D19*
X3460000Y43140000D03*
X3460000Y38060000D03*
X8540000Y43140000D03*
X8540000Y38060000D03*
%TD*%
D16*
%TO.C,J3*%
X44750000Y42800000D03*
D17*
X44750000Y40800000D03*
X44750000Y38800000D03*
X44750000Y36800000D03*
%TD*%
D20*
%TO.C,QA1*%
X42549000Y23905000D03*
X57789000Y23905000D03*
X57789000Y31525000D03*
X42549000Y31525000D03*
%TD*%
D18*
%TO.C,J5*%
X51800000Y40000000D03*
D19*
X54340000Y42540000D03*
X49260000Y42540000D03*
X54340000Y37460000D03*
X49260000Y37460000D03*
%TD*%
D16*
%TO.C,J1*%
X60550000Y42800000D03*
D17*
X60550000Y40800000D03*
X60550000Y38800000D03*
X60550000Y36800000D03*
%TD*%
D21*
%TO.C,F1*%
X28060000Y33810000D03*
X33140000Y33800000D03*
%TD*%
M02*
