%TF.GenerationSoftware,KiCad,Pcbnew,(6.0.7)*%
%TF.CreationDate,2023-09-13T17:05:02+02:00*%
%TF.ProjectId,freqcount1.1,66726571-636f-4756-9e74-312e312e6b69,rev?*%
%TF.SameCoordinates,PX2562500PY632ea00*%
%TF.FileFunction,Copper,L1,Top*%
%TF.FilePolarity,Positive*%
%FSLAX46Y46*%
G04 Gerber Fmt 4.6, Leading zero omitted, Abs format (unit mm)*
G04 Created by KiCad (PCBNEW (6.0.7)) date 2023-09-13 17:05:02*
%MOMM*%
%LPD*%
G01*
G04 APERTURE LIST*
G04 Aperture macros list*
%AMRoundRect*
0 Rectangle with rounded corners*
0 $1 Rounding radius*
0 $2 $3 $4 $5 $6 $7 $8 $9 X,Y pos of 4 corners*
0 Add a 4 corners polygon primitive as box body*
4,1,4,$2,$3,$4,$5,$6,$7,$8,$9,$2,$3,0*
0 Add four circle primitives for the rounded corners*
1,1,$1+$1,$2,$3*
1,1,$1+$1,$4,$5*
1,1,$1+$1,$6,$7*
1,1,$1+$1,$8,$9*
0 Add four rect primitives between the rounded corners*
20,1,$1+$1,$2,$3,$4,$5,0*
20,1,$1+$1,$4,$5,$6,$7,0*
20,1,$1+$1,$6,$7,$8,$9,0*
20,1,$1+$1,$8,$9,$2,$3,0*%
G04 Aperture macros list end*
%TA.AperFunction,SMDPad,CuDef*%
%ADD10R,0.600000X0.450000*%
%TD*%
%TA.AperFunction,SMDPad,CuDef*%
%ADD11RoundRect,0.200000X-0.200000X-0.275000X0.200000X-0.275000X0.200000X0.275000X-0.200000X0.275000X0*%
%TD*%
%TA.AperFunction,SMDPad,CuDef*%
%ADD12RoundRect,0.150000X-0.512500X-0.150000X0.512500X-0.150000X0.512500X0.150000X-0.512500X0.150000X0*%
%TD*%
%TA.AperFunction,ComponentPad*%
%ADD13R,2.000000X2.000000*%
%TD*%
%TA.AperFunction,ComponentPad*%
%ADD14O,1.600000X2.000000*%
%TD*%
%TA.AperFunction,ComponentPad*%
%ADD15R,1.700000X1.700000*%
%TD*%
%TA.AperFunction,ComponentPad*%
%ADD16O,1.700000X1.700000*%
%TD*%
%TA.AperFunction,ComponentPad*%
%ADD17RoundRect,0.250000X-0.350000X-0.625000X0.350000X-0.625000X0.350000X0.625000X-0.350000X0.625000X0*%
%TD*%
%TA.AperFunction,ComponentPad*%
%ADD18O,1.200000X1.750000*%
%TD*%
%TA.AperFunction,SMDPad,CuDef*%
%ADD19RoundRect,0.225000X-0.225000X-0.250000X0.225000X-0.250000X0.225000X0.250000X-0.225000X0.250000X0*%
%TD*%
%TA.AperFunction,ComponentPad*%
%ADD20RoundRect,0.250000X-0.625000X0.350000X-0.625000X-0.350000X0.625000X-0.350000X0.625000X0.350000X0*%
%TD*%
%TA.AperFunction,ComponentPad*%
%ADD21O,1.750000X1.200000*%
%TD*%
%TA.AperFunction,ComponentPad*%
%ADD22C,2.050000*%
%TD*%
%TA.AperFunction,ComponentPad*%
%ADD23C,2.250000*%
%TD*%
%TA.AperFunction,SMDPad,CuDef*%
%ADD24RoundRect,0.100000X-0.637500X-0.100000X0.637500X-0.100000X0.637500X0.100000X-0.637500X0.100000X0*%
%TD*%
%TA.AperFunction,ComponentPad*%
%ADD25RoundRect,0.750000X-0.750000X-0.750000X0.750000X-0.750000X0.750000X0.750000X-0.750000X0.750000X0*%
%TD*%
%TA.AperFunction,SMDPad,CuDef*%
%ADD26R,1.000000X0.400000*%
%TD*%
%TA.AperFunction,SMDPad,CuDef*%
%ADD27R,1.750000X0.450000*%
%TD*%
%TA.AperFunction,SMDPad,CuDef*%
%ADD28RoundRect,0.150000X-0.587500X-0.150000X0.587500X-0.150000X0.587500X0.150000X-0.587500X0.150000X0*%
%TD*%
%TA.AperFunction,SMDPad,CuDef*%
%ADD29RoundRect,0.200000X0.275000X-0.200000X0.275000X0.200000X-0.275000X0.200000X-0.275000X-0.200000X0*%
%TD*%
%TA.AperFunction,SMDPad,CuDef*%
%ADD30RoundRect,0.200000X0.200000X0.275000X-0.200000X0.275000X-0.200000X-0.275000X0.200000X-0.275000X0*%
%TD*%
%TA.AperFunction,SMDPad,CuDef*%
%ADD31R,3.100000X1.600000*%
%TD*%
%TA.AperFunction,ComponentPad*%
%ADD32C,2.000000*%
%TD*%
%TA.AperFunction,ViaPad*%
%ADD33C,0.800000*%
%TD*%
%TA.AperFunction,ViaPad*%
%ADD34C,0.600000*%
%TD*%
%TA.AperFunction,Conductor*%
%ADD35C,0.250000*%
%TD*%
G04 APERTURE END LIST*
D10*
%TO.P,D2,1,K*%
%TO.N,Net-(D1-Pad1)*%
X48400000Y17400000D03*
%TO.P,D2,2,A*%
%TO.N,Net-(D2-Pad2)*%
X50500000Y17400000D03*
%TD*%
D11*
%TO.P,R5,1*%
%TO.N,GND*%
X58800000Y5400000D03*
%TO.P,R5,2*%
%TO.N,Net-(R5-Pad2)*%
X60450000Y5400000D03*
%TD*%
D12*
%TO.P,U5,1*%
%TO.N,N/C*%
X55262500Y19350000D03*
%TO.P,U5,2*%
%TO.N,/Teiler_1Hz/1Hz_Puls*%
X55262500Y18400000D03*
%TO.P,U5,3,GND*%
%TO.N,GND*%
X55262500Y17450000D03*
%TO.P,U5,4*%
%TO.N,Net-(U5-Pad4)*%
X57537500Y17450000D03*
%TO.P,U5,5,VCC*%
%TO.N,+5V*%
X57537500Y19350000D03*
%TD*%
%TO.P,U12,1*%
%TO.N,N/C*%
X22000000Y44150000D03*
%TO.P,U12,2*%
%TO.N,Net-(C3-Pad2)*%
X22000000Y43200000D03*
%TO.P,U12,3,GND*%
%TO.N,GND*%
X22000000Y42250000D03*
%TO.P,U12,4*%
%TO.N,/Zaehler_Messsignal/Messsignal*%
X24275000Y42250000D03*
%TO.P,U12,5,VCC*%
%TO.N,+5V*%
X24275000Y44150000D03*
%TD*%
D11*
%TO.P,R2,1*%
%TO.N,GND*%
X43200000Y5200000D03*
%TO.P,R2,2*%
%TO.N,Net-(R2-Pad2)*%
X44850000Y5200000D03*
%TD*%
D13*
%TO.P,U11,1,~{RST}*%
%TO.N,unconnected-(U11-Pad1)*%
X26490000Y25275000D03*
D14*
%TO.P,U11,2,A0*%
%TO.N,unconnected-(U11-Pad2)*%
X23950000Y25275000D03*
%TO.P,U11,3,D0*%
%TO.N,unconnected-(U11-Pad3)*%
X21410000Y25275000D03*
%TO.P,U11,4,SCK/D5*%
%TO.N,unconnected-(U11-Pad4)*%
X18870000Y25275000D03*
%TO.P,U11,5,MISO/D6*%
%TO.N,unconnected-(U11-Pad5)*%
X16330000Y25275000D03*
%TO.P,U11,6,MOSI/D7*%
%TO.N,unconnected-(U11-Pad6)*%
X13790000Y25275000D03*
%TO.P,U11,7,CS/D8*%
%TO.N,unconnected-(U11-Pad7)*%
X11250000Y25275000D03*
%TO.P,U11,8,3V3*%
%TO.N,unconnected-(U11-Pad8)*%
X8710000Y25275000D03*
%TO.P,U11,9,5V*%
%TO.N,+5V*%
X8710000Y2415000D03*
%TO.P,U11,10,GND*%
%TO.N,GND*%
X11250000Y2415000D03*
%TO.P,U11,11,D4*%
%TO.N,unconnected-(U11-Pad11)*%
X13790000Y2415000D03*
%TO.P,U11,12,D3*%
%TO.N,unconnected-(U11-Pad12)*%
X16330000Y2415000D03*
%TO.P,U11,13,SDA/D2*%
%TO.N,/ESP/SDA*%
X18870000Y2415000D03*
%TO.P,U11,14,SCL/D1*%
%TO.N,/ESP/SCK*%
X21410000Y2415000D03*
%TO.P,U11,15,RX*%
%TO.N,Rx*%
X23950000Y2415000D03*
%TO.P,U11,16,TX*%
%TO.N,Tx*%
X26490000Y2415000D03*
%TD*%
D15*
%TO.P,JP1,1,A*%
%TO.N,+5V*%
X64525000Y27800000D03*
D16*
%TO.P,JP1,2,B*%
%TO.N,/Zaehler_Referenz/measure_select*%
X67065000Y27800000D03*
%TD*%
D11*
%TO.P,R3,1*%
%TO.N,Net-(D3-Pad1)*%
X66000000Y5400000D03*
%TO.P,R3,2*%
%TO.N,GND*%
X67650000Y5400000D03*
%TD*%
D17*
%TO.P,J2,1,Pin_1*%
%TO.N,+5V*%
X4000000Y31600000D03*
D18*
%TO.P,J2,2,Pin_2*%
%TO.N,/Zaehler_Messsignal/Messsignal*%
X6000000Y31600000D03*
%TO.P,J2,3,Pin_3*%
%TO.N,GND*%
X8000000Y31600000D03*
%TD*%
D19*
%TO.P,C1,1*%
%TO.N,Net-(C1-Pad1)*%
X11600000Y39400000D03*
%TO.P,C1,2*%
%TO.N,Net-(C1-Pad2)*%
X13150000Y39400000D03*
%TD*%
D20*
%TO.P,J6,1,Pin_1*%
%TO.N,Net-(F1-Pad1)*%
X39200000Y42800000D03*
D21*
%TO.P,J6,2,Pin_2*%
%TO.N,/ESP/SDA*%
X39200000Y40800000D03*
%TO.P,J6,3,Pin_3*%
%TO.N,/ESP/SCK*%
X39200000Y38800000D03*
%TO.P,J6,4,Pin_4*%
%TO.N,GND*%
X39200000Y36800000D03*
%TD*%
D22*
%TO.P,J4,1,In*%
%TO.N,Net-(J4-Pad1)*%
X6000000Y40600000D03*
D23*
%TO.P,J4,2,Ext*%
%TO.N,GND*%
X3460000Y43140000D03*
X3460000Y38060000D03*
X8540000Y43140000D03*
X8540000Y38060000D03*
%TD*%
D20*
%TO.P,J3,1,Pin_1*%
%TO.N,Net-(F1-Pad1)*%
X44750000Y42800000D03*
D21*
%TO.P,J3,2,Pin_2*%
%TO.N,Tx*%
X44750000Y40800000D03*
%TO.P,J3,3,Pin_3*%
%TO.N,Rx*%
X44750000Y38800000D03*
%TO.P,J3,4,Pin_4*%
%TO.N,GND*%
X44750000Y36800000D03*
%TD*%
D24*
%TO.P,U6,1,CKLA*%
%TO.N,/Zaehler_Messsignal/Messsignal*%
X38337500Y14925000D03*
%TO.P,U6,2,CLKB*%
X38337500Y14275000D03*
%TO.P,U6,3,~{GAL}*%
%TO.N,GAL1*%
X38337500Y13625000D03*
%TO.P,U6,4,~{GAU}*%
%TO.N,GAU1*%
X38337500Y12975000D03*
%TO.P,U6,5,~{GBL}*%
%TO.N,GBL1*%
X38337500Y12325000D03*
%TO.P,U6,6,~{GBU}*%
%TO.N,GBU1*%
X38337500Y11675000D03*
%TO.P,U6,7,RCLK*%
%TO.N,Net-(U5-Pad4)*%
X38337500Y11025000D03*
%TO.P,U6,8,~{RCOA}*%
%TO.N,Net-(U6-Pad8)*%
X38337500Y10375000D03*
%TO.P,U6,9,~{CLKBEN}*%
X38337500Y9725000D03*
%TO.P,U6,10,GND*%
%TO.N,GND*%
X38337500Y9075000D03*
%TO.P,U6,11,~{CCLR}*%
%TO.N,Net-(D1-Pad1)*%
X44062500Y9075000D03*
%TO.P,U6,12,Y7*%
%TO.N,Net-(U6-Pad12)*%
X44062500Y9725000D03*
%TO.P,U6,13,Y6*%
%TO.N,Net-(U6-Pad13)*%
X44062500Y10375000D03*
%TO.P,U6,14,Y5*%
%TO.N,Net-(U6-Pad14)*%
X44062500Y11025000D03*
%TO.P,U6,15,Y4*%
%TO.N,Net-(U6-Pad15)*%
X44062500Y11675000D03*
%TO.P,U6,16,Y3*%
%TO.N,Net-(U6-Pad16)*%
X44062500Y12325000D03*
%TO.P,U6,17,Y2*%
%TO.N,Net-(U6-Pad17)*%
X44062500Y12975000D03*
%TO.P,U6,18,Y1*%
%TO.N,Net-(U6-Pad18)*%
X44062500Y13625000D03*
%TO.P,U6,19,Y0*%
%TO.N,Net-(U6-Pad19)*%
X44062500Y14275000D03*
%TO.P,U6,20,VCC*%
%TO.N,+5V*%
X44062500Y14925000D03*
%TD*%
D25*
%TO.P,QA1,1,Vcontrol*%
%TO.N,Net-(J1-Pad2)*%
X42549000Y23905000D03*
%TO.P,QA1,7,GND*%
%TO.N,GND*%
X57789000Y23905000D03*
%TO.P,QA1,8,Out*%
%TO.N,/Teiler_1Hz/10MHz_Referenz*%
X57789000Y31525000D03*
%TO.P,QA1,14,Vin*%
%TO.N,+5V*%
X42549000Y31525000D03*
%TD*%
D11*
%TO.P,R6,1*%
%TO.N,Net-(R6-Pad1)*%
X11600000Y36400000D03*
%TO.P,R6,2*%
%TO.N,Net-(C1-Pad1)*%
X13250000Y36400000D03*
%TD*%
D26*
%TO.P,U1,1,~{CP0}*%
%TO.N,/Teiler_1Hz/10MHz_Referenz*%
X64100000Y44675000D03*
%TO.P,U1,2,MR*%
%TO.N,GND*%
X64100000Y44025000D03*
%TO.P,U1,3,Q0*%
%TO.N,Net-(U1-Pad3)*%
X64100000Y43375000D03*
%TO.P,U1,4,~{CP1}*%
X64100000Y42725000D03*
%TO.P,U1,5,Q1*%
%TO.N,unconnected-(U1-Pad5)*%
X64100000Y42075000D03*
%TO.P,U1,6,Q2*%
%TO.N,unconnected-(U1-Pad6)*%
X64100000Y41425000D03*
%TO.P,U1,7,Q3*%
%TO.N,Net-(U1-Pad15)*%
X64100000Y40775000D03*
%TO.P,U1,8,GND*%
%TO.N,GND*%
X64100000Y40125000D03*
%TO.P,U1,9,Q3*%
%TO.N,Net-(U1-Pad9)*%
X69900000Y40125000D03*
%TO.P,U1,10,Q2*%
%TO.N,unconnected-(U1-Pad10)*%
X69900000Y40775000D03*
%TO.P,U1,11,Q1*%
%TO.N,unconnected-(U1-Pad11)*%
X69900000Y41425000D03*
%TO.P,U1,12,~{CP1}*%
%TO.N,Net-(U1-Pad12)*%
X69900000Y42075000D03*
%TO.P,U1,13,Q0*%
X69900000Y42725000D03*
%TO.P,U1,14,MR*%
%TO.N,GND*%
X69900000Y43375000D03*
%TO.P,U1,15,~{CP0}*%
%TO.N,Net-(U1-Pad15)*%
X69900000Y44025000D03*
%TO.P,U1,16,VCC*%
%TO.N,+5V*%
X69900000Y44675000D03*
%TD*%
D12*
%TO.P,U8,1*%
%TO.N,N/C*%
X75862500Y19550000D03*
%TO.P,U8,2*%
%TO.N,/Teiler_1Hz/1Hz_Puls*%
X75862500Y18600000D03*
%TO.P,U8,3,GND*%
%TO.N,GND*%
X75862500Y17650000D03*
%TO.P,U8,4*%
%TO.N,Net-(U8-Pad4)*%
X78137500Y17650000D03*
%TO.P,U8,5,VCC*%
%TO.N,+5V*%
X78137500Y19550000D03*
%TD*%
D27*
%TO.P,U7,1,GPB0*%
%TO.N,Net-(U6-Pad19)*%
X48420000Y14125000D03*
%TO.P,U7,2,GPB1*%
%TO.N,Net-(U6-Pad18)*%
X48420000Y13475000D03*
%TO.P,U7,3,GPB2*%
%TO.N,Net-(U6-Pad17)*%
X48420000Y12825000D03*
%TO.P,U7,4,GPB3*%
%TO.N,Net-(U6-Pad16)*%
X48420000Y12175000D03*
%TO.P,U7,5,GPB4*%
%TO.N,Net-(U6-Pad15)*%
X48420000Y11525000D03*
%TO.P,U7,6,GPB5*%
%TO.N,Net-(U6-Pad14)*%
X48420000Y10875000D03*
%TO.P,U7,7,GPB6*%
%TO.N,Net-(U6-Pad13)*%
X48420000Y10225000D03*
%TO.P,U7,8,GPB7*%
%TO.N,Net-(U6-Pad12)*%
X48420000Y9575000D03*
%TO.P,U7,9,VDD*%
%TO.N,+5V*%
X48420000Y8925000D03*
%TO.P,U7,10,VSS*%
%TO.N,GND*%
X48420000Y8275000D03*
%TO.P,U7,11,NC*%
%TO.N,unconnected-(U7-Pad11)*%
X48420000Y7625000D03*
%TO.P,U7,12,SCK*%
%TO.N,/ESP/SCK*%
X48420000Y6975000D03*
%TO.P,U7,13,SDA*%
%TO.N,/ESP/SDA*%
X48420000Y6325000D03*
%TO.P,U7,14,NC*%
%TO.N,unconnected-(U7-Pad14)*%
X48420000Y5675000D03*
%TO.P,U7,15,A0*%
%TO.N,Net-(R2-Pad2)*%
X55620000Y5675000D03*
%TO.P,U7,16,A1*%
X55620000Y6325000D03*
%TO.P,U7,17,A2*%
X55620000Y6975000D03*
%TO.P,U7,18,~{RESET}*%
%TO.N,+5V*%
X55620000Y7625000D03*
%TO.P,U7,19,INTB*%
%TO.N,unconnected-(U7-Pad19)*%
X55620000Y8275000D03*
%TO.P,U7,20,INTA*%
%TO.N,unconnected-(U7-Pad20)*%
X55620000Y8925000D03*
%TO.P,U7,21,GPA0*%
%TO.N,GAL1*%
X55620000Y9575000D03*
%TO.P,U7,22,GPA1*%
%TO.N,GAU1*%
X55620000Y10225000D03*
%TO.P,U7,23,GPA2*%
%TO.N,GBL1*%
X55620000Y10875000D03*
%TO.P,U7,24,GPA3*%
%TO.N,GBU1*%
X55620000Y11525000D03*
%TO.P,U7,25,GPA4*%
%TO.N,unconnected-(U7-Pad25)*%
X55620000Y12175000D03*
%TO.P,U7,26,GPA5*%
%TO.N,unconnected-(U7-Pad26)*%
X55620000Y12825000D03*
%TO.P,U7,27,GPA6*%
%TO.N,Net-(D2-Pad2)*%
X55620000Y13475000D03*
%TO.P,U7,28,GPA7*%
%TO.N,Net-(D1-Pad2)*%
X55620000Y14125000D03*
%TD*%
D28*
%TO.P,D7,1*%
%TO.N,GND*%
X11600000Y44100000D03*
%TO.P,D7,2*%
%TO.N,+5V*%
X11600000Y42200000D03*
%TO.P,D7,3*%
%TO.N,Net-(C1-Pad2)*%
X13475000Y43150000D03*
%TD*%
D22*
%TO.P,J5,1,In*%
%TO.N,/Teiler_1Hz/10MHz_Referenz*%
X51800000Y40000000D03*
D23*
%TO.P,J5,2,Ext*%
%TO.N,GND*%
X54340000Y42540000D03*
X49260000Y42540000D03*
X54340000Y37460000D03*
X49260000Y37460000D03*
%TD*%
D19*
%TO.P,C2,1*%
%TO.N,Net-(C1-Pad2)*%
X14800000Y39400000D03*
%TO.P,C2,2*%
%TO.N,Net-(C2-Pad2)*%
X16350000Y39400000D03*
%TD*%
D26*
%TO.P,U3,1,~{CP0}*%
%TO.N,Net-(U3-Pad1)*%
X64100000Y36675000D03*
%TO.P,U3,2,MR*%
%TO.N,GND*%
X64100000Y36025000D03*
%TO.P,U3,3,Q0*%
%TO.N,Net-(U3-Pad3)*%
X64100000Y35375000D03*
%TO.P,U3,4,~{CP1}*%
X64100000Y34725000D03*
%TO.P,U3,5,Q1*%
%TO.N,unconnected-(U3-Pad5)*%
X64100000Y34075000D03*
%TO.P,U3,6,Q2*%
%TO.N,unconnected-(U3-Pad6)*%
X64100000Y33425000D03*
%TO.P,U3,7,Q3*%
%TO.N,Net-(U3-Pad7)*%
X64100000Y32775000D03*
%TO.P,U3,8,GND*%
%TO.N,GND*%
X64100000Y32125000D03*
%TO.P,U3,9,Q3*%
%TO.N,Net-(U3-Pad1)*%
X69900000Y32125000D03*
%TO.P,U3,10,Q2*%
%TO.N,unconnected-(U3-Pad10)*%
X69900000Y32775000D03*
%TO.P,U3,11,Q1*%
%TO.N,unconnected-(U3-Pad11)*%
X69900000Y33425000D03*
%TO.P,U3,12,~{CP1}*%
%TO.N,Net-(U3-Pad12)*%
X69900000Y34075000D03*
%TO.P,U3,13,Q0*%
X69900000Y34725000D03*
%TO.P,U3,14,MR*%
%TO.N,GND*%
X69900000Y35375000D03*
%TO.P,U3,15,~{CP0}*%
%TO.N,Net-(U2-Pad7)*%
X69900000Y36025000D03*
%TO.P,U3,16,VCC*%
%TO.N,+5V*%
X69900000Y36675000D03*
%TD*%
D28*
%TO.P,D5,1*%
%TO.N,GND*%
X27862500Y44150000D03*
%TO.P,D5,2*%
%TO.N,+5V*%
X27862500Y42250000D03*
%TO.P,D5,3*%
%TO.N,/Zaehler_Messsignal/Messsignal*%
X29737500Y43200000D03*
%TD*%
D24*
%TO.P,U9,1,CKLA*%
%TO.N,/Teiler_1Hz/10MHz_Referenz*%
X60237500Y14925000D03*
%TO.P,U9,2,CLKB*%
X60237500Y14275000D03*
%TO.P,U9,3,~{GAL}*%
%TO.N,GAL2*%
X60237500Y13625000D03*
%TO.P,U9,4,~{GAU}*%
%TO.N,GAU2*%
X60237500Y12975000D03*
%TO.P,U9,5,~{GBL}*%
%TO.N,GBL2*%
X60237500Y12325000D03*
%TO.P,U9,6,~{GBU}*%
%TO.N,GBU2*%
X60237500Y11675000D03*
%TO.P,U9,7,RCLK*%
%TO.N,Net-(U8-Pad4)*%
X60237500Y11025000D03*
%TO.P,U9,8,~{RCOA}*%
%TO.N,Net-(U9-Pad8)*%
X60237500Y10375000D03*
%TO.P,U9,9,~{CLKBEN}*%
X60237500Y9725000D03*
%TO.P,U9,10,GND*%
%TO.N,GND*%
X60237500Y9075000D03*
%TO.P,U9,11,~{CCLR}*%
%TO.N,Net-(D3-Pad1)*%
X65962500Y9075000D03*
%TO.P,U9,12,Y7*%
%TO.N,Net-(U10-Pad8)*%
X65962500Y9725000D03*
%TO.P,U9,13,Y6*%
%TO.N,Net-(U10-Pad7)*%
X65962500Y10375000D03*
%TO.P,U9,14,Y5*%
%TO.N,Net-(U10-Pad6)*%
X65962500Y11025000D03*
%TO.P,U9,15,Y4*%
%TO.N,Net-(U10-Pad5)*%
X65962500Y11675000D03*
%TO.P,U9,16,Y3*%
%TO.N,Net-(U10-Pad4)*%
X65962500Y12325000D03*
%TO.P,U9,17,Y2*%
%TO.N,Net-(U10-Pad3)*%
X65962500Y12975000D03*
%TO.P,U9,18,Y1*%
%TO.N,Net-(U10-Pad2)*%
X65962500Y13625000D03*
%TO.P,U9,19,Y0*%
%TO.N,Net-(U10-Pad1)*%
X65962500Y14275000D03*
%TO.P,U9,20,VCC*%
%TO.N,+5V*%
X65962500Y14925000D03*
%TD*%
D26*
%TO.P,U2,1,~{CP0}*%
%TO.N,Net-(U1-Pad9)*%
X72100000Y44675000D03*
%TO.P,U2,2,MR*%
%TO.N,GND*%
X72100000Y44025000D03*
%TO.P,U2,3,Q0*%
%TO.N,Net-(U2-Pad3)*%
X72100000Y43375000D03*
%TO.P,U2,4,~{CP1}*%
X72100000Y42725000D03*
%TO.P,U2,5,Q1*%
%TO.N,unconnected-(U2-Pad5)*%
X72100000Y42075000D03*
%TO.P,U2,6,Q2*%
%TO.N,unconnected-(U2-Pad6)*%
X72100000Y41425000D03*
%TO.P,U2,7,Q3*%
%TO.N,Net-(U2-Pad7)*%
X72100000Y40775000D03*
%TO.P,U2,8,GND*%
%TO.N,GND*%
X72100000Y40125000D03*
%TO.P,U2,9,Q3*%
%TO.N,unconnected-(U2-Pad9)*%
X77900000Y40125000D03*
%TO.P,U2,10,Q2*%
%TO.N,unconnected-(U2-Pad10)*%
X77900000Y40775000D03*
%TO.P,U2,11,Q1*%
%TO.N,unconnected-(U2-Pad11)*%
X77900000Y41425000D03*
%TO.P,U2,12,~{CP1}*%
%TO.N,unconnected-(U2-Pad12)*%
X77900000Y42075000D03*
%TO.P,U2,13,Q0*%
%TO.N,/Teiler_1Hz/1Hz_Puls*%
X77900000Y42725000D03*
%TO.P,U2,14,MR*%
%TO.N,GND*%
X77900000Y43375000D03*
%TO.P,U2,15,~{CP0}*%
%TO.N,Net-(U2-Pad15)*%
X77900000Y44025000D03*
%TO.P,U2,16,VCC*%
%TO.N,+5V*%
X77900000Y44675000D03*
%TD*%
%TO.P,U4,1,~{CP0}*%
%TO.N,Net-(U4-Pad1)*%
X72100000Y36675000D03*
%TO.P,U4,2,MR*%
%TO.N,GND*%
X72100000Y36025000D03*
%TO.P,U4,3,Q0*%
%TO.N,Net-(U4-Pad3)*%
X72100000Y35375000D03*
%TO.P,U4,4,~{CP1}*%
X72100000Y34725000D03*
%TO.P,U4,5,Q1*%
%TO.N,unconnected-(U4-Pad5)*%
X72100000Y34075000D03*
%TO.P,U4,6,Q2*%
%TO.N,unconnected-(U4-Pad6)*%
X72100000Y33425000D03*
%TO.P,U4,7,Q3*%
%TO.N,Net-(U2-Pad15)*%
X72100000Y32775000D03*
%TO.P,U4,8,GND*%
%TO.N,GND*%
X72100000Y32125000D03*
%TO.P,U4,9,Q3*%
%TO.N,Net-(U4-Pad1)*%
X77900000Y32125000D03*
%TO.P,U4,10,Q2*%
%TO.N,unconnected-(U4-Pad10)*%
X77900000Y32775000D03*
%TO.P,U4,11,Q1*%
%TO.N,unconnected-(U4-Pad11)*%
X77900000Y33425000D03*
%TO.P,U4,12,~{CP1}*%
%TO.N,Net-(U4-Pad12)*%
X77900000Y34075000D03*
%TO.P,U4,13,Q0*%
X77900000Y34725000D03*
%TO.P,U4,14,MR*%
%TO.N,GND*%
X77900000Y35375000D03*
%TO.P,U4,15,~{CP0}*%
%TO.N,Net-(U3-Pad7)*%
X77900000Y36025000D03*
%TO.P,U4,16,VCC*%
%TO.N,+5V*%
X77900000Y36675000D03*
%TD*%
D29*
%TO.P,R11,1*%
%TO.N,/Zaehler_Referenz/measure_select*%
X71800000Y27000000D03*
%TO.P,R11,2*%
%TO.N,GND*%
X71800000Y28650000D03*
%TD*%
D11*
%TO.P,R4,1*%
%TO.N,+5V*%
X62200000Y5400000D03*
%TO.P,R4,2*%
%TO.N,Net-(R4-Pad2)*%
X63850000Y5400000D03*
%TD*%
D10*
%TO.P,D1,1,K*%
%TO.N,Net-(D1-Pad1)*%
X48400000Y20000000D03*
%TO.P,D1,2,A*%
%TO.N,Net-(D1-Pad2)*%
X50500000Y20000000D03*
%TD*%
D30*
%TO.P,R10,1*%
%TO.N,Net-(C3-Pad2)*%
X24450000Y36400000D03*
%TO.P,R10,2*%
%TO.N,GND*%
X22800000Y36400000D03*
%TD*%
D27*
%TO.P,U10,1,GPB0*%
%TO.N,Net-(U10-Pad1)*%
X70590000Y14225000D03*
%TO.P,U10,2,GPB1*%
%TO.N,Net-(U10-Pad2)*%
X70590000Y13575000D03*
%TO.P,U10,3,GPB2*%
%TO.N,Net-(U10-Pad3)*%
X70590000Y12925000D03*
%TO.P,U10,4,GPB3*%
%TO.N,Net-(U10-Pad4)*%
X70590000Y12275000D03*
%TO.P,U10,5,GPB4*%
%TO.N,Net-(U10-Pad5)*%
X70590000Y11625000D03*
%TO.P,U10,6,GPB5*%
%TO.N,Net-(U10-Pad6)*%
X70590000Y10975000D03*
%TO.P,U10,7,GPB6*%
%TO.N,Net-(U10-Pad7)*%
X70590000Y10325000D03*
%TO.P,U10,8,GPB7*%
%TO.N,Net-(U10-Pad8)*%
X70590000Y9675000D03*
%TO.P,U10,9,VDD*%
%TO.N,+5V*%
X70590000Y9025000D03*
%TO.P,U10,10,VSS*%
%TO.N,GND*%
X70590000Y8375000D03*
%TO.P,U10,11,NC*%
%TO.N,unconnected-(U10-Pad11)*%
X70590000Y7725000D03*
%TO.P,U10,12,SCK*%
%TO.N,/ESP/SCK*%
X70590000Y7075000D03*
%TO.P,U10,13,SDA*%
%TO.N,/ESP/SDA*%
X70590000Y6425000D03*
%TO.P,U10,14,NC*%
%TO.N,unconnected-(U10-Pad14)*%
X70590000Y5775000D03*
%TO.P,U10,15,A0*%
%TO.N,Net-(R5-Pad2)*%
X77790000Y5775000D03*
%TO.P,U10,16,A1*%
X77790000Y6425000D03*
%TO.P,U10,17,A2*%
%TO.N,Net-(R4-Pad2)*%
X77790000Y7075000D03*
%TO.P,U10,18,~{RESET}*%
%TO.N,+5V*%
X77790000Y7725000D03*
%TO.P,U10,19,INTB*%
%TO.N,unconnected-(U10-Pad19)*%
X77790000Y8375000D03*
%TO.P,U10,20,INTA*%
%TO.N,unconnected-(U10-Pad20)*%
X77790000Y9025000D03*
%TO.P,U10,21,GPA0*%
%TO.N,GAL2*%
X77790000Y9675000D03*
%TO.P,U10,22,GPA1*%
%TO.N,GAU2*%
X77790000Y10325000D03*
%TO.P,U10,23,GPA2*%
%TO.N,GBL2*%
X77790000Y10975000D03*
%TO.P,U10,24,GPA3*%
%TO.N,GBU2*%
X77790000Y11625000D03*
%TO.P,U10,25,GPA4*%
%TO.N,unconnected-(U10-Pad25)*%
X77790000Y12275000D03*
%TO.P,U10,26,GPA5*%
%TO.N,/Zaehler_Referenz/measure_select*%
X77790000Y12925000D03*
%TO.P,U10,27,GPA6*%
%TO.N,Net-(D4-Pad2)*%
X77790000Y13575000D03*
%TO.P,U10,28,GPA7*%
%TO.N,Net-(D3-Pad2)*%
X77790000Y14225000D03*
%TD*%
D11*
%TO.P,R8,1*%
%TO.N,+5V*%
X19600000Y39400000D03*
%TO.P,R8,2*%
%TO.N,Net-(C3-Pad1)*%
X21250000Y39400000D03*
%TD*%
D19*
%TO.P,C3,1*%
%TO.N,Net-(C3-Pad1)*%
X22800000Y39400000D03*
%TO.P,C3,2*%
%TO.N,Net-(C3-Pad2)*%
X24350000Y39400000D03*
%TD*%
D28*
%TO.P,Q1,1,B*%
%TO.N,Net-(C2-Pad2)*%
X16600000Y44100000D03*
%TO.P,Q1,2,E*%
%TO.N,GND*%
X16600000Y42200000D03*
%TO.P,Q1,3,C*%
%TO.N,Net-(C3-Pad1)*%
X18475000Y43150000D03*
%TD*%
D31*
%TO.P,SW1,1*%
%TO.N,Net-(J4-Pad1)*%
X13200000Y32140000D03*
%TO.P,SW1,2*%
X13200000Y29600000D03*
%TO.P,SW1,3*%
%TO.N,/Zaehler_Messsignal/Messsignal*%
X22090000Y29600000D03*
%TO.P,SW1,4*%
%TO.N,Net-(R6-Pad1)*%
X22090000Y32140000D03*
%TD*%
D20*
%TO.P,J1,1,Pin_1*%
%TO.N,+5V*%
X60550000Y42800000D03*
D21*
%TO.P,J1,2,Pin_2*%
%TO.N,Net-(J1-Pad2)*%
X60550000Y40800000D03*
%TO.P,J1,3,Pin_3*%
%TO.N,/Teiler_1Hz/10MHz_Referenz*%
X60550000Y38800000D03*
%TO.P,J1,4,Pin_4*%
%TO.N,GND*%
X60550000Y36800000D03*
%TD*%
D11*
%TO.P,R9,1*%
%TO.N,+5V*%
X19600000Y36400000D03*
%TO.P,R9,2*%
%TO.N,Net-(C3-Pad2)*%
X21250000Y36400000D03*
%TD*%
D32*
%TO.P,F1,1*%
%TO.N,Net-(F1-Pad1)*%
X28060000Y33810000D03*
%TO.P,F1,2*%
%TO.N,+5V*%
X33140000Y33800000D03*
%TD*%
D30*
%TO.P,R7,1*%
%TO.N,Net-(C3-Pad1)*%
X16450000Y36400000D03*
%TO.P,R7,2*%
%TO.N,Net-(C2-Pad2)*%
X14800000Y36400000D03*
%TD*%
%TO.P,R1,1*%
%TO.N,Net-(D1-Pad1)*%
X39650000Y5200000D03*
%TO.P,R1,2*%
%TO.N,GND*%
X38000000Y5200000D03*
%TD*%
D10*
%TO.P,D4,1,K*%
%TO.N,Net-(D3-Pad1)*%
X71000000Y17600000D03*
%TO.P,D4,2,A*%
%TO.N,Net-(D4-Pad2)*%
X73100000Y17600000D03*
%TD*%
%TO.P,D3,1,K*%
%TO.N,Net-(D3-Pad1)*%
X71000000Y20200000D03*
%TO.P,D3,2,A*%
%TO.N,Net-(D3-Pad2)*%
X73100000Y20200000D03*
%TD*%
D33*
%TO.N,Net-(D3-Pad1)*%
X70000000Y17600000D03*
X64600000Y6400000D03*
%TO.N,Net-(D1-Pad1)*%
X39600000Y6800000D03*
X47200000Y17400000D03*
%TO.N,+5V*%
X67400000Y20000000D03*
X78000000Y24000000D03*
%TO.N,GND*%
X22000000Y41600000D03*
D34*
X72816798Y36025001D03*
D33*
X58800000Y6200000D03*
D34*
X77000000Y35400000D03*
D33*
X71600000Y31600000D03*
X54400000Y17200000D03*
X72400000Y39600000D03*
D34*
X78616798Y43374999D03*
D33*
X23000000Y37200000D03*
D34*
X69183202Y43374999D03*
D33*
X64800000Y39800000D03*
X67200000Y6000000D03*
X76800000Y17600000D03*
X72200000Y29400000D03*
X39200000Y8800000D03*
X27200000Y44600000D03*
D34*
X64816798Y44025001D03*
X73200000Y44200000D03*
D33*
X59200000Y9000000D03*
X12200000Y44600000D03*
X63800000Y31600000D03*
X43200000Y4400000D03*
X16800000Y42800000D03*
X37400000Y5600000D03*
D34*
X47282557Y8275001D03*
X69183202Y35374999D03*
D33*
%TO.N,Rx*%
X35800000Y24600000D03*
%TO.N,Tx*%
X36600000Y23400000D03*
%TO.N,Net-(U3-Pad7)*%
X65375000Y32775000D03*
X76600000Y36400000D03*
%TO.N,Net-(U4-Pad1)*%
X76600000Y32200000D03*
X72200000Y37400000D03*
%TO.N,Net-(U5-Pad4)*%
X57600000Y18400000D03*
X41000000Y10200000D03*
%TO.N,GAL1*%
X50487701Y11687701D03*
X40200000Y13800000D03*
%TO.N,GAU1*%
X41200000Y13400000D03*
X50000000Y13200000D03*
%TO.N,GBL1*%
X41000000Y11800000D03*
X52200000Y12200000D03*
%TO.N,GBU1*%
X40200000Y11200000D03*
X53600000Y12200000D03*
%TO.N,Net-(U8-Pad4)*%
X62400000Y10200000D03*
X77019799Y16019799D03*
%TO.N,GAL2*%
X58600000Y13600000D03*
X75800000Y9000000D03*
%TO.N,GAU2*%
X74000000Y11600000D03*
X63400000Y13800000D03*
%TO.N,GBL2*%
X75212299Y11412299D03*
X63600000Y11800000D03*
%TO.N,GBU2*%
X62600000Y11200000D03*
X76000000Y12200000D03*
%TO.N,/Zaehler_Referenz/measure_select*%
X75000000Y13800000D03*
X69600000Y27800000D03*
%TO.N,/Teiler_1Hz/10MHz_Referenz*%
X62600000Y43200000D03*
%TO.N,/ESP/SCK*%
X46000000Y7400000D03*
X72400000Y6400000D03*
X34800000Y25200000D03*
%TO.N,/ESP/SDA*%
X69000000Y4800000D03*
X33800000Y25800000D03*
X45200000Y6600000D03*
%TO.N,Net-(J1-Pad2)*%
X56800000Y39400000D03*
X55600000Y35000000D03*
%TO.N,Net-(C3-Pad1)*%
X18425000Y38375000D03*
X21250000Y38050000D03*
%TO.N,/Zaehler_Messsignal/Messsignal*%
X29800000Y42000000D03*
X24907500Y29507500D03*
%TD*%
D35*
%TO.N,Net-(D1-Pad2)*%
X50500000Y20000000D02*
X50500000Y18500000D01*
X50500000Y18500000D02*
X54875000Y14125000D01*
X54875000Y14125000D02*
X55620000Y14125000D01*
%TO.N,Net-(D3-Pad1)*%
X66000000Y5400000D02*
X66000000Y7200000D01*
X66000000Y9037500D02*
X65962500Y9075000D01*
X66000000Y6800000D02*
X66000000Y7200000D01*
X71000000Y20200000D02*
X71000000Y17600000D01*
X71000000Y17600000D02*
X70000000Y17600000D01*
X66000000Y7200000D02*
X66000000Y9037500D01*
X65000000Y6800000D02*
X66000000Y6800000D01*
X64600000Y6400000D02*
X65000000Y6800000D01*
%TO.N,Net-(D1-Pad1)*%
X48400000Y17400000D02*
X47200000Y17400000D01*
X39650000Y5200000D02*
X43525000Y9075000D01*
X43525000Y9075000D02*
X44062500Y9075000D01*
X39650000Y6750000D02*
X39600000Y6800000D01*
X48400000Y20000000D02*
X48400000Y17400000D01*
X39650000Y5200000D02*
X39650000Y6750000D01*
%TO.N,Net-(D2-Pad2)*%
X54525000Y13375000D02*
X55600000Y13375000D01*
X50500000Y17400000D02*
X54525000Y13375000D01*
%TO.N,+5V*%
X59975000Y7625000D02*
X62200000Y5400000D01*
X77900000Y44675000D02*
X78650000Y44675000D01*
X33140000Y33800000D02*
X35415000Y31525000D01*
X12832538Y35600000D02*
X18800000Y35600000D01*
X79400000Y37200000D02*
X79400000Y24000000D01*
X48398606Y45200000D02*
X60600000Y45200000D01*
X78650000Y44675000D02*
X79400000Y43925000D01*
X72915000Y7800000D02*
X77715000Y7800000D01*
X27862500Y42250000D02*
X27637500Y42025000D01*
X55620000Y7625000D02*
X50820000Y7625000D01*
X79400000Y43925000D02*
X79400000Y37200000D01*
X50820000Y7625000D02*
X49520000Y8925000D01*
X61537500Y19350000D02*
X65962500Y14925000D01*
X44062500Y14925000D02*
X39925000Y19062500D01*
X77715000Y7800000D02*
X77790000Y7725000D01*
X42549000Y31525000D02*
X46983607Y35959607D01*
X67400000Y15200000D02*
X67400000Y20000000D01*
X79400000Y37200000D02*
X78875000Y36675000D01*
X79400000Y24000000D02*
X79400000Y20812500D01*
X79400000Y24000000D02*
X78000000Y24000000D01*
X23225000Y45200000D02*
X24275000Y44150000D01*
X1400000Y43200000D02*
X1400000Y34200000D01*
X71690000Y9025000D02*
X72915000Y7800000D01*
X66125000Y36675000D02*
X69900000Y36675000D01*
X49520000Y8925000D02*
X48420000Y8925000D01*
X35415000Y31525000D02*
X39925000Y31525000D01*
X46983607Y35959607D02*
X46983607Y43785001D01*
X78875000Y36675000D02*
X77900000Y36675000D01*
X18800000Y35600000D02*
X19600000Y36400000D01*
X10346443Y778557D02*
X8710000Y2415000D01*
X9210000Y44590000D02*
X2790000Y44590000D01*
X60600000Y42850000D02*
X60550000Y42800000D01*
X2790000Y44590000D02*
X1400000Y43200000D01*
X55620000Y7625000D02*
X59975000Y7625000D01*
X20200000Y45200000D02*
X23225000Y45200000D01*
X48420000Y8925000D02*
X45251041Y8925000D01*
X61750000Y41600000D02*
X61750000Y41050000D01*
X1400000Y34200000D02*
X4000000Y31600000D01*
X26400000Y31600000D02*
X30940000Y31600000D01*
X45251041Y8925000D02*
X37104598Y778557D01*
X57537500Y19350000D02*
X61537500Y19350000D01*
X11600000Y42200000D02*
X10825000Y41425000D01*
X37104598Y778557D02*
X10346443Y778557D01*
X67125000Y14925000D02*
X67400000Y15200000D01*
X5385000Y2415000D02*
X4000000Y3800000D01*
X12525000Y35907538D02*
X12832538Y35600000D01*
X19600000Y36400000D02*
X19600000Y39400000D01*
X60600000Y45200000D02*
X60600000Y42850000D01*
X4000000Y3800000D02*
X4000000Y31600000D01*
X60600000Y45200000D02*
X69375000Y45200000D01*
X39925000Y31525000D02*
X42549000Y31525000D01*
X65962500Y14925000D02*
X67125000Y14925000D01*
X77375000Y45200000D02*
X77900000Y44675000D01*
X60550000Y42800000D02*
X61750000Y41600000D01*
X79400000Y20812500D02*
X78137500Y19550000D01*
X8710000Y2415000D02*
X5385000Y2415000D01*
X10825000Y41425000D02*
X10825000Y38392462D01*
X69375000Y45200000D02*
X77375000Y45200000D01*
X69375000Y45200000D02*
X69900000Y44675000D01*
X10825000Y38392462D02*
X12525000Y36692462D01*
X79400000Y8200000D02*
X78925000Y7725000D01*
X46983607Y43785001D02*
X48398606Y45200000D01*
X70590000Y9025000D02*
X71690000Y9025000D01*
X26400000Y42025000D02*
X26400000Y31600000D01*
X78925000Y7725000D02*
X77790000Y7725000D01*
X20200000Y40000000D02*
X20200000Y45200000D01*
X27637500Y42025000D02*
X26400000Y42025000D01*
X19600000Y39400000D02*
X20200000Y40000000D01*
X39925000Y19062500D02*
X39925000Y31525000D01*
X30940000Y31600000D02*
X33140000Y33800000D01*
X24275000Y44150000D02*
X26400000Y42025000D01*
X11600000Y42200000D02*
X9210000Y44590000D01*
X79400000Y20812500D02*
X79400000Y8200000D01*
X12525000Y36692462D02*
X12525000Y35907538D01*
X61750000Y41050000D02*
X66125000Y36675000D01*
%TO.N,Net-(D3-Pad2)*%
X77790000Y14225000D02*
X73100000Y18915000D01*
X73100000Y18915000D02*
X73100000Y20200000D01*
%TO.N,GND*%
X73025000Y44025000D02*
X73200000Y44200000D01*
X67650000Y6560000D02*
X67650000Y5400000D01*
X72100000Y44025000D02*
X73025000Y44025000D01*
X70590000Y8375000D02*
X69465000Y8375000D01*
X60550000Y36800000D02*
X61325000Y36025000D01*
X77025000Y35375000D02*
X77900000Y35375000D01*
X77000000Y35400000D02*
X77025000Y35375000D01*
X61325000Y36025000D02*
X64100000Y36025000D01*
X69465000Y8375000D02*
X67650000Y6560000D01*
X39200000Y36800000D02*
X44750000Y36800000D01*
%TO.N,Net-(D4-Pad2)*%
X76650000Y13575000D02*
X77790000Y13575000D01*
X73100000Y17125000D02*
X76650000Y13575000D01*
X73100000Y17600000D02*
X73100000Y17125000D01*
%TO.N,Net-(U1-Pad3)*%
X64100000Y43375000D02*
X64100000Y42725000D01*
%TO.N,Net-(U2-Pad3)*%
X72100000Y43375000D02*
X72100000Y42725000D01*
%TO.N,Rx*%
X23950000Y12750000D02*
X23950000Y2415000D01*
X35800000Y24600000D02*
X23950000Y12750000D01*
%TO.N,Net-(U1-Pad9)*%
X70525000Y40125000D02*
X69900000Y40125000D01*
X70800000Y40400000D02*
X70525000Y40125000D01*
X70800000Y44125000D02*
X70800000Y40400000D01*
X71350000Y44675000D02*
X70800000Y44125000D01*
X72100000Y44675000D02*
X71350000Y44675000D01*
%TO.N,Net-(U3-Pad3)*%
X64100000Y35375000D02*
X64100000Y34725000D01*
%TO.N,Net-(U3-Pad12)*%
X69900000Y34725000D02*
X69900000Y34075000D01*
%TO.N,Net-(U4-Pad3)*%
X72100000Y35375000D02*
X72100000Y34725000D01*
%TO.N,Tx*%
X26490000Y2415000D02*
X26490000Y13290000D01*
X26490000Y13290000D02*
X36600000Y23400000D01*
%TO.N,Net-(R2-Pad2)*%
X55620000Y4620000D02*
X55620000Y6975000D01*
X47600000Y3200000D02*
X54200000Y3200000D01*
X44850000Y5200000D02*
X45600000Y5200000D01*
X54200000Y3200000D02*
X55620000Y4620000D01*
X45600000Y5200000D02*
X47600000Y3200000D01*
%TO.N,Net-(R4-Pad2)*%
X71250000Y3250000D02*
X75075000Y7075000D01*
X75075000Y7075000D02*
X77790000Y7075000D01*
X63850000Y5400000D02*
X66000000Y3250000D01*
X66000000Y3250000D02*
X71250000Y3250000D01*
%TO.N,Net-(R5-Pad2)*%
X63050000Y2800000D02*
X76000000Y2800000D01*
X60450000Y5400000D02*
X63050000Y2800000D01*
X77790000Y4610000D02*
X77790000Y6425000D01*
X77800000Y4600000D02*
X77790000Y4610000D01*
X76000000Y2800000D02*
X77800000Y4600000D01*
%TO.N,Net-(U1-Pad15)*%
X64100000Y40775000D02*
X64775000Y40775000D01*
X68025000Y44025000D02*
X69900000Y44025000D01*
X64775000Y40775000D02*
X68025000Y44025000D01*
%TO.N,Net-(U2-Pad7)*%
X70525000Y36025000D02*
X69900000Y36025000D01*
X70725000Y36225000D02*
X70525000Y36025000D01*
X70725000Y39325000D02*
X70725000Y36225000D01*
X72100000Y40775000D02*
X71400000Y40775000D01*
X71275000Y40650000D02*
X71275000Y39875000D01*
X71400000Y40775000D02*
X71275000Y40650000D01*
X71275000Y39875000D02*
X70725000Y39325000D01*
%TO.N,Net-(U2-Pad15)*%
X77900000Y44025000D02*
X77150000Y44025000D01*
X74200000Y41075000D02*
X74200000Y33400000D01*
X73575000Y32775000D02*
X72100000Y32775000D01*
X74200000Y33400000D02*
X73575000Y32775000D01*
X77150000Y44025000D02*
X74200000Y41075000D01*
%TO.N,Net-(U3-Pad1)*%
X64100000Y36675000D02*
X64650000Y36675000D01*
X64650000Y36675000D02*
X69200000Y32125000D01*
X69200000Y32125000D02*
X69900000Y32125000D01*
%TO.N,Net-(U3-Pad7)*%
X76975000Y36025000D02*
X77900000Y36025000D01*
X76600000Y36400000D02*
X76975000Y36025000D01*
X64100000Y32775000D02*
X65375000Y32775000D01*
%TO.N,Net-(U4-Pad1)*%
X76675000Y32125000D02*
X76600000Y32200000D01*
X72100000Y37300000D02*
X72200000Y37400000D01*
X77900000Y32125000D02*
X76675000Y32125000D01*
X72100000Y36675000D02*
X72100000Y37300000D01*
%TO.N,Net-(U4-Pad12)*%
X77900000Y34725000D02*
X77900000Y34075000D01*
%TO.N,Net-(U5-Pad4)*%
X57537500Y18337500D02*
X57537500Y17450000D01*
X38337500Y11025000D02*
X39349695Y11025000D01*
X39349695Y11025000D02*
X40174695Y10200000D01*
X57600000Y18400000D02*
X57537500Y18337500D01*
X40174695Y10200000D02*
X41000000Y10200000D01*
%TO.N,GAL1*%
X52600402Y9575000D02*
X55620000Y9575000D01*
X38337500Y13625000D02*
X40025000Y13625000D01*
X40025000Y13625000D02*
X40200000Y13800000D01*
X50487701Y11687701D02*
X52600402Y9575000D01*
%TO.N,GAU1*%
X50000000Y13200000D02*
X52975000Y10225000D01*
X40775000Y12975000D02*
X41200000Y13400000D01*
X38337500Y12975000D02*
X40775000Y12975000D01*
X52975000Y10225000D02*
X55620000Y10225000D01*
%TO.N,Net-(U6-Pad8)*%
X38337500Y10375000D02*
X38337500Y9725000D01*
%TO.N,GBL1*%
X38337500Y12325000D02*
X40475000Y12325000D01*
X53525000Y10875000D02*
X52200000Y12200000D01*
X55620000Y10875000D02*
X53525000Y10875000D01*
X40475000Y12325000D02*
X41000000Y11800000D01*
%TO.N,GBU1*%
X39725000Y11675000D02*
X38337500Y11675000D01*
X54275000Y11525000D02*
X53600000Y12200000D01*
X40200000Y11200000D02*
X39725000Y11675000D01*
X55620000Y11525000D02*
X54275000Y11525000D01*
%TO.N,Net-(U1-Pad12)*%
X69900000Y42725000D02*
X69900000Y42075000D01*
%TO.N,Net-(U6-Pad12)*%
X47295000Y9575000D02*
X48420000Y9575000D01*
X47145000Y9725000D02*
X47295000Y9575000D01*
X44062500Y9725000D02*
X47145000Y9725000D01*
%TO.N,Net-(U6-Pad13)*%
X48320000Y10325000D02*
X48420000Y10225000D01*
X44112500Y10325000D02*
X48320000Y10325000D01*
X44062500Y10375000D02*
X44112500Y10325000D01*
%TO.N,Net-(U6-Pad14)*%
X44112500Y10975000D02*
X48320000Y10975000D01*
X44062500Y11025000D02*
X44112500Y10975000D01*
X48320000Y10975000D02*
X48420000Y10875000D01*
%TO.N,Net-(U6-Pad15)*%
X47295000Y11525000D02*
X48420000Y11525000D01*
X47145000Y11675000D02*
X47295000Y11525000D01*
X44062500Y11675000D02*
X47145000Y11675000D01*
%TO.N,Net-(U6-Pad16)*%
X47295000Y12175000D02*
X48420000Y12175000D01*
X44062500Y12325000D02*
X47145000Y12325000D01*
X47145000Y12325000D02*
X47295000Y12175000D01*
%TO.N,Net-(U6-Pad17)*%
X47295000Y12825000D02*
X48420000Y12825000D01*
X44062500Y12975000D02*
X47145000Y12975000D01*
X47145000Y12975000D02*
X47295000Y12825000D01*
%TO.N,Net-(U6-Pad18)*%
X47145000Y13625000D02*
X47295000Y13475000D01*
X47295000Y13475000D02*
X48420000Y13475000D01*
X44062500Y13625000D02*
X47145000Y13625000D01*
%TO.N,Net-(U6-Pad19)*%
X44062500Y14275000D02*
X48270000Y14275000D01*
X48270000Y14275000D02*
X48420000Y14125000D01*
%TO.N,Net-(U8-Pad4)*%
X60237500Y11025000D02*
X61575000Y11025000D01*
X78137500Y17137500D02*
X77019799Y16019799D01*
X61575000Y11025000D02*
X62400000Y10200000D01*
X78137500Y17650000D02*
X78137500Y17137500D01*
%TO.N,GAL2*%
X60237500Y13625000D02*
X58625000Y13625000D01*
X76475000Y9675000D02*
X77790000Y9675000D01*
X75800000Y9000000D02*
X76475000Y9675000D01*
X58600000Y13600000D02*
X58625000Y13625000D01*
%TO.N,GAU2*%
X77790000Y10325000D02*
X75275000Y10325000D01*
X60237500Y12975000D02*
X62575000Y12975000D01*
X75275000Y10325000D02*
X74000000Y11600000D01*
X62575000Y12975000D02*
X63400000Y13800000D01*
%TO.N,GBL2*%
X75212299Y11412299D02*
X75649598Y10975000D01*
X75649598Y10975000D02*
X77790000Y10975000D01*
X60237500Y12325000D02*
X63075000Y12325000D01*
X63075000Y12325000D02*
X63600000Y11800000D01*
%TO.N,GBU2*%
X62125000Y11675000D02*
X62600000Y11200000D01*
X77790000Y11625000D02*
X76575000Y11625000D01*
X60237500Y11675000D02*
X62125000Y11675000D01*
X76575000Y11625000D02*
X76000000Y12200000D01*
%TO.N,Net-(U9-Pad8)*%
X60237500Y10375000D02*
X60237500Y9725000D01*
%TO.N,Net-(U10-Pad8)*%
X65962500Y9725000D02*
X66012500Y9675000D01*
X66012500Y9675000D02*
X70590000Y9675000D01*
%TO.N,Net-(U10-Pad7)*%
X66012500Y10325000D02*
X70590000Y10325000D01*
X65962500Y10375000D02*
X66012500Y10325000D01*
%TO.N,Net-(U10-Pad6)*%
X65962500Y11025000D02*
X66012500Y10975000D01*
X66012500Y10975000D02*
X70590000Y10975000D01*
%TO.N,Net-(U10-Pad5)*%
X66012500Y11625000D02*
X70590000Y11625000D01*
X65962500Y11675000D02*
X66012500Y11625000D01*
%TO.N,Net-(U10-Pad4)*%
X66012500Y12275000D02*
X70590000Y12275000D01*
X65962500Y12325000D02*
X66012500Y12275000D01*
%TO.N,Net-(U10-Pad3)*%
X66012500Y12925000D02*
X70590000Y12925000D01*
X65962500Y12975000D02*
X66012500Y12925000D01*
%TO.N,Net-(U10-Pad2)*%
X65962500Y13625000D02*
X66012500Y13575000D01*
X66012500Y13575000D02*
X70590000Y13575000D01*
%TO.N,Net-(U10-Pad1)*%
X66012500Y14225000D02*
X70590000Y14225000D01*
X65962500Y14275000D02*
X66012500Y14225000D01*
%TO.N,/Zaehler_Referenz/measure_select*%
X71000000Y27800000D02*
X69600000Y27800000D01*
X75875000Y12925000D02*
X75000000Y13800000D01*
X77790000Y12925000D02*
X75875000Y12925000D01*
X71800000Y27000000D02*
X71000000Y27800000D01*
X69600000Y27800000D02*
X67065000Y27800000D01*
%TO.N,/Teiler_1Hz/10MHz_Referenz*%
X63350000Y44675000D02*
X62600000Y43925000D01*
X57789000Y36061610D02*
X57789000Y31525000D01*
X51400000Y25136000D02*
X57789000Y31525000D01*
X51800000Y40000000D02*
X53850610Y40000000D01*
X56400000Y16400000D02*
X53800000Y16400000D01*
X51400000Y18800000D02*
X51400000Y25136000D01*
X60200000Y38800000D02*
X60550000Y38800000D01*
X57625305Y36225305D02*
X57789000Y36061610D01*
X57625305Y36225305D02*
X60200000Y38800000D01*
X53850610Y40000000D02*
X57625305Y36225305D01*
X62600000Y43925000D02*
X62600000Y43200000D01*
X64100000Y44675000D02*
X63350000Y44675000D01*
X60237500Y14925000D02*
X60237500Y14275000D01*
X57875000Y14925000D02*
X56400000Y16400000D01*
X60237500Y14925000D02*
X57875000Y14925000D01*
X53800000Y16400000D02*
X51400000Y18800000D01*
%TO.N,/ESP/SCK*%
X21410000Y11810000D02*
X34800000Y25200000D01*
X71725000Y7075000D02*
X72400000Y6400000D01*
X48420000Y6975000D02*
X46425000Y6975000D01*
X46425000Y6975000D02*
X46000000Y7400000D01*
X70590000Y7075000D02*
X71725000Y7075000D01*
X21410000Y2415000D02*
X21410000Y11810000D01*
%TO.N,/ESP/SDA*%
X69000000Y5960000D02*
X69000000Y4800000D01*
X70590000Y6425000D02*
X69465000Y6425000D01*
X45475000Y6325000D02*
X45200000Y6600000D01*
X69465000Y6425000D02*
X69000000Y5960000D01*
X48420000Y6325000D02*
X45475000Y6325000D01*
X18870000Y10870000D02*
X33800000Y25800000D01*
X18870000Y2415000D02*
X18870000Y10870000D01*
%TO.N,/Teiler_1Hz/1Hz_Puls*%
X75200000Y18600000D02*
X75862500Y18600000D01*
X52200000Y19415749D02*
X52200000Y20600000D01*
X74875000Y40400000D02*
X74875000Y21525000D01*
X52200000Y20600000D02*
X53125000Y21525000D01*
X74875000Y21525000D02*
X74875000Y18925000D01*
X74875000Y18925000D02*
X75200000Y18600000D01*
X55262500Y18400000D02*
X53215749Y18400000D01*
X53125000Y21525000D02*
X74875000Y21525000D01*
X77200000Y42725000D02*
X74875000Y40400000D01*
X53215749Y18400000D02*
X52200000Y19415749D01*
X77900000Y42725000D02*
X77200000Y42725000D01*
%TO.N,Net-(J1-Pad2)*%
X42549000Y23905000D02*
X44505000Y23905000D01*
X60550000Y40800000D02*
X58200000Y40800000D01*
X58200000Y40800000D02*
X56800000Y39400000D01*
X44505000Y23905000D02*
X55600000Y35000000D01*
%TO.N,Net-(F1-Pad1)*%
X28060000Y33810000D02*
X28060000Y35260000D01*
X39200000Y42800000D02*
X44750000Y42800000D01*
X35600000Y42800000D02*
X39200000Y42800000D01*
X28060000Y35260000D02*
X35600000Y42800000D01*
%TO.N,Net-(C1-Pad1)*%
X11600000Y39400000D02*
X13250000Y37750000D01*
X13250000Y37750000D02*
X13250000Y36400000D01*
%TO.N,Net-(C1-Pad2)*%
X13150000Y42825000D02*
X13475000Y43150000D01*
X13150000Y39400000D02*
X13150000Y42825000D01*
X13150000Y39400000D02*
X14800000Y39400000D01*
%TO.N,Net-(C2-Pad2)*%
X16350000Y39400000D02*
X15537500Y40212500D01*
X14800000Y36400000D02*
X14800000Y37850000D01*
X15537500Y43037500D02*
X16600000Y44100000D01*
X15537500Y40212500D02*
X15537500Y43037500D01*
X14800000Y37850000D02*
X16350000Y39400000D01*
%TO.N,Net-(C3-Pad1)*%
X21250000Y39400000D02*
X22800000Y39400000D01*
X18425000Y38375000D02*
X18475000Y38425000D01*
X18475000Y38425000D02*
X18475000Y43150000D01*
X21250000Y39400000D02*
X21250000Y38050000D01*
X16450000Y36400000D02*
X18425000Y38375000D01*
%TO.N,Net-(C3-Pad2)*%
X23650000Y35600000D02*
X22050000Y35600000D01*
X23287500Y42296751D02*
X23287500Y40462500D01*
X22000000Y43200000D02*
X22384251Y43200000D01*
X24450000Y36400000D02*
X23650000Y35600000D01*
X24350000Y39400000D02*
X24450000Y39300000D01*
X23287500Y40462500D02*
X24350000Y39400000D01*
X22384251Y43200000D02*
X23287500Y42296751D01*
X24450000Y39300000D02*
X24450000Y36400000D01*
X22050000Y35600000D02*
X21250000Y36400000D01*
%TO.N,/Zaehler_Messsignal/Messsignal*%
X25400000Y32160000D02*
X25400000Y41600000D01*
X35600000Y27600000D02*
X38337500Y24862500D01*
X24750000Y42250000D02*
X24275000Y42250000D01*
X22090000Y29600000D02*
X24815000Y29600000D01*
X21200000Y28000000D02*
X22090000Y28890000D01*
X22840000Y29600000D02*
X25400000Y32160000D01*
X24907500Y29507500D02*
X26815000Y27600000D01*
X29737500Y42062500D02*
X29800000Y42000000D01*
X29737500Y43200000D02*
X29737500Y42062500D01*
X38337500Y24862500D02*
X38337500Y14275000D01*
X22090000Y29600000D02*
X22840000Y29600000D01*
X22090000Y28890000D02*
X22090000Y29600000D01*
X24815000Y29600000D02*
X24907500Y29507500D01*
X6000000Y31600000D02*
X9600000Y28000000D01*
X9600000Y28000000D02*
X21200000Y28000000D01*
X25400000Y41600000D02*
X24750000Y42250000D01*
X26815000Y27600000D02*
X35600000Y27600000D01*
%TO.N,Net-(J4-Pad1)*%
X6000000Y38549390D02*
X12409390Y32140000D01*
X13200000Y32140000D02*
X13200000Y29600000D01*
X6000000Y40600000D02*
X6000000Y38549390D01*
X12409390Y32140000D02*
X13200000Y32140000D01*
%TO.N,Net-(R6-Pad1)*%
X12600000Y34200000D02*
X11600000Y35200000D01*
X15935000Y33265000D02*
X15000000Y34200000D01*
X15000000Y34200000D02*
X12600000Y34200000D01*
X20965000Y33265000D02*
X15935000Y33265000D01*
X22090000Y32140000D02*
X20965000Y33265000D01*
X11600000Y35200000D02*
X11600000Y36400000D01*
%TD*%
M02*
