%TF.GenerationSoftware,KiCad,Pcbnew,(6.0.7)*%
%TF.CreationDate,2023-09-13T17:05:02+02:00*%
%TF.ProjectId,freqcount1.1,66726571-636f-4756-9e74-312e312e6b69,rev?*%
%TF.SameCoordinates,PX2562500PY632ea00*%
%TF.FileFunction,Legend,Top*%
%TF.FilePolarity,Positive*%
%FSLAX46Y46*%
G04 Gerber Fmt 4.6, Leading zero omitted, Abs format (unit mm)*
G04 Created by KiCad (PCBNEW (6.0.7)) date 2023-09-13 17:05:02*
%MOMM*%
%LPD*%
G01*
G04 APERTURE LIST*
%ADD10C,0.150000*%
%ADD11C,0.120000*%
G04 APERTURE END LIST*
D10*
%TO.C,D2*%
X51261904Y17147620D02*
X51261904Y18147620D01*
X51500000Y18147620D01*
X51642857Y18100000D01*
X51738095Y18004762D01*
X51785714Y17909524D01*
X51833333Y17719048D01*
X51833333Y17576191D01*
X51785714Y17385715D01*
X51738095Y17290477D01*
X51642857Y17195239D01*
X51500000Y17147620D01*
X51261904Y17147620D01*
X52214285Y18052381D02*
X52261904Y18100000D01*
X52357142Y18147620D01*
X52595238Y18147620D01*
X52690476Y18100000D01*
X52738095Y18052381D01*
X52785714Y17957143D01*
X52785714Y17861905D01*
X52738095Y17719048D01*
X52166666Y17147620D01*
X52785714Y17147620D01*
%TO.C,R5*%
X59458333Y6377620D02*
X59125000Y6853810D01*
X58886904Y6377620D02*
X58886904Y7377620D01*
X59267857Y7377620D01*
X59363095Y7330000D01*
X59410714Y7282381D01*
X59458333Y7187143D01*
X59458333Y7044286D01*
X59410714Y6949048D01*
X59363095Y6901429D01*
X59267857Y6853810D01*
X58886904Y6853810D01*
X60363095Y7377620D02*
X59886904Y7377620D01*
X59839285Y6901429D01*
X59886904Y6949048D01*
X59982142Y6996667D01*
X60220238Y6996667D01*
X60315476Y6949048D01*
X60363095Y6901429D01*
X60410714Y6806191D01*
X60410714Y6568096D01*
X60363095Y6472858D01*
X60315476Y6425239D01*
X60220238Y6377620D01*
X59982142Y6377620D01*
X59886904Y6425239D01*
X59839285Y6472858D01*
%TO.C,U5*%
X55638095Y21347620D02*
X55638095Y20538096D01*
X55685714Y20442858D01*
X55733333Y20395239D01*
X55828571Y20347620D01*
X56019047Y20347620D01*
X56114285Y20395239D01*
X56161904Y20442858D01*
X56209523Y20538096D01*
X56209523Y21347620D01*
X57161904Y21347620D02*
X56685714Y21347620D01*
X56638095Y20871429D01*
X56685714Y20919048D01*
X56780952Y20966667D01*
X57019047Y20966667D01*
X57114285Y20919048D01*
X57161904Y20871429D01*
X57209523Y20776191D01*
X57209523Y20538096D01*
X57161904Y20442858D01*
X57114285Y20395239D01*
X57019047Y20347620D01*
X56780952Y20347620D01*
X56685714Y20395239D01*
X56638095Y20442858D01*
%TO.C,U12*%
X21899404Y46147620D02*
X21899404Y45338096D01*
X21947023Y45242858D01*
X21994642Y45195239D01*
X22089880Y45147620D01*
X22280357Y45147620D01*
X22375595Y45195239D01*
X22423214Y45242858D01*
X22470833Y45338096D01*
X22470833Y46147620D01*
X23470833Y45147620D02*
X22899404Y45147620D01*
X23185119Y45147620D02*
X23185119Y46147620D01*
X23089880Y46004762D01*
X22994642Y45909524D01*
X22899404Y45861905D01*
X23851785Y46052381D02*
X23899404Y46100000D01*
X23994642Y46147620D01*
X24232738Y46147620D01*
X24327976Y46100000D01*
X24375595Y46052381D01*
X24423214Y45957143D01*
X24423214Y45861905D01*
X24375595Y45719048D01*
X23804166Y45147620D01*
X24423214Y45147620D01*
%TO.C,R2*%
X43858333Y6177620D02*
X43525000Y6653810D01*
X43286904Y6177620D02*
X43286904Y7177620D01*
X43667857Y7177620D01*
X43763095Y7130000D01*
X43810714Y7082381D01*
X43858333Y6987143D01*
X43858333Y6844286D01*
X43810714Y6749048D01*
X43763095Y6701429D01*
X43667857Y6653810D01*
X43286904Y6653810D01*
X44239285Y7082381D02*
X44286904Y7130000D01*
X44382142Y7177620D01*
X44620238Y7177620D01*
X44715476Y7130000D01*
X44763095Y7082381D01*
X44810714Y6987143D01*
X44810714Y6891905D01*
X44763095Y6749048D01*
X44191666Y6177620D01*
X44810714Y6177620D01*
%TO.C,U11*%
X761904Y26347620D02*
X761904Y25538096D01*
X809523Y25442858D01*
X857142Y25395239D01*
X952380Y25347620D01*
X1142857Y25347620D01*
X1238095Y25395239D01*
X1285714Y25442858D01*
X1333333Y25538096D01*
X1333333Y26347620D01*
X2333333Y25347620D02*
X1761904Y25347620D01*
X2047619Y25347620D02*
X2047619Y26347620D01*
X1952380Y26204762D01*
X1857142Y26109524D01*
X1761904Y26061905D01*
X3285714Y25347620D02*
X2714285Y25347620D01*
X3000000Y25347620D02*
X3000000Y26347620D01*
X2904761Y26204762D01*
X2809523Y26109524D01*
X2714285Y26061905D01*
%TO.C,JP1*%
X61647380Y26966667D02*
X62361666Y26966667D01*
X62504523Y26919048D01*
X62599761Y26823810D01*
X62647380Y26680953D01*
X62647380Y26585715D01*
X62647380Y27442858D02*
X61647380Y27442858D01*
X61647380Y27823810D01*
X61695000Y27919048D01*
X61742619Y27966667D01*
X61837857Y28014286D01*
X61980714Y28014286D01*
X62075952Y27966667D01*
X62123571Y27919048D01*
X62171190Y27823810D01*
X62171190Y27442858D01*
X62647380Y28966667D02*
X62647380Y28395239D01*
X62647380Y28680953D02*
X61647380Y28680953D01*
X61790238Y28585715D01*
X61885476Y28490477D01*
X61933095Y28395239D01*
%TO.C,R3*%
X66658333Y6377620D02*
X66325000Y6853810D01*
X66086904Y6377620D02*
X66086904Y7377620D01*
X66467857Y7377620D01*
X66563095Y7330000D01*
X66610714Y7282381D01*
X66658333Y7187143D01*
X66658333Y7044286D01*
X66610714Y6949048D01*
X66563095Y6901429D01*
X66467857Y6853810D01*
X66086904Y6853810D01*
X66991666Y7377620D02*
X67610714Y7377620D01*
X67277380Y6996667D01*
X67420238Y6996667D01*
X67515476Y6949048D01*
X67563095Y6901429D01*
X67610714Y6806191D01*
X67610714Y6568096D01*
X67563095Y6472858D01*
X67515476Y6425239D01*
X67420238Y6377620D01*
X67134523Y6377620D01*
X67039285Y6425239D01*
X66991666Y6472858D01*
%TO.C,J2*%
X5666666Y28347620D02*
X5666666Y27633334D01*
X5619047Y27490477D01*
X5523809Y27395239D01*
X5380952Y27347620D01*
X5285714Y27347620D01*
X6095238Y28252381D02*
X6142857Y28300000D01*
X6238095Y28347620D01*
X6476190Y28347620D01*
X6571428Y28300000D01*
X6619047Y28252381D01*
X6666666Y28157143D01*
X6666666Y28061905D01*
X6619047Y27919048D01*
X6047619Y27347620D01*
X6666666Y27347620D01*
%TO.C,C1*%
X12233333Y40242858D02*
X12185714Y40195239D01*
X12042857Y40147620D01*
X11947619Y40147620D01*
X11804761Y40195239D01*
X11709523Y40290477D01*
X11661904Y40385715D01*
X11614285Y40576191D01*
X11614285Y40719048D01*
X11661904Y40909524D01*
X11709523Y41004762D01*
X11804761Y41100000D01*
X11947619Y41147620D01*
X12042857Y41147620D01*
X12185714Y41100000D01*
X12233333Y41052381D01*
X13185714Y40147620D02*
X12614285Y40147620D01*
X12900000Y40147620D02*
X12900000Y41147620D01*
X12804761Y41004762D01*
X12709523Y40909524D01*
X12614285Y40861905D01*
%TO.C,J6*%
X38066666Y46547620D02*
X38066666Y45833334D01*
X38019047Y45690477D01*
X37923809Y45595239D01*
X37780952Y45547620D01*
X37685714Y45547620D01*
X38971428Y46547620D02*
X38780952Y46547620D01*
X38685714Y46500000D01*
X38638095Y46452381D01*
X38542857Y46309524D01*
X38495238Y46119048D01*
X38495238Y45738096D01*
X38542857Y45642858D01*
X38590476Y45595239D01*
X38685714Y45547620D01*
X38876190Y45547620D01*
X38971428Y45595239D01*
X39019047Y45642858D01*
X39066666Y45738096D01*
X39066666Y45976191D01*
X39019047Y46071429D01*
X38971428Y46119048D01*
X38876190Y46166667D01*
X38685714Y46166667D01*
X38590476Y46119048D01*
X38542857Y46071429D01*
X38495238Y45976191D01*
%TO.C,J4*%
X5666666Y45897620D02*
X5666666Y45183334D01*
X5619047Y45040477D01*
X5523809Y44945239D01*
X5380952Y44897620D01*
X5285714Y44897620D01*
X6571428Y45564286D02*
X6571428Y44897620D01*
X6333333Y45945239D02*
X6095238Y45230953D01*
X6714285Y45230953D01*
%TO.C,J3*%
X43466666Y46547620D02*
X43466666Y45833334D01*
X43419047Y45690477D01*
X43323809Y45595239D01*
X43180952Y45547620D01*
X43085714Y45547620D01*
X43847619Y46547620D02*
X44466666Y46547620D01*
X44133333Y46166667D01*
X44276190Y46166667D01*
X44371428Y46119048D01*
X44419047Y46071429D01*
X44466666Y45976191D01*
X44466666Y45738096D01*
X44419047Y45642858D01*
X44371428Y45595239D01*
X44276190Y45547620D01*
X43990476Y45547620D01*
X43895238Y45595239D01*
X43847619Y45642858D01*
%TO.C,U6*%
X37838095Y16747620D02*
X37838095Y15938096D01*
X37885714Y15842858D01*
X37933333Y15795239D01*
X38028571Y15747620D01*
X38219047Y15747620D01*
X38314285Y15795239D01*
X38361904Y15842858D01*
X38409523Y15938096D01*
X38409523Y16747620D01*
X39314285Y16747620D02*
X39123809Y16747620D01*
X39028571Y16700000D01*
X38980952Y16652381D01*
X38885714Y16509524D01*
X38838095Y16319048D01*
X38838095Y15938096D01*
X38885714Y15842858D01*
X38933333Y15795239D01*
X39028571Y15747620D01*
X39219047Y15747620D01*
X39314285Y15795239D01*
X39361904Y15842858D01*
X39409523Y15938096D01*
X39409523Y16176191D01*
X39361904Y16271429D01*
X39314285Y16319048D01*
X39219047Y16366667D01*
X39028571Y16366667D01*
X38933333Y16319048D01*
X38885714Y16271429D01*
X38838095Y16176191D01*
%TO.C,QA1*%
X49476190Y32052381D02*
X49380952Y32100000D01*
X49285714Y32195239D01*
X49142857Y32338096D01*
X49047619Y32385715D01*
X48952380Y32385715D01*
X49000000Y32147620D02*
X48904761Y32195239D01*
X48809523Y32290477D01*
X48761904Y32480953D01*
X48761904Y32814286D01*
X48809523Y33004762D01*
X48904761Y33100000D01*
X49000000Y33147620D01*
X49190476Y33147620D01*
X49285714Y33100000D01*
X49380952Y33004762D01*
X49428571Y32814286D01*
X49428571Y32480953D01*
X49380952Y32290477D01*
X49285714Y32195239D01*
X49190476Y32147620D01*
X49000000Y32147620D01*
X49809523Y32433334D02*
X50285714Y32433334D01*
X49714285Y32147620D02*
X50047619Y33147620D01*
X50380952Y32147620D01*
X51238095Y32147620D02*
X50666666Y32147620D01*
X50952380Y32147620D02*
X50952380Y33147620D01*
X50857142Y33004762D01*
X50761904Y32909524D01*
X50666666Y32861905D01*
%TO.C,R6*%
X12258333Y37377620D02*
X11925000Y37853810D01*
X11686904Y37377620D02*
X11686904Y38377620D01*
X12067857Y38377620D01*
X12163095Y38330000D01*
X12210714Y38282381D01*
X12258333Y38187143D01*
X12258333Y38044286D01*
X12210714Y37949048D01*
X12163095Y37901429D01*
X12067857Y37853810D01*
X11686904Y37853810D01*
X13115476Y38377620D02*
X12925000Y38377620D01*
X12829761Y38330000D01*
X12782142Y38282381D01*
X12686904Y38139524D01*
X12639285Y37949048D01*
X12639285Y37568096D01*
X12686904Y37472858D01*
X12734523Y37425239D01*
X12829761Y37377620D01*
X13020238Y37377620D01*
X13115476Y37425239D01*
X13163095Y37472858D01*
X13210714Y37568096D01*
X13210714Y37806191D01*
X13163095Y37901429D01*
X13115476Y37949048D01*
X13020238Y37996667D01*
X12829761Y37996667D01*
X12734523Y37949048D01*
X12686904Y37901429D01*
X12639285Y37806191D01*
%TO.C,U1*%
X66238095Y46597620D02*
X66238095Y45788096D01*
X66285714Y45692858D01*
X66333333Y45645239D01*
X66428571Y45597620D01*
X66619047Y45597620D01*
X66714285Y45645239D01*
X66761904Y45692858D01*
X66809523Y45788096D01*
X66809523Y46597620D01*
X67809523Y45597620D02*
X67238095Y45597620D01*
X67523809Y45597620D02*
X67523809Y46597620D01*
X67428571Y46454762D01*
X67333333Y46359524D01*
X67238095Y46311905D01*
%TO.C,U8*%
X76238095Y21547620D02*
X76238095Y20738096D01*
X76285714Y20642858D01*
X76333333Y20595239D01*
X76428571Y20547620D01*
X76619047Y20547620D01*
X76714285Y20595239D01*
X76761904Y20642858D01*
X76809523Y20738096D01*
X76809523Y21547620D01*
X77428571Y21119048D02*
X77333333Y21166667D01*
X77285714Y21214286D01*
X77238095Y21309524D01*
X77238095Y21357143D01*
X77285714Y21452381D01*
X77333333Y21500000D01*
X77428571Y21547620D01*
X77619047Y21547620D01*
X77714285Y21500000D01*
X77761904Y21452381D01*
X77809523Y21357143D01*
X77809523Y21309524D01*
X77761904Y21214286D01*
X77714285Y21166667D01*
X77619047Y21119048D01*
X77428571Y21119048D01*
X77333333Y21071429D01*
X77285714Y21023810D01*
X77238095Y20928572D01*
X77238095Y20738096D01*
X77285714Y20642858D01*
X77333333Y20595239D01*
X77428571Y20547620D01*
X77619047Y20547620D01*
X77714285Y20595239D01*
X77761904Y20642858D01*
X77809523Y20738096D01*
X77809523Y20928572D01*
X77761904Y21023810D01*
X77714285Y21071429D01*
X77619047Y21119048D01*
%TO.C,U7*%
X47438095Y16147620D02*
X47438095Y15338096D01*
X47485714Y15242858D01*
X47533333Y15195239D01*
X47628571Y15147620D01*
X47819047Y15147620D01*
X47914285Y15195239D01*
X47961904Y15242858D01*
X48009523Y15338096D01*
X48009523Y16147620D01*
X48390476Y16147620D02*
X49057142Y16147620D01*
X48628571Y15147620D01*
%TO.C,D7*%
X11461904Y44947620D02*
X11461904Y45947620D01*
X11700000Y45947620D01*
X11842857Y45900000D01*
X11938095Y45804762D01*
X11985714Y45709524D01*
X12033333Y45519048D01*
X12033333Y45376191D01*
X11985714Y45185715D01*
X11938095Y45090477D01*
X11842857Y44995239D01*
X11700000Y44947620D01*
X11461904Y44947620D01*
X12366666Y45947620D02*
X13033333Y45947620D01*
X12604761Y44947620D01*
%TO.C,J5*%
X51466666Y45297620D02*
X51466666Y44583334D01*
X51419047Y44440477D01*
X51323809Y44345239D01*
X51180952Y44297620D01*
X51085714Y44297620D01*
X52419047Y45297620D02*
X51942857Y45297620D01*
X51895238Y44821429D01*
X51942857Y44869048D01*
X52038095Y44916667D01*
X52276190Y44916667D01*
X52371428Y44869048D01*
X52419047Y44821429D01*
X52466666Y44726191D01*
X52466666Y44488096D01*
X52419047Y44392858D01*
X52371428Y44345239D01*
X52276190Y44297620D01*
X52038095Y44297620D01*
X51942857Y44345239D01*
X51895238Y44392858D01*
%TO.C,C2*%
X15408333Y40472858D02*
X15360714Y40425239D01*
X15217857Y40377620D01*
X15122619Y40377620D01*
X14979761Y40425239D01*
X14884523Y40520477D01*
X14836904Y40615715D01*
X14789285Y40806191D01*
X14789285Y40949048D01*
X14836904Y41139524D01*
X14884523Y41234762D01*
X14979761Y41330000D01*
X15122619Y41377620D01*
X15217857Y41377620D01*
X15360714Y41330000D01*
X15408333Y41282381D01*
X15789285Y41282381D02*
X15836904Y41330000D01*
X15932142Y41377620D01*
X16170238Y41377620D01*
X16265476Y41330000D01*
X16313095Y41282381D01*
X16360714Y41187143D01*
X16360714Y41091905D01*
X16313095Y40949048D01*
X15741666Y40377620D01*
X16360714Y40377620D01*
%TO.C,U3*%
X66238095Y38597620D02*
X66238095Y37788096D01*
X66285714Y37692858D01*
X66333333Y37645239D01*
X66428571Y37597620D01*
X66619047Y37597620D01*
X66714285Y37645239D01*
X66761904Y37692858D01*
X66809523Y37788096D01*
X66809523Y38597620D01*
X67190476Y38597620D02*
X67809523Y38597620D01*
X67476190Y38216667D01*
X67619047Y38216667D01*
X67714285Y38169048D01*
X67761904Y38121429D01*
X67809523Y38026191D01*
X67809523Y37788096D01*
X67761904Y37692858D01*
X67714285Y37645239D01*
X67619047Y37597620D01*
X67333333Y37597620D01*
X67238095Y37645239D01*
X67190476Y37692858D01*
%TO.C,D5*%
X28061904Y45147620D02*
X28061904Y46147620D01*
X28300000Y46147620D01*
X28442857Y46100000D01*
X28538095Y46004762D01*
X28585714Y45909524D01*
X28633333Y45719048D01*
X28633333Y45576191D01*
X28585714Y45385715D01*
X28538095Y45290477D01*
X28442857Y45195239D01*
X28300000Y45147620D01*
X28061904Y45147620D01*
X29538095Y46147620D02*
X29061904Y46147620D01*
X29014285Y45671429D01*
X29061904Y45719048D01*
X29157142Y45766667D01*
X29395238Y45766667D01*
X29490476Y45719048D01*
X29538095Y45671429D01*
X29585714Y45576191D01*
X29585714Y45338096D01*
X29538095Y45242858D01*
X29490476Y45195239D01*
X29395238Y45147620D01*
X29157142Y45147620D01*
X29061904Y45195239D01*
X29014285Y45242858D01*
%TO.C,U9*%
X59638095Y16747620D02*
X59638095Y15938096D01*
X59685714Y15842858D01*
X59733333Y15795239D01*
X59828571Y15747620D01*
X60019047Y15747620D01*
X60114285Y15795239D01*
X60161904Y15842858D01*
X60209523Y15938096D01*
X60209523Y16747620D01*
X60733333Y15747620D02*
X60923809Y15747620D01*
X61019047Y15795239D01*
X61066666Y15842858D01*
X61161904Y15985715D01*
X61209523Y16176191D01*
X61209523Y16557143D01*
X61161904Y16652381D01*
X61114285Y16700000D01*
X61019047Y16747620D01*
X60828571Y16747620D01*
X60733333Y16700000D01*
X60685714Y16652381D01*
X60638095Y16557143D01*
X60638095Y16319048D01*
X60685714Y16223810D01*
X60733333Y16176191D01*
X60828571Y16128572D01*
X61019047Y16128572D01*
X61114285Y16176191D01*
X61161904Y16223810D01*
X61209523Y16319048D01*
%TO.C,U2*%
X74238095Y46597620D02*
X74238095Y45788096D01*
X74285714Y45692858D01*
X74333333Y45645239D01*
X74428571Y45597620D01*
X74619047Y45597620D01*
X74714285Y45645239D01*
X74761904Y45692858D01*
X74809523Y45788096D01*
X74809523Y46597620D01*
X75238095Y46502381D02*
X75285714Y46550000D01*
X75380952Y46597620D01*
X75619047Y46597620D01*
X75714285Y46550000D01*
X75761904Y46502381D01*
X75809523Y46407143D01*
X75809523Y46311905D01*
X75761904Y46169048D01*
X75190476Y45597620D01*
X75809523Y45597620D01*
%TO.C,U4*%
X74238095Y38597620D02*
X74238095Y37788096D01*
X74285714Y37692858D01*
X74333333Y37645239D01*
X74428571Y37597620D01*
X74619047Y37597620D01*
X74714285Y37645239D01*
X74761904Y37692858D01*
X74809523Y37788096D01*
X74809523Y38597620D01*
X75714285Y38264286D02*
X75714285Y37597620D01*
X75476190Y38645239D02*
X75238095Y37930953D01*
X75857142Y37930953D01*
%TO.C,R11*%
X70822380Y27182143D02*
X70346190Y26848810D01*
X70822380Y26610715D02*
X69822380Y26610715D01*
X69822380Y26991667D01*
X69870000Y27086905D01*
X69917619Y27134524D01*
X70012857Y27182143D01*
X70155714Y27182143D01*
X70250952Y27134524D01*
X70298571Y27086905D01*
X70346190Y26991667D01*
X70346190Y26610715D01*
X70822380Y28134524D02*
X70822380Y27563096D01*
X70822380Y27848810D02*
X69822380Y27848810D01*
X69965238Y27753572D01*
X70060476Y27658334D01*
X70108095Y27563096D01*
X70822380Y29086905D02*
X70822380Y28515477D01*
X70822380Y28801191D02*
X69822380Y28801191D01*
X69965238Y28705953D01*
X70060476Y28610715D01*
X70108095Y28515477D01*
%TO.C,R4*%
X62858333Y6377620D02*
X62525000Y6853810D01*
X62286904Y6377620D02*
X62286904Y7377620D01*
X62667857Y7377620D01*
X62763095Y7330000D01*
X62810714Y7282381D01*
X62858333Y7187143D01*
X62858333Y7044286D01*
X62810714Y6949048D01*
X62763095Y6901429D01*
X62667857Y6853810D01*
X62286904Y6853810D01*
X63715476Y7044286D02*
X63715476Y6377620D01*
X63477380Y7425239D02*
X63239285Y6710953D01*
X63858333Y6710953D01*
%TO.C,D1*%
X51261904Y19747620D02*
X51261904Y20747620D01*
X51500000Y20747620D01*
X51642857Y20700000D01*
X51738095Y20604762D01*
X51785714Y20509524D01*
X51833333Y20319048D01*
X51833333Y20176191D01*
X51785714Y19985715D01*
X51738095Y19890477D01*
X51642857Y19795239D01*
X51500000Y19747620D01*
X51261904Y19747620D01*
X52785714Y19747620D02*
X52214285Y19747620D01*
X52500000Y19747620D02*
X52500000Y20747620D01*
X52404761Y20604762D01*
X52309523Y20509524D01*
X52214285Y20461905D01*
%TO.C,R10*%
X22982142Y37547620D02*
X22648809Y38023810D01*
X22410714Y37547620D02*
X22410714Y38547620D01*
X22791666Y38547620D01*
X22886904Y38500000D01*
X22934523Y38452381D01*
X22982142Y38357143D01*
X22982142Y38214286D01*
X22934523Y38119048D01*
X22886904Y38071429D01*
X22791666Y38023810D01*
X22410714Y38023810D01*
X23934523Y37547620D02*
X23363095Y37547620D01*
X23648809Y37547620D02*
X23648809Y38547620D01*
X23553571Y38404762D01*
X23458333Y38309524D01*
X23363095Y38261905D01*
X24553571Y38547620D02*
X24648809Y38547620D01*
X24744047Y38500000D01*
X24791666Y38452381D01*
X24839285Y38357143D01*
X24886904Y38166667D01*
X24886904Y37928572D01*
X24839285Y37738096D01*
X24791666Y37642858D01*
X24744047Y37595239D01*
X24648809Y37547620D01*
X24553571Y37547620D01*
X24458333Y37595239D01*
X24410714Y37642858D01*
X24363095Y37738096D01*
X24315476Y37928572D01*
X24315476Y38166667D01*
X24363095Y38357143D01*
X24410714Y38452381D01*
X24458333Y38500000D01*
X24553571Y38547620D01*
%TO.C,U10*%
X68561904Y16347620D02*
X68561904Y15538096D01*
X68609523Y15442858D01*
X68657142Y15395239D01*
X68752380Y15347620D01*
X68942857Y15347620D01*
X69038095Y15395239D01*
X69085714Y15442858D01*
X69133333Y15538096D01*
X69133333Y16347620D01*
X70133333Y15347620D02*
X69561904Y15347620D01*
X69847619Y15347620D02*
X69847619Y16347620D01*
X69752380Y16204762D01*
X69657142Y16109524D01*
X69561904Y16061905D01*
X70752380Y16347620D02*
X70847619Y16347620D01*
X70942857Y16300000D01*
X70990476Y16252381D01*
X71038095Y16157143D01*
X71085714Y15966667D01*
X71085714Y15728572D01*
X71038095Y15538096D01*
X70990476Y15442858D01*
X70942857Y15395239D01*
X70847619Y15347620D01*
X70752380Y15347620D01*
X70657142Y15395239D01*
X70609523Y15442858D01*
X70561904Y15538096D01*
X70514285Y15728572D01*
X70514285Y15966667D01*
X70561904Y16157143D01*
X70609523Y16252381D01*
X70657142Y16300000D01*
X70752380Y16347620D01*
%TO.C,R8*%
X20258333Y40377620D02*
X19925000Y40853810D01*
X19686904Y40377620D02*
X19686904Y41377620D01*
X20067857Y41377620D01*
X20163095Y41330000D01*
X20210714Y41282381D01*
X20258333Y41187143D01*
X20258333Y41044286D01*
X20210714Y40949048D01*
X20163095Y40901429D01*
X20067857Y40853810D01*
X19686904Y40853810D01*
X20829761Y40949048D02*
X20734523Y40996667D01*
X20686904Y41044286D01*
X20639285Y41139524D01*
X20639285Y41187143D01*
X20686904Y41282381D01*
X20734523Y41330000D01*
X20829761Y41377620D01*
X21020238Y41377620D01*
X21115476Y41330000D01*
X21163095Y41282381D01*
X21210714Y41187143D01*
X21210714Y41139524D01*
X21163095Y41044286D01*
X21115476Y40996667D01*
X21020238Y40949048D01*
X20829761Y40949048D01*
X20734523Y40901429D01*
X20686904Y40853810D01*
X20639285Y40758572D01*
X20639285Y40568096D01*
X20686904Y40472858D01*
X20734523Y40425239D01*
X20829761Y40377620D01*
X21020238Y40377620D01*
X21115476Y40425239D01*
X21163095Y40472858D01*
X21210714Y40568096D01*
X21210714Y40758572D01*
X21163095Y40853810D01*
X21115476Y40901429D01*
X21020238Y40949048D01*
%TO.C,C3*%
X23408333Y40472858D02*
X23360714Y40425239D01*
X23217857Y40377620D01*
X23122619Y40377620D01*
X22979761Y40425239D01*
X22884523Y40520477D01*
X22836904Y40615715D01*
X22789285Y40806191D01*
X22789285Y40949048D01*
X22836904Y41139524D01*
X22884523Y41234762D01*
X22979761Y41330000D01*
X23122619Y41377620D01*
X23217857Y41377620D01*
X23360714Y41330000D01*
X23408333Y41282381D01*
X23741666Y41377620D02*
X24360714Y41377620D01*
X24027380Y40996667D01*
X24170238Y40996667D01*
X24265476Y40949048D01*
X24313095Y40901429D01*
X24360714Y40806191D01*
X24360714Y40568096D01*
X24313095Y40472858D01*
X24265476Y40425239D01*
X24170238Y40377620D01*
X23884523Y40377620D01*
X23789285Y40425239D01*
X23741666Y40472858D01*
%TO.C,Q1*%
X17442261Y45002381D02*
X17347023Y45050000D01*
X17251785Y45145239D01*
X17108928Y45288096D01*
X17013690Y45335715D01*
X16918452Y45335715D01*
X16966071Y45097620D02*
X16870833Y45145239D01*
X16775595Y45240477D01*
X16727976Y45430953D01*
X16727976Y45764286D01*
X16775595Y45954762D01*
X16870833Y46050000D01*
X16966071Y46097620D01*
X17156547Y46097620D01*
X17251785Y46050000D01*
X17347023Y45954762D01*
X17394642Y45764286D01*
X17394642Y45430953D01*
X17347023Y45240477D01*
X17251785Y45145239D01*
X17156547Y45097620D01*
X16966071Y45097620D01*
X18347023Y45097620D02*
X17775595Y45097620D01*
X18061309Y45097620D02*
X18061309Y46097620D01*
X17966071Y45954762D01*
X17870833Y45859524D01*
X17775595Y45811905D01*
%TO.C,SW1*%
X10466666Y33795239D02*
X10609523Y33747620D01*
X10847619Y33747620D01*
X10942857Y33795239D01*
X10990476Y33842858D01*
X11038095Y33938096D01*
X11038095Y34033334D01*
X10990476Y34128572D01*
X10942857Y34176191D01*
X10847619Y34223810D01*
X10657142Y34271429D01*
X10561904Y34319048D01*
X10514285Y34366667D01*
X10466666Y34461905D01*
X10466666Y34557143D01*
X10514285Y34652381D01*
X10561904Y34700000D01*
X10657142Y34747620D01*
X10895238Y34747620D01*
X11038095Y34700000D01*
X11371428Y34747620D02*
X11609523Y33747620D01*
X11800000Y34461905D01*
X11990476Y33747620D01*
X12228571Y34747620D01*
X13133333Y33747620D02*
X12561904Y33747620D01*
X12847619Y33747620D02*
X12847619Y34747620D01*
X12752380Y34604762D01*
X12657142Y34509524D01*
X12561904Y34461905D01*
%TO.C,J1*%
X59666666Y46347620D02*
X59666666Y45633334D01*
X59619047Y45490477D01*
X59523809Y45395239D01*
X59380952Y45347620D01*
X59285714Y45347620D01*
X60666666Y45347620D02*
X60095238Y45347620D01*
X60380952Y45347620D02*
X60380952Y46347620D01*
X60285714Y46204762D01*
X60190476Y46109524D01*
X60095238Y46061905D01*
%TO.C,R9*%
X19633333Y37377620D02*
X19300000Y37853810D01*
X19061904Y37377620D02*
X19061904Y38377620D01*
X19442857Y38377620D01*
X19538095Y38330000D01*
X19585714Y38282381D01*
X19633333Y38187143D01*
X19633333Y38044286D01*
X19585714Y37949048D01*
X19538095Y37901429D01*
X19442857Y37853810D01*
X19061904Y37853810D01*
X20109523Y37377620D02*
X20300000Y37377620D01*
X20395238Y37425239D01*
X20442857Y37472858D01*
X20538095Y37615715D01*
X20585714Y37806191D01*
X20585714Y38187143D01*
X20538095Y38282381D01*
X20490476Y38330000D01*
X20395238Y38377620D01*
X20204761Y38377620D01*
X20109523Y38330000D01*
X20061904Y38282381D01*
X20014285Y38187143D01*
X20014285Y37949048D01*
X20061904Y37853810D01*
X20109523Y37806191D01*
X20204761Y37758572D01*
X20395238Y37758572D01*
X20490476Y37806191D01*
X20538095Y37853810D01*
X20585714Y37949048D01*
%TO.C,F1*%
X31666666Y39471429D02*
X31333333Y39471429D01*
X31333333Y38947620D02*
X31333333Y39947620D01*
X31809523Y39947620D01*
X32714285Y38947620D02*
X32142857Y38947620D01*
X32428571Y38947620D02*
X32428571Y39947620D01*
X32333333Y39804762D01*
X32238095Y39709524D01*
X32142857Y39661905D01*
%TO.C,R7*%
X15458333Y37347620D02*
X15125000Y37823810D01*
X14886904Y37347620D02*
X14886904Y38347620D01*
X15267857Y38347620D01*
X15363095Y38300000D01*
X15410714Y38252381D01*
X15458333Y38157143D01*
X15458333Y38014286D01*
X15410714Y37919048D01*
X15363095Y37871429D01*
X15267857Y37823810D01*
X14886904Y37823810D01*
X15791666Y38347620D02*
X16458333Y38347620D01*
X16029761Y37347620D01*
%TO.C,R1*%
X38033333Y6147620D02*
X37700000Y6623810D01*
X37461904Y6147620D02*
X37461904Y7147620D01*
X37842857Y7147620D01*
X37938095Y7100000D01*
X37985714Y7052381D01*
X38033333Y6957143D01*
X38033333Y6814286D01*
X37985714Y6719048D01*
X37938095Y6671429D01*
X37842857Y6623810D01*
X37461904Y6623810D01*
X38985714Y6147620D02*
X38414285Y6147620D01*
X38700000Y6147620D02*
X38700000Y7147620D01*
X38604761Y7004762D01*
X38509523Y6909524D01*
X38414285Y6861905D01*
%TO.C,D4*%
X67661904Y17147620D02*
X67661904Y18147620D01*
X67900000Y18147620D01*
X68042857Y18100000D01*
X68138095Y18004762D01*
X68185714Y17909524D01*
X68233333Y17719048D01*
X68233333Y17576191D01*
X68185714Y17385715D01*
X68138095Y17290477D01*
X68042857Y17195239D01*
X67900000Y17147620D01*
X67661904Y17147620D01*
X69090476Y17814286D02*
X69090476Y17147620D01*
X68852380Y18195239D02*
X68614285Y17480953D01*
X69233333Y17480953D01*
%TO.C,D3*%
X68461904Y19747620D02*
X68461904Y20747620D01*
X68700000Y20747620D01*
X68842857Y20700000D01*
X68938095Y20604762D01*
X68985714Y20509524D01*
X69033333Y20319048D01*
X69033333Y20176191D01*
X68985714Y19985715D01*
X68938095Y19890477D01*
X68842857Y19795239D01*
X68700000Y19747620D01*
X68461904Y19747620D01*
X69366666Y20747620D02*
X69985714Y20747620D01*
X69652380Y20366667D01*
X69795238Y20366667D01*
X69890476Y20319048D01*
X69938095Y20271429D01*
X69985714Y20176191D01*
X69985714Y19938096D01*
X69938095Y19842858D01*
X69890476Y19795239D01*
X69795238Y19747620D01*
X69509523Y19747620D01*
X69414285Y19795239D01*
X69366666Y19842858D01*
D11*
%TO.C,D2*%
X47950000Y18250000D02*
X47950000Y16550000D01*
X47950000Y18250000D02*
X50500000Y18250000D01*
X47950000Y16550000D02*
X50500000Y16550000D01*
%TO.C,R5*%
X59387742Y4877500D02*
X59862258Y4877500D01*
X59387742Y5922500D02*
X59862258Y5922500D01*
%TO.C,U5*%
X56400000Y19960000D02*
X57200000Y19960000D01*
X56400000Y16840000D02*
X57200000Y16840000D01*
X56400000Y19960000D02*
X54600000Y19960000D01*
X56400000Y16840000D02*
X55600000Y16840000D01*
%TO.C,U12*%
X23137500Y41640000D02*
X23937500Y41640000D01*
X23137500Y44760000D02*
X21337500Y44760000D01*
X23137500Y41640000D02*
X22337500Y41640000D01*
X23137500Y44760000D02*
X23937500Y44760000D01*
%TO.C,R2*%
X43787742Y5722500D02*
X44262258Y5722500D01*
X43787742Y4677500D02*
X44262258Y4677500D01*
%TO.C,U11*%
X7270000Y26775000D02*
X32700000Y26775000D01*
X7270000Y26775000D02*
X7270000Y24235000D01*
X34830000Y3035000D02*
X34830000Y24645000D01*
X370000Y24235000D02*
X370000Y915000D01*
X7270000Y24235000D02*
X370000Y24235000D01*
X370000Y915000D02*
X32700000Y915000D01*
X34830000Y24645000D02*
G75*
G03*
X32700000Y26775000I-2130002J-2D01*
G01*
X32700000Y915000D02*
G75*
G03*
X34830000Y3045000I0J2130000D01*
G01*
G36*
X26490000Y27180000D02*
G01*
X25855000Y27815000D01*
X27125000Y27815000D01*
X26490000Y27180000D01*
G37*
D10*
X26490000Y27180000D02*
X25855000Y27815000D01*
X27125000Y27815000D01*
X26490000Y27180000D01*
D11*
%TO.C,JP1*%
X65795000Y26470000D02*
X65795000Y29130000D01*
X64525000Y26470000D02*
X63195000Y26470000D01*
X68395000Y26470000D02*
X68395000Y29130000D01*
X65795000Y29130000D02*
X68395000Y29130000D01*
X65795000Y26470000D02*
X68395000Y26470000D01*
X63195000Y26470000D02*
X63195000Y27800000D01*
%TO.C,R3*%
X66587742Y4877500D02*
X67062258Y4877500D01*
X66587742Y5922500D02*
X67062258Y5922500D01*
%TO.C,J2*%
X7100000Y29800000D02*
X7100000Y29300000D01*
X1940000Y30800000D02*
X2550000Y30800000D01*
X1940000Y28690000D02*
X10060000Y28690000D01*
X4500000Y33410000D02*
X4500000Y32800000D01*
X6900000Y29300000D02*
X6900000Y29800000D01*
X10060000Y30800000D02*
X9450000Y30800000D01*
X3700000Y33510000D02*
X3400000Y33510000D01*
X10060000Y32100000D02*
X9450000Y32100000D01*
X1940000Y32100000D02*
X2550000Y32100000D01*
X4500000Y32800000D02*
X2550000Y32800000D01*
X2550000Y32800000D02*
X2550000Y29300000D01*
X5000000Y29300000D02*
X5000000Y29800000D01*
X6900000Y29800000D02*
X7100000Y29800000D01*
X1640000Y33710000D02*
X1640000Y32460000D01*
X3700000Y33610000D02*
X3400000Y33610000D01*
X10060000Y28690000D02*
X10060000Y33410000D01*
X2890000Y33710000D02*
X1640000Y33710000D01*
X7500000Y32800000D02*
X7500000Y33410000D01*
X5100000Y29800000D02*
X5100000Y29300000D01*
X4900000Y29300000D02*
X4900000Y29800000D01*
X1940000Y33410000D02*
X1940000Y28690000D01*
X9450000Y32800000D02*
X7500000Y32800000D01*
X4900000Y29800000D02*
X5100000Y29800000D01*
X7000000Y29300000D02*
X7000000Y29800000D01*
X10060000Y33410000D02*
X1940000Y33410000D01*
X3400000Y33610000D02*
X3400000Y33410000D01*
X3700000Y33410000D02*
X3700000Y33610000D01*
X9450000Y29300000D02*
X9450000Y32800000D01*
X2550000Y29300000D02*
X9450000Y29300000D01*
%TO.C,C1*%
X12234420Y38890000D02*
X12515580Y38890000D01*
X12234420Y39910000D02*
X12515580Y39910000D01*
%TO.C,J6*%
X36900000Y41800000D02*
X37400000Y41800000D01*
X37400000Y37900000D02*
X37400000Y37700000D01*
X41010000Y43100000D02*
X41210000Y43100000D01*
X40400000Y37300000D02*
X41010000Y37300000D01*
X38400000Y44860000D02*
X38400000Y44250000D01*
X36900000Y35350000D02*
X40400000Y35350000D01*
X40400000Y35350000D02*
X40400000Y37300000D01*
X36900000Y41900000D02*
X37400000Y41900000D01*
X37400000Y41700000D02*
X36900000Y41700000D01*
X37400000Y41900000D02*
X37400000Y41700000D01*
X41310000Y43910000D02*
X41310000Y45160000D01*
X36290000Y34740000D02*
X41010000Y34740000D01*
X37400000Y39700000D02*
X36900000Y39700000D01*
X36900000Y37800000D02*
X37400000Y37800000D01*
X39700000Y44860000D02*
X39700000Y44250000D01*
X36900000Y37900000D02*
X37400000Y37900000D01*
X36900000Y44250000D02*
X36900000Y35350000D01*
X36900000Y39900000D02*
X37400000Y39900000D01*
X37400000Y37700000D02*
X36900000Y37700000D01*
X41010000Y34740000D02*
X41010000Y44860000D01*
X41310000Y45160000D02*
X40060000Y45160000D01*
X36900000Y39800000D02*
X37400000Y39800000D01*
X40400000Y44250000D02*
X36900000Y44250000D01*
X40400000Y42300000D02*
X40400000Y44250000D01*
X39700000Y34740000D02*
X39700000Y35350000D01*
X41210000Y43400000D02*
X41010000Y43400000D01*
X37400000Y39900000D02*
X37400000Y39700000D01*
X41010000Y44860000D02*
X36290000Y44860000D01*
X41010000Y42300000D02*
X40400000Y42300000D01*
X36290000Y44860000D02*
X36290000Y34740000D01*
X41110000Y43100000D02*
X41110000Y43400000D01*
X38400000Y34740000D02*
X38400000Y35350000D01*
X41210000Y43100000D02*
X41210000Y43400000D01*
%TO.C,J4*%
X4550000Y37245000D02*
X7450000Y37245000D01*
X2645000Y42050000D02*
X2645000Y39150000D01*
X4550000Y43955000D02*
X7450000Y43955000D01*
X9355000Y42050000D02*
X9355000Y39150000D01*
%TO.C,J3*%
X45950000Y44250000D02*
X42450000Y44250000D01*
X46760000Y43100000D02*
X46760000Y43400000D01*
X41840000Y44860000D02*
X41840000Y34740000D01*
X42450000Y37900000D02*
X42950000Y37900000D01*
X42450000Y44250000D02*
X42450000Y35350000D01*
X45950000Y37300000D02*
X46560000Y37300000D01*
X42950000Y37900000D02*
X42950000Y37700000D01*
X46560000Y34740000D02*
X46560000Y44860000D01*
X46560000Y43100000D02*
X46760000Y43100000D01*
X42450000Y37800000D02*
X42950000Y37800000D01*
X45950000Y35350000D02*
X45950000Y37300000D01*
X46760000Y43400000D02*
X46560000Y43400000D01*
X43950000Y34740000D02*
X43950000Y35350000D01*
X42950000Y41700000D02*
X42450000Y41700000D01*
X42950000Y39900000D02*
X42950000Y39700000D01*
X42450000Y35350000D02*
X45950000Y35350000D01*
X45250000Y44860000D02*
X45250000Y44250000D01*
X46560000Y44860000D02*
X41840000Y44860000D01*
X42950000Y39700000D02*
X42450000Y39700000D01*
X42450000Y39900000D02*
X42950000Y39900000D01*
X45250000Y34740000D02*
X45250000Y35350000D01*
X42950000Y37700000D02*
X42450000Y37700000D01*
X46860000Y45160000D02*
X45610000Y45160000D01*
X42450000Y41800000D02*
X42950000Y41800000D01*
X41840000Y34740000D02*
X46560000Y34740000D01*
X45950000Y42300000D02*
X45950000Y44250000D01*
X46560000Y42300000D02*
X45950000Y42300000D01*
X46660000Y43100000D02*
X46660000Y43400000D01*
X42450000Y41900000D02*
X42950000Y41900000D01*
X43950000Y44860000D02*
X43950000Y44250000D01*
X42450000Y39800000D02*
X42950000Y39800000D01*
X46860000Y43910000D02*
X46860000Y45160000D01*
X42950000Y41900000D02*
X42950000Y41700000D01*
%TO.C,U6*%
X41200000Y8615000D02*
X39000000Y8615000D01*
X41200000Y15385000D02*
X37600000Y15385000D01*
X41200000Y8615000D02*
X43400000Y8615000D01*
X41200000Y15385000D02*
X43400000Y15385000D01*
%TO.C,QA1*%
X44073000Y30001000D02*
X56265000Y30001000D01*
X56265000Y30001000D02*
X56265000Y25429000D01*
X56265000Y25429000D02*
X44073000Y25429000D01*
X44073000Y25429000D02*
X44073000Y30001000D01*
%TO.C,R6*%
X12187742Y35877500D02*
X12662258Y35877500D01*
X12187742Y36922500D02*
X12662258Y36922500D01*
D10*
%TO.C,U1*%
X64675000Y39675000D02*
X64675000Y39700000D01*
X69300000Y45200000D02*
X69300000Y45100000D01*
X69325000Y39675000D02*
X69325000Y39700000D01*
X63600000Y45200000D02*
X69300000Y45200000D01*
X64675000Y39675000D02*
X69325000Y39675000D01*
D11*
%TO.C,U8*%
X77000000Y17040000D02*
X76200000Y17040000D01*
X77000000Y17040000D02*
X77800000Y17040000D01*
X77000000Y20160000D02*
X75200000Y20160000D01*
X77000000Y20160000D02*
X77800000Y20160000D01*
D10*
%TO.C,U7*%
X49145000Y4575000D02*
X49145000Y5225000D01*
X49145000Y15225000D02*
X54895000Y15225000D01*
X49145000Y4575000D02*
X54895000Y4575000D01*
X54895000Y4575000D02*
X54895000Y5225000D01*
X54895000Y15225000D02*
X54895000Y14575000D01*
X49145000Y15225000D02*
X49145000Y14650000D01*
X49145000Y14650000D02*
X47545000Y14650000D01*
D11*
%TO.C,D7*%
X12537500Y41590000D02*
X13187500Y41590000D01*
X12537500Y44710000D02*
X10862500Y44710000D01*
X12537500Y44710000D02*
X13187500Y44710000D01*
X12537500Y41590000D02*
X11887500Y41590000D01*
%TO.C,J5*%
X50350000Y43355000D02*
X53250000Y43355000D01*
X55155000Y41450000D02*
X55155000Y38550000D01*
X50350000Y36645000D02*
X53250000Y36645000D01*
X48445000Y41450000D02*
X48445000Y38550000D01*
%TO.C,C2*%
X15434420Y39910000D02*
X15715580Y39910000D01*
X15434420Y38890000D02*
X15715580Y38890000D01*
D10*
%TO.C,U3*%
X69300000Y37200000D02*
X69300000Y37100000D01*
X63600000Y37200000D02*
X69300000Y37200000D01*
X64675000Y31675000D02*
X64675000Y31700000D01*
X69325000Y31675000D02*
X69325000Y31700000D01*
X64675000Y31675000D02*
X69325000Y31675000D01*
D11*
%TO.C,D5*%
X28800000Y41640000D02*
X28150000Y41640000D01*
X28800000Y44760000D02*
X29450000Y44760000D01*
X28800000Y41640000D02*
X29450000Y41640000D01*
X28800000Y44760000D02*
X27125000Y44760000D01*
%TO.C,U9*%
X63100000Y15385000D02*
X59500000Y15385000D01*
X63100000Y8615000D02*
X65300000Y8615000D01*
X63100000Y8615000D02*
X60900000Y8615000D01*
X63100000Y15385000D02*
X65300000Y15385000D01*
D10*
%TO.C,U2*%
X77325000Y39675000D02*
X77325000Y39700000D01*
X72675000Y39675000D02*
X77325000Y39675000D01*
X72675000Y39675000D02*
X72675000Y39700000D01*
X77300000Y45200000D02*
X77300000Y45100000D01*
X71600000Y45200000D02*
X77300000Y45200000D01*
%TO.C,U4*%
X77325000Y31675000D02*
X77325000Y31700000D01*
X77300000Y37200000D02*
X77300000Y37100000D01*
X71600000Y37200000D02*
X77300000Y37200000D01*
X72675000Y31675000D02*
X72675000Y31700000D01*
X72675000Y31675000D02*
X77325000Y31675000D01*
D11*
%TO.C,R11*%
X72322500Y27587742D02*
X72322500Y28062258D01*
X71277500Y27587742D02*
X71277500Y28062258D01*
%TO.C,R4*%
X62787742Y5922500D02*
X63262258Y5922500D01*
X62787742Y4877500D02*
X63262258Y4877500D01*
%TO.C,D1*%
X47950000Y20850000D02*
X47950000Y19150000D01*
X47950000Y20850000D02*
X50500000Y20850000D01*
X47950000Y19150000D02*
X50500000Y19150000D01*
%TO.C,R10*%
X23862258Y36922500D02*
X23387742Y36922500D01*
X23862258Y35877500D02*
X23387742Y35877500D01*
D10*
%TO.C,U10*%
X77065000Y15325000D02*
X77065000Y14675000D01*
X77065000Y4675000D02*
X77065000Y5325000D01*
X71315000Y4675000D02*
X77065000Y4675000D01*
X71315000Y14750000D02*
X69715000Y14750000D01*
X71315000Y15325000D02*
X71315000Y14750000D01*
X71315000Y15325000D02*
X77065000Y15325000D01*
X71315000Y4675000D02*
X71315000Y5325000D01*
D11*
%TO.C,R8*%
X20187742Y38877500D02*
X20662258Y38877500D01*
X20187742Y39922500D02*
X20662258Y39922500D01*
%TO.C,C3*%
X23434420Y38890000D02*
X23715580Y38890000D01*
X23434420Y39910000D02*
X23715580Y39910000D01*
%TO.C,Q1*%
X17537500Y41590000D02*
X18187500Y41590000D01*
X17537500Y44710000D02*
X18187500Y44710000D01*
X17537500Y41590000D02*
X16887500Y41590000D01*
X17537500Y44710000D02*
X15862500Y44710000D01*
%TO.C,SW1*%
X15110000Y33470000D02*
X15110000Y28270000D01*
X23880000Y28210000D02*
X23880000Y33530000D01*
X23880000Y33530000D02*
X11410000Y33530000D01*
X20180000Y33470000D02*
X18645000Y33470000D01*
X15110000Y28270000D02*
X20180000Y28270000D01*
X20180000Y28270000D02*
X20180000Y33470000D01*
X11410000Y33530000D02*
X11410000Y28210000D01*
X11410000Y28210000D02*
X23880000Y28210000D01*
X16645000Y33470000D02*
X15110000Y33470000D01*
X16645000Y33470000D02*
G75*
G03*
X18645000Y33470000I1000000J0D01*
G01*
%TO.C,J1*%
X58750000Y41900000D02*
X58750000Y41700000D01*
X62360000Y42300000D02*
X61750000Y42300000D01*
X58750000Y37700000D02*
X58250000Y37700000D01*
X58250000Y39800000D02*
X58750000Y39800000D01*
X58250000Y35350000D02*
X61750000Y35350000D01*
X62560000Y43400000D02*
X62360000Y43400000D01*
X62360000Y43100000D02*
X62560000Y43100000D01*
X57640000Y34740000D02*
X62360000Y34740000D01*
X58250000Y41800000D02*
X58750000Y41800000D01*
X61750000Y37300000D02*
X62360000Y37300000D01*
X61750000Y44250000D02*
X58250000Y44250000D01*
X61050000Y44860000D02*
X61050000Y44250000D01*
X58250000Y41900000D02*
X58750000Y41900000D01*
X62360000Y34740000D02*
X62360000Y44860000D01*
X61050000Y34740000D02*
X61050000Y35350000D01*
X58750000Y39700000D02*
X58250000Y39700000D01*
X58750000Y37900000D02*
X58750000Y37700000D01*
X59750000Y34740000D02*
X59750000Y35350000D01*
X61750000Y42300000D02*
X61750000Y44250000D01*
X61750000Y35350000D02*
X61750000Y37300000D01*
X58250000Y39900000D02*
X58750000Y39900000D01*
X62660000Y43910000D02*
X62660000Y45160000D01*
X62360000Y44860000D02*
X57640000Y44860000D01*
X58250000Y37800000D02*
X58750000Y37800000D01*
X58250000Y37900000D02*
X58750000Y37900000D01*
X58750000Y41700000D02*
X58250000Y41700000D01*
X57640000Y44860000D02*
X57640000Y34740000D01*
X58250000Y44250000D02*
X58250000Y35350000D01*
X62460000Y43100000D02*
X62460000Y43400000D01*
X59750000Y44860000D02*
X59750000Y44250000D01*
X62660000Y45160000D02*
X61410000Y45160000D01*
X62560000Y43100000D02*
X62560000Y43400000D01*
X58750000Y39900000D02*
X58750000Y39700000D01*
%TO.C,R9*%
X20187742Y35877500D02*
X20662258Y35877500D01*
X20187742Y36922500D02*
X20662258Y36922500D01*
%TO.C,F1*%
X34530000Y29950000D02*
X34310000Y29780000D01*
X34660000Y30720000D02*
X34710000Y30470000D01*
X33730000Y29740000D02*
X33550000Y29820000D01*
X34310000Y29780000D02*
X34020000Y29700000D01*
X34450000Y31020000D02*
X34570000Y30880000D01*
X34710000Y30470000D02*
X34680000Y30210000D01*
X33550000Y29820000D02*
X33420000Y29970000D01*
X34570000Y30880000D02*
X34660000Y30720000D01*
X34020000Y29700000D02*
X33730000Y29740000D01*
X34680000Y30210000D02*
X34530000Y29950000D01*
X35350000Y33800000D02*
G75*
G03*
X35350000Y33800000I-4750000J0D01*
G01*
%TO.C,R7*%
X15862258Y36922500D02*
X15387742Y36922500D01*
X15862258Y35877500D02*
X15387742Y35877500D01*
%TO.C,R1*%
X39062258Y4677500D02*
X38587742Y4677500D01*
X39062258Y5722500D02*
X38587742Y5722500D01*
%TO.C,D4*%
X70550000Y18450000D02*
X70550000Y16750000D01*
X70550000Y16750000D02*
X73100000Y16750000D01*
X70550000Y18450000D02*
X73100000Y18450000D01*
%TO.C,D3*%
X70550000Y21050000D02*
X73100000Y21050000D01*
X70550000Y21050000D02*
X70550000Y19350000D01*
X70550000Y19350000D02*
X73100000Y19350000D01*
%TD*%
M02*
